<svg width="20" height="20" viewBox="0 0 20 20" fill="none" xmlns="http://www.w3.org/2000/svg">
<g clip-path="url(#clip0_2087_14377)">
<path d="M15.3444 12.8435L14.0631 14.1873L13.6881 13.781C13.4381 13.4998 12.9694 13.4685 12.6881 13.7498C12.4069 13.9998 12.3756 14.4685 12.6569 14.7498L13.5319 15.6873C13.6569 15.8435 13.8444 15.906 14.0319 15.906C14.2194 15.906 14.4069 15.8123 14.5319 15.6873L16.3444 13.781C16.6256 13.4998 16.5944 13.0623 16.3131 12.781C16.0631 12.5623 15.5944 12.5623 15.3444 12.8435Z" fill="white"/>
<path d="M16.5 9.65625V6.40625C16.5 5.875 16.3125 5.375 15.9688 5L12.9375 1.59375C12.5313 1.15625 11.9688 0.875 11.3438 0.875H5.6875C5.09375 0.875 4.5 1.125 4.09375 1.59375L1.09375 4.96875C0.75 5.34375 0.5625 5.875 0.5625 6.375V15.3437C0.5625 16.5312 1.53125 17.4688 2.6875 17.4688H10.8438C11.75 18.4688 13.0625 19.0937 14.5 19.0937C17.2188 19.0937 19.4375 16.875 19.4375 14.1562C19.4375 12.1562 18.25 10.4062 16.5 9.65625ZM11.875 2.53125L14.2188 5.15625H9.21875V2.28125H11.3438C11.5625 2.28125 11.75 2.375 11.875 2.53125ZM5.15625 2.53125C5.28125 2.375 5.5 2.28125 5.6875 2.28125H7.8125V5.15625H2.8125L5.15625 2.53125ZM2.6875 16.0937C2.28125 16.0937 1.96875 15.7812 1.96875 15.375V6.5625H15.125V9.25C14.9375 9.21875 14.7188 9.21875 14.5313 9.21875C11.8125 9.21875 9.59375 11.4375 9.59375 14.1562C9.59375 14.8437 9.71875 15.5 9.96875 16.0937H2.6875ZM14.5 17.7187C12.5313 17.7187 10.9688 16.125 10.9688 14.1875C10.9688 12.25 12.5313 10.625 14.5 10.625C16.4688 10.625 18.0313 12.2187 18.0313 14.1562C18.0313 16.0937 16.4688 17.7187 14.5 17.7187Z" fill="white"/>
</g>
<defs>
<clipPath id="clip0_2087_14377">
<rect width="20" height="20" fill="white"/>
</clipPath>
</defs>
</svg>
