<svg width="20" height="20" viewBox="0 0 20 20" fill="none" xmlns="http://www.w3.org/2000/svg">
<path d="M18.75 18.0625H1.96875V1.25C1.96875 0.875 1.65625 0.53125 1.25 0.53125C0.84375 0.53125 0.5625 0.875 0.5625 1.25V18.1562C0.5625 18.875 1.15625 19.4687 1.875 19.4687H18.75C19.125 19.4687 19.4688 19.1562 19.4688 18.75C19.4688 18.3437 19.125 18.0625 18.75 18.0625Z" fill="white"/>
<path d="M18.4375 6.90625H14.7813C14.4063 6.90625 14.0625 7.21875 14.0625 7.625C14.0625 8.03125 14.375 8.34375 14.7813 8.34375H16.9063L15.25 9.78125H11.1563C10.9375 9.78125 10.7188 9.875 10.5938 10.0625L8.375 12.9688H5.09375C4.71875 12.9688 4.375 13.2812 4.375 13.6875C4.375 14.0937 4.6875 14.4062 5.09375 14.4062H8.71875C8.9375 14.4062 9.15625 14.3125 9.28125 14.125L11.5 11.2188H15.5313C15.6875 11.2188 15.875 11.1562 16 11.0312L18.0625 9.21875V11.625C18.0625 12 18.375 12.3438 18.7813 12.3438C19.1875 12.3438 19.5 12.0312 19.5 11.625V7.90625C19.4688 7.375 19 6.90625 18.4375 6.90625Z" fill="white"/>
</svg>
