<svg width="20" height="20" viewBox="0 0 20 20" fill="none" xmlns="http://www.w3.org/2000/svg">
<g clip-path="url(#clip0_2087_14079)">
<path d="M12.0625 0.5625C11.6875 0.5625 11.3438 0.875 11.3438 1.28125V7.53125C11.3438 7.90625 11.6562 8.25 12.0625 8.25H18.75C18.9375 8.25 19.125 8.15625 19.25 8.03125C19.375 7.875 19.4375 7.6875 19.4375 7.5C19.1875 3.59375 15.9375 0.5625 12.0625 0.5625ZM12.75 6.78125V2C15.3437 2.3125 17.4375 4.25 17.9375 6.8125H12.75V6.78125Z" fill="white"/>
<path d="M17.0938 9.65644H10.125V2.93769C10.125 2.56269 9.8125 2.25019 9.4375 2.25019C9.34375 2.25019 9.25 2.25019 9.15625 2.25019C4.40625 2.21894 0.5625 6.09394 0.5625 10.8439C0.5625 15.5939 4.4375 19.4689 9.1875 19.4689C13.9375 19.4689 17.8125 15.5939 17.8125 10.8439C17.8125 10.6564 17.8125 10.4689 17.7812 10.3127C17.7812 9.93769 17.4688 9.65644 17.0938 9.65644ZM9.1875 18.0627C5.1875 18.0627 1.96875 14.8439 1.96875 10.8439C1.96875 7.03144 4.96875 3.87519 8.75 3.65644V10.3439C8.75 10.7189 9.0625 11.0627 9.46875 11.0627H16.4375C16.3125 14.9377 13.0938 18.0627 9.1875 18.0627Z" fill="white"/>
</g>
<defs>
<clipPath id="clip0_2087_14079">
<rect width="20" height="20" fill="white"/>
</clipPath>
</defs>
</svg>
