<svg width="20" height="20" viewBox="0 0 18 16" fill="none" xmlns="http://www.w3.org/2000/svg">
<path d="M16.5 7.3125H3.15625L8.46875 1.90625C8.75 1.625 8.75 1.1875 8.46875 0.90625C8.1875 0.625 7.75 0.625 7.46875 0.90625L1 7.46875C0.71875 7.75 0.71875 8.1875 1 8.46875L7.46875 15.0312C7.59375 15.1562 7.78125 15.25 7.96875 15.25C8.15625 15.25 8.3125 15.1875 8.46875 15.0625C8.75 14.7812 8.75 14.3438 8.46875 14.0625L3.1875 8.71875H16.5C16.875 8.71875 17.1875 8.40625 17.1875 8.03125C17.1875 7.625 16.875 7.3125 16.5 7.3125Z" fill="white"/>
</svg>
