<svg width="20" height="20" viewBox="0 0 30 30" fill="none" xmlns="http://www.w3.org/2000/svg">
<path d="M15 20.25C13.6076 20.25 12.2723 19.6969 11.2877 18.7123C10.3031 17.7277 9.75 16.3924 9.75 15C9.75 13.6076 10.3031 12.2723 11.2877 11.2877C12.2723 10.3031 13.6076 9.75 15 9.75C16.3924 9.75 17.7277 10.3031 18.7123 11.2877C19.6969 12.2723 20.25 13.6076 20.25 15C20.25 16.3924 19.6969 17.7277 18.7123 18.7123C17.7277 19.6969 16.3924 20.25 15 20.25ZM26.145 16.455C26.205 15.975 26.25 15.495 26.25 15C26.25 14.505 26.205 14.01 26.145 13.5L29.31 11.055C29.595 10.83 29.67 10.425 29.49 10.095L26.49 4.905C26.31 4.575 25.905 4.44 25.575 4.575L21.84 6.075C21.06 5.49 20.25 4.98 19.305 4.605L18.75 0.63C18.69 0.27 18.375 0 18 0H12C11.625 0 11.31 0.27 11.25 0.63L10.695 4.605C9.75 4.98 8.94 5.49 8.16 6.075L4.425 4.575C4.095 4.44 3.69 4.575 3.51 4.905L0.510003 10.095C0.315003 10.425 0.405003 10.83 0.690003 11.055L3.855 13.5C3.795 14.01 3.75 14.505 3.75 15C3.75 15.495 3.795 15.975 3.855 16.455L0.690003 18.945C0.405003 19.17 0.315003 19.575 0.510003 19.905L3.51 25.095C3.69 25.425 4.095 25.545 4.425 25.425L8.16 23.91C8.94 24.51 9.75 25.02 10.695 25.395L11.25 29.37C11.31 29.73 11.625 30 12 30H18C18.375 30 18.69 29.73 18.75 29.37L19.305 25.395C20.25 25.005 21.06 24.51 21.84 23.91L25.575 25.425C25.905 25.545 26.31 25.425 26.49 25.095L29.49 19.905C29.67 19.575 29.595 19.17 29.31 18.945L26.145 16.455Z" fill="white"/>
</svg>
