<svg width="20" height="20" viewBox="0 0 20 20" fill="none" xmlns="http://www.w3.org/2000/svg">
<g clip-path="url(#clip0_279_76403)">
<path fill-rule="evenodd" clip-rule="evenodd" d="M18.75 5.37512H1.25C0.875 5.37512 0.53125 5.06262 0.53125 4.65637C0.53125 4.25012 0.875 3.93762 1.25 3.93762H18.75C19.1562 3.93762 19.4687 4.25012 19.4687 4.65637C19.4687 5.06262 19.125 5.37512 18.75 5.37512ZM18.75 9.31262H1.25C0.875 9.31262 0.53125 9.62512 0.53125 10.0314C0.53125 10.4064 0.84375 10.7501 1.25 10.7501H18.75C19.125 10.7501 19.4687 10.4376 19.4687 10.0314C19.4687 9.62512 19.125 9.31262 18.75 9.31262ZM18.75 14.6251H1.25C0.875 14.6251 0.53125 14.9376 0.53125 15.3439C0.53125 15.7501 0.84375 16.0626 1.25 16.0626H18.75C19.125 16.0626 19.4687 15.7501 19.4687 15.3439C19.4687 14.9376 19.125 14.6251 18.75 14.6251Z" fill="#023047"/>
</g>
<defs>
<clipPath id="clip0_279_76403">
<rect width="20" height="20" fill="white"/>
</clipPath>
</defs>
</svg>
