<svg width="20" height="20" viewBox="0 0 20 20" fill="none" xmlns="http://www.w3.org/2000/svg">
<path d="M10 13.1111C11.578 13.1111 12.8571 11.7182 12.8571 10C12.8571 8.28178 11.578 6.88889 10 6.88889C8.42204 6.88889 7.14286 8.28178 7.14286 10C7.14286 11.7182 8.42204 13.1111 10 13.1111Z" fill="white"/>
<path fill-rule="evenodd" clip-rule="evenodd" d="M0 17H20V3H0V17ZM4.28571 5.33333H15.7143C15.7143 6.622 16.6737 7.66667 17.8571 7.66667V12.3333C16.6737 12.3333 15.7143 13.378 15.7143 14.6667H4.28571C4.28571 13.378 3.32632 12.3333 2.14286 12.3333V7.66667C3.32632 7.66667 4.28571 6.622 4.28571 5.33333Z" fill="white"/>
</svg>
