<svg width="20" height="20" viewBox="0 0 20 20" fill="none" xmlns="http://www.w3.org/2000/svg">
<path d="M9.99995 12.2222C11.2272 12.2222 12.2222 11.2273 12.2222 10C12.2222 8.7727 11.2272 7.77778 9.99995 7.77778C8.77265 7.77778 7.77772 8.7727 7.77772 10C7.77772 11.2273 8.77265 12.2222 9.99995 12.2222Z" fill="black"/>
<path fill-rule="evenodd" clip-rule="evenodd" d="M2.22217 15H17.7777V5H2.22217V15ZM5.5555 6.66667H14.4444C14.4444 7.58714 15.1906 8.33333 16.1111 8.33333V11.6667C15.1906 11.6667 14.4444 12.4129 14.4444 13.3333H5.5555C5.5555 12.4129 4.80931 11.6667 3.88883 11.6667V8.33333C4.80931 8.33333 5.5555 7.58714 5.5555 6.66667Z" fill="black"/>
</svg>