<svg width="20" height="20" viewBox="0 0 20 20" fill="none" xmlns="http://www.w3.org/2000/svg">
<path fill-rule="evenodd" clip-rule="evenodd" d="M13.2188 1.06262H17.1875C18.25 1.06262 19.125 1.93762 19.125 3.03137V6.96887C19.125 8.03137 18.25 8.90637 17.1875 8.90637H13.2188C12.1562 8.90637 11.2812 8.03137 11.2812 6.96887V3.00012C11.2812 1.93762 12.1562 1.06262 13.2188 1.06262ZM17.1875 7.56262C17.5 7.56262 17.75 7.31262 17.75 7.00012V3.03137C17.75 2.71887 17.5 2.46887 17.1875 2.46887H13.2188C12.9062 2.46887 12.6562 2.71887 12.6562 3.03137V7.00012C12.6562 7.31262 12.9062 7.56262 13.2188 7.56262H17.1875ZM2.8125 1.06262H6.78125C7.875 1.06262 8.75 1.93762 8.71875 3.03137V6.96887C8.71875 8.03137 7.84375 8.90637 6.78125 8.90637H2.8125C1.75 8.90637 0.875 8.03137 0.875 6.96887V3.00012C0.875 1.93762 1.75 1.06262 2.8125 1.06262ZM6.78125 7.56262C7.09375 7.56262 7.34375 7.31262 7.34375 7.00012V3.03137C7.34375 2.71887 7.09375 2.46887 6.78125 2.46887H2.8125C2.5 2.46887 2.25 2.71887 2.25 3.03137V7.00012C2.25 7.31262 2.5 7.56262 2.8125 7.56262H6.78125ZM6.78125 11.0314H2.8125C1.75 11.0314 0.875 11.9064 0.875 12.9689V16.9376C0.875 18.0001 1.75 18.8751 2.8125 18.8751H6.78125C7.84375 18.8751 8.71875 18.0001 8.71875 16.9376V13.0001C8.75 11.9064 7.875 11.0314 6.78125 11.0314ZM7.34375 16.9689C7.34375 17.2814 7.09375 17.5314 6.78125 17.5314H2.8125C2.5 17.5314 2.25 17.2814 2.25 16.9689V13.0001C2.25 12.6876 2.5 12.4376 2.8125 12.4376H6.78125C7.09375 12.4376 7.34375 12.6876 7.34375 13.0001V16.9689ZM13.2188 11.0314H17.1875C18.25 11.0314 19.125 11.9064 19.125 13.0001V16.9376C19.125 18.0001 18.25 18.8751 17.1875 18.8751H13.2188C12.1562 18.8751 11.2812 18.0001 11.2812 16.9376V12.9689C11.2812 11.9064 12.1562 11.0314 13.2188 11.0314ZM17.1875 17.5314C17.5 17.5314 17.75 17.2814 17.75 16.9689V13.0001C17.75 12.6876 17.5 12.4376 17.1875 12.4376H13.2188C12.9062 12.4376 12.6562 12.6876 12.6562 13.0001V16.9689C12.6562 17.2814 12.9062 17.5314 13.2188 17.5314H17.1875Z" fill="#8899A8"/>
</svg>
