<svg width="20" height="19" viewBox="0 0 20 19" fill="none" xmlns="http://www.w3.org/2000/svg">
<path d="M18.0833 14.5V13.6667L19 13C19.0833 12.9167 19.1667 12.8333 19.0833 12.75L18.25 11.3333C18.25 11.25 18.0833 11.25 18 11.25L17 11.6667C16.75 11.5 16.5 11.3333 16.25 11.25L16.0833 10.1667C16.0833 10.0833 16 10 15.9167 10H14.25C14.0833 10 14 10.0833 14 10.1667L13.8333 11.25C13.5833 11.4167 13.4167 11.5 13.1667 11.6667L12.1667 11.25C12.0833 11.25 12 11.25 11.9167 11.3333L11.0833 12.75C11.0833 12.8333 11.0833 12.9167 11.1667 13L12.0833 13.6667V14.5L11.1667 15.1667C11.0833 15.25 11 15.3333 11.0833 15.4167L11.9167 16.8333C12 16.9167 12.0833 16.9167 12.1667 16.9167L13.1667 16.5C13.3333 16.6667 13.5833 16.8333 13.8333 16.9167L14 18C14.0833 18.0833 14.1667 18.1667 14.25 18.1667H15.9167C16 18.1667 16.0833 18.0833 16.0833 18L16.25 16.9167C16.5 16.75 16.6667 16.6667 16.9167 16.5L17.9167 16.8333C18 16.8333 18.0833 16.8333 18.1667 16.75L19 15.3333C19.0833 15.25 19.0833 15.1667 19 15.1667L18.0833 14.5ZM15 15.25C14.3333 15.25 13.75 14.6667 13.75 14C13.75 13.3333 14.3333 12.75 15 12.75C15.6667 12.75 16.25 13.3333 16.25 14C16.25 14.6667 15.6667 15.25 15 15.25ZM9.16666 14C9.16666 10.75 11.75 8.16667 15 8.16667C16.6667 8.16667 18.0833 8.83334 19.1667 9.91667V2.33334C19.1667 1.41667 18.4167 0.666672 17.5 0.666672H2.5C1.58333 0.666672 0.833332 1.41667 0.833332 2.33334V15.6667C0.833332 16.5833 1.58333 17.3333 2.5 17.3333H10.25C9.58333 16.4167 9.16666 15.25 9.16666 14ZM2.5 2.33334H17.5V4.83334H2.5V2.33334Z" fill="white"/>
</svg>
