<svg width="20" height="20" viewBox="0 0 20 20" fill="none" xmlns="http://www.w3.org/2000/svg">
<path fill-rule="evenodd" clip-rule="evenodd" d="M16.6875 0.718872H9.25C8.15625 0.718872 7.28125 1.59387 7.28125 2.68762V4.68762C6.5625 4.18762 5.625 4.21887 4.9375 4.78137L2.0625 7.12512C1.59375 7.50012 1.34375 8.06262 1.34375 8.62512V17.3751C1.34375 18.4689 2.21875 19.3439 3.3125 19.3439H16.7187C17.8125 19.3439 18.6875 18.4689 18.6875 17.3751V2.68762C18.6562 1.59387 17.7813 0.718872 16.6875 0.718872ZM7 17.8751H5.4375V15.4376C5.4375 15.0001 5.78125 14.6564 6.21875 14.6564C6.4375 14.6564 6.625 14.7501 6.78125 14.8751C6.9375 15.0314 7 15.2189 7 15.4376V17.8751ZM8.40625 17.8751V15.4376C8.40625 14.8439 8.1875 14.3126 7.75 13.9064C7.34375 13.5001 6.78125 13.2501 6.21875 13.2501C5 13.2501 4.03125 14.2189 4.03125 15.4376V17.8751H3.3125C3 17.8751 2.75 17.6251 2.75 17.3126V8.56262C2.75 8.40637 2.8125 8.25012 2.9375 8.12512L5.8125 5.78137C6 5.62512 6.3125 5.62512 6.5 5.78137L9.375 8.12512C9.5 8.21887 9.5625 8.37512 9.5625 8.56262V17.8751H8.40625ZM17.25 17.3439C17.25 17.6564 17 17.9064 16.6875 17.9064H11.9062H11.875H10.9687V8.59387C10.9687 8.00012 10.7188 7.43762 10.25 7.06262L8.6875 5.78137V2.65637C8.6875 2.34387 8.9375 2.09387 9.25 2.09387H16.7187C17.0312 2.09387 17.2812 2.34387 17.2812 2.65637V17.3439H17.25ZM14.7812 4.31262H12.1875C11.8125 4.31262 11.4688 4.62512 11.4688 5.03137C11.4688 5.43762 11.7812 5.75012 12.1875 5.75012H14.7812C15.1562 5.75012 15.5 5.43762 15.5 5.03137C15.5 4.62512 15.1875 4.31262 14.7812 4.31262ZM12.1875 7.25012H14.7812C15.1875 7.25012 15.5 7.56262 15.5 7.96887C15.5 8.37512 15.1562 8.68762 14.7812 8.68762H12.1875C11.7812 8.68762 11.4688 8.37512 11.4688 7.96887C11.4688 7.56262 11.8125 7.25012 12.1875 7.25012ZM14.7812 10.2189H12.1875C11.8125 10.2189 11.4688 10.5314 11.4688 10.9376C11.4688 11.3439 11.7812 11.6564 12.1875 11.6564H14.7812C15.1562 11.6564 15.5 11.3439 15.5 10.9376C15.5 10.5314 15.1875 10.2189 14.7812 10.2189ZM12.1875 13.1876H14.7812C15.1875 13.1876 15.5 13.5001 15.5 13.9064C15.5 14.3126 15.1562 14.6251 14.7812 14.6251H12.1875C11.7812 14.6251 11.4688 14.3126 11.4688 13.9064C11.4688 13.5001 11.8125 13.1876 12.1875 13.1876Z" fill="#8899A8"/>
</svg>
