<svg width="20" height="20" viewBox="0 0 34 34" fill="none" xmlns="http://www.w3.org/2000/svg">
<path d="M15.5 0.5H3.5C1.85 0.5 0.5 1.85 0.5 3.5V21.5L5 17H12.5V15.5C12.5 12.2 15.185 9.5 18.5 9.5V3.5C18.5 1.85 17.15 0.5 15.5 0.5ZM15.5 5H13.25C12.74 6.785 11.81 8.45 10.52 9.89L10.49 9.92L12.38 11.795L11.825 13.31L9.5 11L5.75 14.75L4.715 13.655L8.51 9.92C7.58 8.885 6.83 7.73 6.29 6.5H7.775C8.24 7.4 8.81 8.255 9.5 9.02C10.58 7.82 11.36 6.455 11.855 5H3.5V3.5H8.75V2H10.25V3.5H15.5V5ZM30.5 12.5H18.5C16.85 12.5 15.5 13.85 15.5 15.5V26C15.5 27.65 16.85 29 18.5 29H29L33.5 33.5V15.5C33.5 13.85 32.15 12.5 30.5 12.5ZM28.445 27.5L27.17 24.125H21.83L20.57 27.5H18.32L23.375 14H25.625L30.695 27.5H28.445ZM24.5 17L26.33 21.875H22.685L24.5 17Z" fill="white"/>
</svg>
