<svg width="127" height="40" viewBox="0 0 127 40" fill="none" xmlns="http://www.w3.org/2000/svg">
<path d="M43.138 28.8839C43.138 29.0164 43.1303 29.149 43.1147 29.281V34.4888H41.8073V32.4934C39.8086 34.8427 36.2844 35.1267 33.9352 33.1281C31.5859 31.1294 31.3019 27.6052 33.3006 25.256C35.2992 22.9067 38.8234 22.6227 41.1727 24.6214C42.423 25.6853 43.1419 27.2452 43.1386 28.8866M37.522 33.1691C39.894 33.168 41.8161 31.2442 41.815 28.8722C41.8139 26.5002 39.8901 24.5781 37.5181 24.5792C35.1461 24.5803 33.224 26.5041 33.2251 28.8761C33.2251 30.0161 33.6794 31.1089 34.486 31.9143C35.282 32.7331 36.3804 33.1874 37.522 33.1691Z" fill="white"/>
<path d="M50.4942 24.5753C49.3631 24.5536 48.273 24.9996 47.4814 25.8073C46.6627 26.6128 46.2 27.7122 46.1967 28.8605V34.4887H44.8887V28.8605C44.8931 27.3628 45.4961 25.9288 46.5645 24.8787C47.5963 23.8231 49.018 23.2406 50.4942 23.2672V24.5753Z" fill="white"/>
<path d="M54.4526 28.8717H54.406L59.8927 34.4766H58.258L52.9798 29.082V34.4883H51.6606V17.7556H52.9798V28.7086L58.3173 23.2568H59.9521L54.452 28.8717H54.4526Z" fill="white"/>
<path d="M64.3777 34.4532C61.3001 34.1248 59.069 31.3662 59.3919 28.288C59.7159 25.2093 62.4745 22.9766 65.5532 23.3005C67.0354 23.4564 68.3945 24.1964 69.3298 25.3569L69.7136 25.824L62.6492 32.4912C63.2062 32.8551 63.8436 33.0792 64.5059 33.1435C66.0613 33.3138 67.5868 32.6254 68.4877 31.3457L69.5622 32.0929C68.3085 33.6888 66.7753 34.4865 64.9619 34.4865C64.7666 34.4865 64.5719 34.4749 64.3777 34.4516M62.1245 25.6531C61.3184 26.3659 60.8098 27.3561 60.6999 28.4262C60.5701 29.5584 60.9019 30.695 61.6208 31.5792C61.6346 31.5931 61.6468 31.6086 61.6557 31.6258L67.903 25.7285C67.2163 25.0967 66.3442 24.704 65.4162 24.608C65.2653 24.5847 65.1133 24.5731 64.9608 24.5731C63.9118 24.5597 62.8966 24.9458 62.1217 25.6531" fill="white"/>
<path d="M71.5708 29.164C71.5752 30.238 72.0079 31.2653 72.7729 32.0187C73.5162 32.7747 74.5386 33.1913 75.5986 33.1697V34.4894C74.1935 34.5166 72.84 33.963 71.8559 32.9595C70.8397 31.9576 70.2661 30.5914 70.2622 29.1646V23.2673L70.2739 20.7683H71.593C71.5852 21.7102 71.5813 22.5357 71.5813 23.244H75.075V24.3768H71.5836C71.5836 25.2954 71.5819 26.1735 71.578 27.0101C71.5741 27.8466 71.5725 28.4912 71.5725 28.9427V29.1646H71.5714L71.5708 29.164Z" fill="white"/>
<path d="M82.3715 23.2673C85.4669 23.2646 87.9792 25.7714 87.982 28.8667C87.9848 31.9621 85.478 34.4744 82.3826 34.4772C80.7318 34.4788 79.1641 33.7527 78.0979 32.4918V40H76.7782V29.1174C76.7705 29.032 76.7666 28.9499 76.7666 28.8723C76.7699 25.778 79.2773 23.2707 82.3715 23.2673ZM82.3715 33.1691C84.743 33.1669 86.6634 31.2432 86.6612 28.8717C86.659 26.5003 84.7352 24.5798 82.3638 24.582C79.9956 24.5842 78.0763 26.5036 78.0741 28.8717C78.0741 28.9033 78.078 28.9349 78.0857 28.9655V29.0237H78.0974V29.199C78.1806 30.2846 78.671 31.2986 79.4692 32.0381C80.2492 32.7831 81.292 33.1902 82.371 33.1708" fill="#FB8500"/>
<path d="M90.4521 17.7322H89.144V34.4649H90.4521V17.7322Z" fill="white"/>
<path d="M103.423 28.8839C103.423 29.0164 103.415 29.149 103.399 29.281V34.4888H102.092V32.4934C100.093 34.8427 96.5691 35.1267 94.2198 33.1281C91.8706 31.1294 91.5866 27.6052 93.5852 25.256C95.5839 22.9067 99.1081 22.6227 101.457 24.6214C102.708 25.6853 103.427 27.2452 103.423 28.8866M97.8067 33.1719C100.179 33.1708 102.101 31.247 102.1 28.875C102.099 26.503 100.175 24.5809 97.8028 24.582C95.4308 24.5831 93.5087 26.5069 93.5098 28.8789C93.5098 30.0188 93.9641 31.1116 94.7707 31.9171C95.5667 32.7359 96.6651 33.1902 97.8067 33.1719Z" fill="white"/>
<path d="M110.372 34.4532C107.293 34.1232 105.065 31.359 105.395 28.2797C105.725 25.2004 108.489 22.9721 111.568 23.3022C113.047 23.4608 114.401 24.1997 115.335 25.3569L114.307 26.174C112.813 24.3379 110.118 24.0511 108.27 25.5316C106.423 27.0216 106.134 29.727 107.624 31.5742C107.625 31.5759 107.627 31.5781 107.628 31.5798C108.338 32.4707 109.379 33.0348 110.512 33.1446C112.064 33.3138 113.586 32.6249 114.482 31.3462L115.557 32.0934C114.311 33.6894 112.781 34.4871 110.968 34.4871C110.769 34.4871 110.57 34.4754 110.373 34.4521" fill="white"/>
<path d="M120.928 34.4532C117.85 34.1248 115.619 31.3662 115.942 28.288C116.266 25.2093 119.025 22.9766 122.104 23.3005C123.586 23.4564 124.945 24.1964 125.88 25.3569L126.264 25.824L119.2 32.4912C119.756 32.8551 120.394 33.0792 121.056 33.1435C122.612 33.3138 124.137 32.6254 125.038 31.3457L126.112 32.0929C124.859 33.6888 123.326 34.4865 121.512 34.4865C121.317 34.4865 121.122 34.4749 120.928 34.4516M118.675 25.6531C117.869 26.3659 117.36 27.3561 117.25 28.4262C117.12 29.5584 117.452 30.695 118.171 31.5792C118.185 31.5931 118.197 31.6086 118.206 31.6258L124.453 25.7285C123.767 25.0967 122.895 24.704 121.966 24.608C121.816 24.5847 121.664 24.5731 121.511 24.5731C120.462 24.5597 119.447 24.9458 118.672 25.6531" fill="white"/>
<path d="M21.8778 6.77872V14.8383H19.6644V6.77872C19.6644 4.25695 17.6202 2.21279 15.0985 2.21279C12.5767 2.21279 10.5325 4.25695 10.5325 6.77872V14.8383H8.32031V6.77872C8.32031 3.0349 11.3552 0 15.099 0C18.8429 0 21.8778 3.0349 21.8778 6.77872Z" fill="#FB8500"/>
<path d="M27.0417 8.61149L22.7775 11.7435L22.4924 11.957L21.2731 12.8518L20.988 13.0593L20.8227 13.1791L18.976 14.5398L15.4596 17.1237C15.1761 17.3312 14.79 17.3301 14.5077 17.1204L11.3424 14.749L9.49575 13.3633L8.60432 12.6965L8.31919 12.4807L7.10268 11.5676L6.81755 11.3541L3.15693 8.61205C2.27658 7.96247 1.03678 8.14941 0.387196 9.02976C0.135906 9.37036 0.000554723 9.78251 0 10.2058V32.7542C0 35.1273 1.92378 37.0516 4.29744 37.0516H25.8973C28.2704 37.0533 30.1958 35.13 30.1975 32.7569V10.2058C30.1975 9.11185 29.311 8.22485 28.2171 8.22485C27.7939 8.22485 27.3823 8.3602 27.0417 8.61149ZM26.7804 30.3611C26.7804 32.1972 25.2915 33.685 23.4559 33.685H6.74211C4.90653 33.685 3.4182 32.1978 3.41765 30.3622V15.9205C3.41765 15.0746 4.10329 14.3895 4.94924 14.3895C5.27653 14.3895 5.59549 14.4949 5.85899 14.689L8.69085 16.8092L8.91274 16.974L9.85299 17.6796L10.0749 17.8476L10.7622 18.3608L12.1917 19.4353L14.6419 21.2703C14.8599 21.4317 15.1578 21.4328 15.3775 21.2736L18.0984 19.2738L19.5252 18.2199L19.6544 18.1267L19.8735 17.968L20.8193 17.2741L21.0384 17.1093L24.3379 14.689C25.018 14.1865 25.9771 14.3301 26.4797 15.0102C26.6744 15.2737 26.7793 15.5927 26.7793 15.92V30.3617L26.7804 30.3611Z" fill="white"/>
<path d="M35.5866 14.7739H35.3458C34.7234 14.7845 34.1243 14.5393 33.6883 14.0955C33.2407 13.6534 32.9871 13.0515 32.9844 12.4224V10.0715L32.9899 8.83838H33.9979L33.9962 9.08135C33.994 9.35871 33.9923 9.60334 33.9918 9.82246H35.3791V10.7544H33.9912C33.9912 11.0256 33.9912 11.2964 33.989 11.5604C33.989 11.8916 33.9868 12.1495 33.9868 12.3276V12.4125C33.9868 12.7764 34.1338 13.1247 34.3939 13.3799C34.6441 13.6356 34.9897 13.776 35.3475 13.7671H35.5882L35.5866 14.7745V14.7739ZM33.4653 12.4136C33.4653 12.9178 33.6678 13.4015 34.0278 13.7543C34.314 14.05 34.6951 14.2353 35.1045 14.2791V14.2358C34.7051 14.1903 34.334 14.009 34.0522 13.7227C33.7039 13.3799 33.5064 12.9123 33.503 12.4236V12.3287C33.503 12.1501 33.503 11.891 33.5053 11.5615C33.5053 11.2187 33.5075 10.867 33.5075 10.5159V10.0638C33.5075 9.84631 33.5075 9.60334 33.5103 9.32099H33.4686L33.4653 10.0921V12.4141V12.4136Z" fill="white"/>
<path d="M38.5433 9.832C39.9101 9.82867 41.0212 10.9342 41.0246 12.3011C41.0279 13.6679 39.9223 14.779 38.5555 14.7824C37.1887 14.7857 36.0776 13.6801 36.0742 12.3133C36.0726 11.6548 36.3333 11.0224 36.7993 10.5565C37.2569 10.0861 37.8871 9.82423 38.5433 9.83144V9.832ZM38.5433 14.2925C39.645 14.2964 40.542 13.4066 40.5459 12.3044C40.5497 11.2027 39.66 10.3057 38.5577 10.3019C37.456 10.298 36.5591 11.1877 36.5552 12.29C36.5535 12.822 36.7637 13.3323 37.1398 13.7084C37.506 14.0895 38.0146 14.3009 38.5427 14.2925H38.5433ZM38.5433 10.3568C39.6195 10.3568 40.4915 11.2294 40.4915 12.3055C40.4915 13.3817 39.6189 14.2537 38.5427 14.2537C37.4666 14.2537 36.5946 13.3811 36.5946 12.305C36.5946 11.7874 36.8004 11.2915 37.1665 10.9265C37.5276 10.5559 38.0257 10.3501 38.5433 10.3573V10.3568ZM38.5433 13.7683C39.3532 13.7683 40.01 13.1115 40.01 12.3016C40.01 11.4917 39.3532 10.8349 38.5433 10.8349C37.7334 10.8349 37.0766 11.4917 37.0766 12.3016C37.0766 12.691 37.2314 13.0644 37.5071 13.3395C37.7778 13.6202 38.1533 13.7755 38.5433 13.7683Z" fill="white"/>
<path d="M44.0379 9.83189H44.2786V10.8332H44.0379C43.6518 10.8243 43.2795 10.9763 43.0105 11.2531C42.7293 11.5288 42.5706 11.9055 42.5706 12.2993V14.7739H41.5693V12.2899C41.5727 11.6325 41.8378 11.004 42.306 10.5425C42.7614 10.0782 43.3877 9.82135 44.0379 9.83134V9.83189ZM43.7971 10.365V10.3267C43.3594 10.3711 42.9517 10.5686 42.646 10.8848C42.4602 11.0673 42.3121 11.2842 42.21 11.5238C42.1091 11.7701 42.0553 12.0336 42.0508 12.2999V14.293H42.0891V12.2899C42.0919 11.7712 42.301 11.2758 42.6705 10.9114C42.9711 10.6041 43.3694 10.411 43.7971 10.3644V10.365Z" fill="white"/>
<path d="M47.3006 9.83189H47.5413V10.8332H47.3006C46.9145 10.8243 46.5422 10.9763 46.2732 11.2531C45.992 11.5288 45.8333 11.9055 45.8333 12.2993V14.7739H44.832V12.2899C44.8354 11.6325 45.1005 11.004 45.5687 10.5425C46.0241 10.0782 46.6504 9.82135 47.3006 9.83134V9.83189ZM47.0598 10.365V10.3267C46.6221 10.3711 46.2144 10.5686 45.9088 10.8848C45.7229 11.0673 45.5748 11.2842 45.4727 11.5238C45.3718 11.7701 45.318 12.0336 45.3135 12.2999V14.293H45.3518V12.2899C45.3546 11.7712 45.5637 11.2758 45.9332 10.9114C46.2338 10.6041 46.6321 10.411 47.0598 10.3644V10.365Z" fill="white"/>
<path d="M47.562 9.83185H48.6881L50.476 13.3094L51.3452 11.6136H51.3519L52.2727 9.8313H53.3994L51.0329 14.4327C51.0207 14.4571 51.0068 14.4804 50.9908 14.5032L49.772 16.8757L48.875 16.4209L49.9113 14.4117L47.562 9.8313V9.83185ZM48.3941 10.3139H48.3508L50.3501 14.2108C50.3562 14.2219 50.3634 14.2325 50.3717 14.2419L50.4765 14.3634L48.3941 10.3139ZM52.6067 10.3139H52.5634L51.6426 12.0962H51.6381L50.4749 14.3645L49.523 16.2106L49.5574 16.2284L50.5769 14.2441L50.5914 14.2258C50.5914 14.2258 50.5952 14.2203 50.5969 14.2175V14.2142L52.6067 10.3139Z" fill="white"/>
<path d="M33.7444 12.4164C33.746 12.843 33.918 13.2518 34.222 13.5513C34.5177 13.852 34.9237 14.0173 35.3453 14.0084V14.5332C34.7867 14.5437 34.2486 14.3241 33.8576 13.9252C33.4537 13.5269 33.2257 12.9839 33.2246 12.4164V10.0721L33.229 9.07861H33.7538L33.7516 9.35931C33.7499 9.5468 33.7494 9.78089 33.7494 10.0627H35.1373V10.5126H33.7494C33.7494 10.8776 33.7488 11.2265 33.7472 11.5593C33.7455 11.8922 33.7449 12.1479 33.7449 12.3265V12.4147L33.7444 12.4164ZM38.4767 14.5327C37.8843 14.541 37.3151 14.3041 36.9035 13.8781C36.477 13.4648 36.2401 12.894 36.249 12.3004C36.2406 11.708 36.4775 11.1389 36.9035 10.7272C37.3151 10.3012 37.8843 10.0644 38.4767 10.0727C39.0703 10.0638 39.6416 10.3001 40.0544 10.7267C40.4804 11.1383 40.7173 11.7074 40.7089 12.2999C40.7184 12.894 40.4809 13.4654 40.0544 13.8786C39.6411 14.3052 39.0703 14.5421 38.4767 14.5332V14.5327ZM38.4767 10.5969C38.023 10.5902 37.5864 10.7705 37.2702 11.0956C36.9435 11.4101 36.7615 11.8467 36.7687 12.3004C36.761 12.7553 36.9424 13.193 37.2697 13.5092C37.5864 13.8343 38.0224 14.0145 38.4762 14.0079C38.9305 14.0157 39.3682 13.8354 39.6855 13.5092C40.0116 13.1924 40.1919 12.7548 40.1842 12.2999C40.1914 11.8467 40.0105 11.4107 39.6855 11.0956C39.3687 10.7694 38.9316 10.5891 38.4767 10.5963V10.5969ZM43.9635 10.0721V10.5919C43.5142 10.5836 43.0809 10.7605 42.7659 11.0817C42.4402 11.4018 42.2566 11.8389 42.255 12.2955V14.5327H41.7341V12.2955C41.7357 11.6997 41.9754 11.1294 42.4003 10.7117C42.8108 10.2929 43.3755 10.0616 43.9618 10.0727H43.9635V10.0721ZM47.2164 10.0721V10.5919C46.7671 10.5836 46.3338 10.7605 46.0188 11.0817C45.6931 11.4018 45.5095 11.8389 45.5079 12.2955V14.5327H44.987V12.2955C44.9886 11.6997 45.2283 11.1294 45.6532 10.7117C46.0637 10.2929 46.6284 10.0616 47.2147 10.0727H47.2164V10.0721ZM52.8596 10.0721L50.6723 14.3241C50.6635 14.3424 50.6524 14.359 50.6396 14.3751L49.5213 16.5518L49.057 16.315L50.0455 14.3967C50.0261 14.3734 50.0089 14.349 49.9945 14.3224L47.8122 10.0732H48.3968L50.3323 13.8376L51.3485 11.8556H51.353L52.2738 10.0732H52.8585L52.8596 10.0721Z" fill="white"/>
<path d="M60.3733 12.1834V14.5321H59.8536V12.1834C59.8508 11.7574 59.6788 11.3497 59.3754 11.0507C59.0819 10.7494 58.6776 10.5825 58.2571 10.5902C57.8616 10.583 57.4788 10.7295 57.1898 10.9991C56.8958 11.2653 56.7094 11.6303 56.665 12.0248V14.531H56.1447V12.1906H56.1353C56.1353 12.1318 56.138 12.0725 56.1447 12.0142V7.88208H56.6645V10.7922C57.0611 10.3267 57.6452 10.0627 58.2565 10.0732C58.8135 10.0633 59.3499 10.2829 59.7393 10.6812C60.142 11.0773 60.37 11.6181 60.3728 12.1834H60.3733ZM66.0903 12.3043C66.0903 12.357 66.087 12.4097 66.0809 12.4619V14.5338H65.5617V13.74C65.1462 14.2525 64.5177 14.5449 63.8581 14.5338C63.2657 14.5421 62.6965 14.3052 62.2849 13.8792C61.8589 13.4676 61.622 12.8984 61.6303 12.306C61.6204 11.7113 61.8572 11.1389 62.2844 10.725C62.696 10.299 63.2651 10.0621 63.8576 10.0705C64.4517 10.061 65.023 10.2985 65.4363 10.725C65.8634 11.1383 66.1003 11.7102 66.0909 12.3049H66.0903V12.3043ZM63.8576 14.0079C64.3119 14.0157 64.7496 13.8354 65.0669 13.5092C65.3925 13.1936 65.5728 12.7581 65.5656 12.3049C65.5733 11.8506 65.393 11.4129 65.0669 11.0956C64.7501 10.7694 64.3124 10.5891 63.8576 10.5969C63.4038 10.5902 62.9672 10.7705 62.651 11.0956C62.3237 11.4118 62.1424 11.8495 62.1501 12.3049C62.1429 12.7587 62.3249 13.1947 62.651 13.5092C62.9678 13.8348 63.4043 14.0157 63.8587 14.009H63.8581L63.8576 14.0079ZM69.5757 10.0732V10.593C69.1263 10.5847 68.6931 10.7616 68.378 11.0828C68.0524 11.4029 67.8688 11.84 67.8671 12.2966V14.5338H67.3473V12.2966C67.349 11.7013 67.5886 11.1311 68.0135 10.7139C68.4235 10.2946 68.9888 10.0627 69.5751 10.0738L69.5757 10.0732ZM72.8286 10.0732V10.593C72.3792 10.5847 71.946 10.7616 71.6309 11.0828C71.3053 11.4029 71.1217 11.84 71.12 12.2966V14.5338H70.6002V12.2966C70.6019 11.7013 70.8415 11.1311 71.2664 10.7139C71.6764 10.2946 72.2417 10.0627 72.828 10.0738L72.8286 10.0732ZM73.9508 14.5338V10.0682H74.4705V14.5332H73.9508V14.5338ZM74.2104 9.43308C74.1155 9.43475 74.024 9.39703 73.9574 9.3288C73.8892 9.26223 73.8515 9.17125 73.8531 9.07584C73.8515 8.98098 73.8892 8.88946 73.9574 8.82289C74.024 8.75466 74.1149 8.71694 74.2104 8.7186C74.3052 8.71694 74.3968 8.75466 74.4633 8.82289C74.5315 8.88946 74.5693 8.98043 74.5676 9.07584C74.5693 9.1707 74.5315 9.26223 74.4633 9.3288C74.3968 9.39647 74.3058 9.43419 74.2109 9.43253L74.2104 9.43308ZM78.5866 13.3544C78.5954 13.5009 78.5749 13.6479 78.5261 13.786C78.4734 13.9241 78.3908 14.0495 78.2848 14.1527C78.1833 14.2481 78.0668 14.3257 77.9392 14.3829C77.7035 14.4855 77.4488 14.5365 77.192 14.5315C76.9402 14.5315 76.69 14.4855 76.4542 14.3967C76.2523 14.3202 76.0704 14.1998 75.9206 14.0439L76.2662 13.6495C76.3699 13.766 76.5003 13.8553 76.6467 13.9091C76.9929 14.0451 77.3773 14.0451 77.7234 13.9091C77.8654 13.8537 77.9797 13.7427 78.0391 13.6024C78.0646 13.5325 78.074 13.4582 78.0668 13.3838C78.0635 13.3156 78.0424 13.2496 78.0063 13.1919C77.9032 13.0471 77.7684 12.9284 77.6119 12.8441C77.4511 12.7481 77.2791 12.6566 77.0966 12.57C77.0816 12.5612 77.0661 12.5534 77.05 12.5467C77.0433 12.5406 77.0356 12.5357 77.0267 12.5329C76.8381 12.4402 76.6462 12.3332 76.4509 12.2122C76.3449 12.1446 76.2456 12.068 76.1541 11.982C76.0526 11.8844 75.9694 11.7701 75.9084 11.6431C75.8751 11.5738 75.8518 11.5005 75.839 11.4245C75.8329 11.3846 75.8285 11.3458 75.8252 11.3092V11.2071C75.8285 11.0629 75.8601 10.9214 75.9178 10.7894C76.0398 10.5331 76.2512 10.3306 76.5119 10.2186C76.7449 10.1121 76.9984 10.0583 77.2541 10.061C77.5082 10.0583 77.7606 10.1054 77.9963 10.2003C78.1805 10.2746 78.3475 10.385 78.4884 10.5253L78.0751 10.8504C77.9914 10.7805 77.8976 10.7245 77.7966 10.6834C77.4544 10.5442 77.0705 10.5459 76.7294 10.6879C76.5824 10.7489 76.462 10.8609 76.3904 11.0035C76.3616 11.0728 76.3461 11.1466 76.3438 11.2221V11.2825C76.3438 11.2997 76.3455 11.3169 76.3483 11.3336C76.3549 11.3657 76.366 11.3968 76.381 11.4262C76.4648 11.5749 76.5885 11.6975 76.7382 11.779C76.9135 11.8916 77.0966 11.9926 77.2858 12.0808L77.3506 12.1191C77.5271 12.2028 77.7051 12.2971 77.8843 12.402C78.1095 12.5329 78.3031 12.7121 78.4507 12.9267C78.5306 13.0554 78.5771 13.2019 78.5855 13.3533L78.5866 13.3544Z" fill="white"/>
<path d="M55.9049 7.64087H56.9062V10.2497C57.8404 9.60459 59.1007 9.71332 59.9106 10.5088C60.3577 10.9492 60.6112 11.5495 60.6151 12.1768V14.7724H59.6133V12.1863C59.6116 11.8229 59.4651 11.4751 59.2055 11.2211C58.6963 10.7196 57.8847 10.7007 57.3522 11.1772C57.1037 11.4019 56.945 11.7087 56.9062 12.0415V14.773H55.9049V12.4326H55.8955V12.1918C55.8955 12.1286 55.8983 12.0653 55.9049 12.0027V7.64087ZM56.4247 8.12293H56.3864V14.2926H56.4247V12.0115L56.4264 11.996C56.478 11.545 56.6915 11.1284 57.0271 10.8233C57.7499 10.1726 58.855 10.1981 59.5467 10.8816C59.8934 11.2244 60.0909 11.6904 60.0953 12.178V14.292H60.1336V12.1879C60.1336 11.6848 59.9306 11.2033 59.5711 10.8516C59.2272 10.4977 58.7512 10.3035 58.2581 10.3146C57.715 10.3035 57.1958 10.5382 56.8457 10.9537L56.4236 11.4258V8.12348L56.4247 8.12293Z" fill="white"/>
<path d="M66.3335 14.7741H65.3317V14.2987C64.2273 15.1036 62.6801 14.8606 61.8752 13.7567C61.5674 13.3346 61.4015 12.8259 61.4004 12.3033C61.4004 10.9387 62.5065 9.83203 63.8717 9.83203C65.2369 9.83203 66.343 10.9382 66.343 12.3033C66.343 12.3605 66.3402 12.4176 66.3335 12.4747V14.7741ZM65.8138 14.292H65.852V12.4359C65.857 12.3932 65.8598 12.3499 65.8598 12.3067C65.867 11.2028 64.9784 10.3024 63.8745 10.2952C62.7706 10.288 61.8702 11.1767 61.8625 12.2806C61.8553 13.3845 62.7439 14.2848 63.8478 14.2926C64.4414 14.2964 65.0066 14.0363 65.3888 13.582L65.8127 13.0849V14.292H65.8138ZM63.8695 14.2493C62.7955 14.246 61.9274 13.3728 61.9307 12.2989C61.934 11.2249 62.8072 10.3568 63.8811 10.3601C64.9551 10.3635 65.8232 11.2366 65.8199 12.3105C65.8182 12.8242 65.6135 13.3163 65.2507 13.679C64.8879 14.0507 64.3881 14.2571 63.8689 14.2487L63.8695 14.2493ZM63.8695 10.8377C63.0618 10.8405 62.4089 11.4973 62.4117 12.305C62.4144 13.1127 63.0712 13.7656 63.8789 13.7628C64.6866 13.76 65.3395 13.1032 65.3367 12.2956C65.3356 11.9089 65.1814 11.5389 64.9079 11.266C64.6361 10.9848 64.2594 10.83 63.8689 10.8377H63.8695Z" fill="white"/>
<path d="M69.596 9.83213H69.8367V10.8334H69.596C69.2099 10.8245 68.8377 10.9765 68.5686 11.2533C68.2874 11.529 68.1287 11.9057 68.1287 12.2996V14.7742H67.1274V12.2901C67.1308 11.6328 67.3959 11.0043 67.8641 10.5427C68.3195 10.0784 68.9458 9.82159 69.596 9.83158V9.83213Z" fill="white"/>
<path d="M72.8582 9.83213H73.0989V10.8334H72.8582C72.4721 10.8245 72.0999 10.9765 71.8308 11.2533C71.5496 11.529 71.3909 11.9057 71.3909 12.2996V14.7742H70.3896V12.2901C70.393 11.6328 70.6581 11.0043 71.1263 10.5427C71.5818 10.0784 72.208 9.82159 72.8582 9.83158V9.83213ZM72.6174 10.3652V10.327C72.1797 10.3713 71.772 10.5688 71.4664 10.885C71.2805 11.0675 71.1324 11.2844 71.0304 11.524C70.9294 11.7703 70.8756 12.0338 70.8712 12.3001V14.2932H70.9094V12.2901C70.9122 11.7715 71.1213 11.2761 71.4908 10.9116C71.7914 10.6043 72.1897 10.4113 72.6174 10.3647V10.3652Z" fill="white"/>
<path d="M74.2497 8.47681C74.5798 8.47681 74.8471 8.74418 74.8477 9.07369C74.8477 9.40375 74.5803 9.67113 74.2508 9.67168C73.9208 9.67168 73.6534 9.40431 73.6528 9.0748C73.6528 8.91615 73.7155 8.76416 73.8276 8.6521C73.9391 8.53894 74.0911 8.47625 74.2497 8.47736V8.47681ZM74.2497 9.19185C74.3135 9.19129 74.3645 9.13914 74.364 9.0759C74.3634 9.01211 74.3113 8.96108 74.248 8.96163C74.1843 8.96219 74.1332 9.01433 74.1338 9.07757C74.1338 9.10752 74.146 9.13637 74.1671 9.15745C74.1881 9.18075 74.2187 9.19351 74.2497 9.19185ZM73.7488 9.82756H74.7506V14.774H73.7488V9.82756ZM74.2686 10.3096H74.2303V14.2931H74.2686V10.3096Z" fill="white"/>
<path d="M77.284 14.7745H77.2396C76.96 14.774 76.6826 14.7229 76.4203 14.6247C76.1856 14.5354 75.9737 14.3956 75.7995 14.2148L75.6431 14.0561L76.316 13.284L76.4974 13.4953C76.575 13.5813 76.6721 13.6473 76.7808 13.6872C76.9278 13.7427 77.0837 13.7721 77.2412 13.7738C77.3899 13.7738 77.5369 13.7449 77.6756 13.6911C77.7571 13.6606 77.8237 13.5996 77.8609 13.5203C77.8736 13.4831 77.8781 13.4437 77.8736 13.4049V13.3988C77.8714 13.3722 77.8636 13.3467 77.8492 13.3245C77.766 13.213 77.6595 13.1214 77.5375 13.056C77.3838 12.9644 77.2168 12.8757 77.0421 12.793L77.0316 12.788L77.0216 12.7825C77.0177 12.7803 77.0133 12.7781 77.0088 12.7758L76.9644 12.7581L76.9522 12.7464C76.7636 12.6532 76.5684 12.5445 76.3731 12.4236H76.3703C76.2516 12.3476 76.1407 12.2605 76.0381 12.164C75.9155 12.0469 75.8151 11.9094 75.7413 11.7568V11.7535C75.698 11.6642 75.6675 11.5688 75.6509 11.4706V11.4661C75.6436 11.4195 75.6381 11.3746 75.6348 11.3313V11.2071C75.6386 11.0318 75.6769 10.8593 75.7474 10.699L75.7507 10.6917L75.754 10.6851C75.9016 10.3794 76.1545 10.137 76.4663 10.0028C76.7231 9.88629 77.0022 9.82526 77.2845 9.82471H77.3289C77.6057 9.82471 77.8797 9.87852 78.1371 9.98114C78.3507 10.0671 78.5454 10.1953 78.709 10.3578L78.9049 10.5497L78.1216 11.1655L77.9718 11.0384C77.908 10.9857 77.8365 10.9425 77.7599 10.9114C77.6179 10.8559 77.4665 10.8265 77.3139 10.8249C77.1641 10.8254 77.016 10.8554 76.8773 10.9125C76.7853 10.9502 76.7093 11.0185 76.6621 11.1061C76.6466 11.1455 76.6383 11.1877 76.6366 11.2298V11.2853C76.6366 11.2853 76.6366 11.2886 76.6366 11.2903C76.6388 11.3008 76.6427 11.3114 76.6482 11.3214V11.3236C76.7131 11.4306 76.8058 11.5183 76.9167 11.5765L76.9223 11.5799C77.0887 11.6869 77.2618 11.7823 77.4409 11.8655L77.4498 11.87L77.4581 11.8744L77.4914 11.8938L77.5153 11.9071C77.6917 11.9909 77.8742 12.088 78.0567 12.1945C78.3119 12.3426 78.531 12.5451 78.6991 12.7875L78.704 12.7941L78.7085 12.8014C78.8094 12.9633 78.8677 13.1481 78.8788 13.3383C78.8893 13.5164 78.8644 13.6945 78.8061 13.8625L78.8022 13.8725C78.7368 14.0428 78.6353 14.1965 78.5043 14.3241L78.5016 14.3268C78.3812 14.4411 78.2431 14.5343 78.0916 14.6031L78.0872 14.6048C77.8337 14.7152 77.5597 14.7734 77.2828 14.7745H77.284ZM76.5889 14.1726C76.7975 14.2508 77.0182 14.2913 77.2412 14.2919H77.2828C77.4925 14.2902 77.7 14.2464 77.8919 14.1632C77.9929 14.1172 78.0855 14.0545 78.1665 13.9785C78.2458 13.9008 78.308 13.8065 78.3479 13.7028C78.3851 13.5957 78.4012 13.4826 78.3945 13.3699C78.389 13.2612 78.3562 13.1558 78.2997 13.0632C78.1732 12.8807 78.009 12.7281 77.8176 12.6155L77.8126 12.6127C77.6379 12.5107 77.4648 12.4186 77.2973 12.3398L77.2889 12.3359L77.2806 12.3315L77.2479 12.3126L77.2235 12.2988C77.0282 12.2078 76.8396 12.1035 76.6582 11.987C76.4702 11.8822 76.316 11.7263 76.2133 11.5371C76.1889 11.4883 76.1712 11.4367 76.1606 11.3835C76.1545 11.3513 76.1512 11.3186 76.1512 11.2859V11.216C76.154 11.1117 76.1767 11.0085 76.2167 10.912L76.2206 10.9031C76.316 10.7095 76.4774 10.5569 76.676 10.4721L76.6854 10.4676C76.8834 10.385 77.0953 10.3423 77.3095 10.3417C77.5219 10.3434 77.7322 10.3833 77.9302 10.4604L77.9363 10.4626C77.9979 10.4882 78.0578 10.5181 78.1149 10.552L78.1488 10.5253C78.0877 10.4865 78.024 10.4532 77.9568 10.4266C77.7494 10.3434 77.528 10.3018 77.3045 10.304H77.2989C77.0776 10.3023 76.859 10.3489 76.6577 10.4405L76.6527 10.4427C76.4469 10.5314 76.2799 10.6917 76.1828 10.8942C76.1396 10.9946 76.1157 11.1022 76.1129 11.2121V11.3014C76.1152 11.3291 76.119 11.358 76.1235 11.389C76.1323 11.4412 76.149 11.4922 76.1717 11.5399C76.22 11.6403 76.286 11.7313 76.3659 11.8084C76.4463 11.8844 76.5334 11.9526 76.6266 12.0125C76.8113 12.1279 76.9949 12.2289 77.1713 12.316C77.188 12.3232 77.2041 12.3315 77.2191 12.3415C77.2318 12.3476 77.2446 12.3537 77.2573 12.3609C77.4421 12.4486 77.6185 12.5429 77.7827 12.6405C77.9701 12.7431 78.1321 12.8879 78.2558 13.0626L78.2614 13.0715C78.3169 13.1619 78.349 13.2645 78.3551 13.3705C78.364 13.4787 78.3496 13.5874 78.3119 13.6895C78.2303 13.8892 78.0717 14.0473 77.872 14.1288L77.8653 14.1321L77.8586 14.1349C77.6623 14.2131 77.4526 14.2536 77.2412 14.2536C77.026 14.2525 76.8124 14.2137 76.6111 14.1382H76.6061C76.5107 14.1011 76.4197 14.0534 76.3354 13.9951L76.3093 14.0251C76.3953 14.0867 76.4885 14.136 76.5872 14.1726H76.5889Z" fill="white"/>
</svg>
