<svg width="127" height="40" viewBox="0 0 127 40" fill="none" xmlns="http://www.w3.org/2000/svg">
<path d="M43.138 28.8839C43.138 29.0165 43.1303 29.1491 43.1147 29.2811V34.4888H41.8073V32.4935C39.8086 34.8427 36.2844 35.1268 33.9352 33.1281C31.5859 31.1294 31.3019 27.6053 33.3006 25.256C35.2992 22.9068 38.8234 22.6227 41.1727 24.6214C42.423 25.6854 43.1419 27.2452 43.1386 28.8867M37.522 33.1691C39.894 33.168 41.8161 31.2442 41.815 28.8722C41.8139 26.5002 39.8901 24.5781 37.5181 24.5792C35.1461 24.5804 33.224 26.5041 33.2251 28.8761C33.2251 30.0161 33.6794 31.1089 34.486 31.9144C35.282 32.7331 36.3804 33.1874 37.522 33.1691Z" fill="black"/>
<path d="M50.4943 24.5754C49.3632 24.5537 48.2732 24.9997 47.4816 25.8074C46.6628 26.6129 46.2002 27.7123 46.1968 28.8606V34.4888H44.8888V28.8606C44.8932 27.3628 45.4962 25.9289 46.5646 24.8788C47.5964 23.8232 49.0182 23.2407 50.4943 23.2673V24.5754Z" fill="black"/>
<path d="M54.4528 28.8717H54.4062L59.893 34.4766H58.2582L52.98 29.0819V34.4883H51.6609V17.7556H52.98V28.7086L58.3176 23.2568H59.9523L54.4523 28.8717H54.4528Z" fill="black"/>
<path d="M64.3779 34.4533C61.3003 34.1249 59.0692 31.3663 59.392 28.2881C59.716 25.2094 62.4746 22.9767 65.5533 23.3006C67.0356 23.4565 68.3946 24.1965 69.3299 25.357L69.7138 25.8241L62.6494 32.4913C63.2063 32.8552 63.8437 33.0793 64.506 33.1436C66.0615 33.3139 67.587 32.6255 68.4878 31.3458L69.5623 32.093C68.3086 33.6889 66.7754 34.4866 64.962 34.4866C64.7667 34.4866 64.572 34.475 64.3779 34.4517M62.1246 25.6532C61.3186 26.366 60.8099 27.3562 60.7001 28.4263C60.5703 29.5585 60.902 30.6951 61.6209 31.5793C61.6348 31.5932 61.647 31.6087 61.6558 31.6259L67.9031 25.7286C67.2164 25.0968 66.3444 24.7041 65.4163 24.6081C65.2654 24.5848 65.1134 24.5731 64.9609 24.5731C63.9119 24.5598 62.8968 24.9459 62.1218 25.6532" fill="black"/>
<path d="M71.5709 29.164C71.5754 30.238 72.008 31.2653 72.773 32.0186C73.5163 32.7747 74.5387 33.1913 75.5988 33.1697V34.4894C74.1937 34.5165 72.8401 33.9629 71.856 32.9594C70.8398 31.9576 70.2662 30.5913 70.2623 29.1646V23.2673L70.274 20.7683H71.5931C71.5853 21.7102 71.5815 22.5356 71.5815 23.244H75.0751V24.3768H71.5837C71.5837 25.2954 71.582 26.1735 71.5781 27.01C71.5742 27.8466 71.5726 28.4911 71.5726 28.9427V29.1646H71.5715L71.5709 29.164Z" fill="black"/>
<path d="M82.3714 23.2673C85.4668 23.2646 87.9791 25.7714 87.9819 28.8667C87.9846 31.9621 85.4779 34.4744 82.3825 34.4772C80.7316 34.4788 79.164 33.7527 78.0978 32.4918V40H76.7781V29.1174C76.7704 29.032 76.7665 28.9499 76.7665 28.8723C76.7698 25.778 79.2772 23.2707 82.3714 23.2673ZM82.3714 33.1691C84.7428 33.1669 86.6633 31.2432 86.6611 28.8717C86.6589 26.5003 84.7351 24.5798 82.3636 24.582C79.9955 24.5842 78.0762 26.5036 78.074 28.8717C78.074 28.9033 78.0778 28.9349 78.0856 28.9655V29.0237H78.0973V29.199C78.1805 30.2846 78.6708 31.2986 79.4691 32.0381C80.249 32.7831 81.2919 33.1902 82.3708 33.1708" fill="#FB8500"/>
<path d="M90.4521 17.7323H89.144V34.465H90.4521V17.7323Z" fill="black"/>
<path d="M103.423 28.8839C103.423 29.0165 103.415 29.1491 103.399 29.2811V34.4888H102.092V32.4935C100.093 34.8427 96.569 35.1268 94.2197 33.1281C91.8705 31.1294 91.5864 27.6053 93.5851 25.256C95.5838 22.9068 99.1079 22.6227 101.457 24.6214C102.708 25.6854 103.426 27.2452 103.423 28.8867M97.8066 33.1719C100.179 33.1708 102.101 31.247 102.1 28.875C102.098 26.503 100.175 24.5809 97.8027 24.582C95.4307 24.5831 93.5086 26.5069 93.5097 28.8789C93.5097 30.0189 93.964 31.1117 94.7706 31.9171C95.5666 32.7359 96.6649 33.1902 97.8066 33.1719Z" fill="black"/>
<path d="M110.372 34.4533C107.293 34.1233 105.065 31.3591 105.395 28.2798C105.725 25.2005 108.489 22.9722 111.568 23.3023C113.047 23.4609 114.401 24.1998 115.335 25.357L114.307 26.1741C112.813 24.3379 110.118 24.0512 108.27 25.5317C106.423 27.0217 106.134 29.7271 107.624 31.5743C107.625 31.576 107.627 31.5782 107.628 31.5799C108.338 32.4707 109.379 33.0349 110.512 33.1447C112.064 33.3139 113.586 32.625 114.482 31.3463L115.557 32.0935C114.311 33.6895 112.781 34.4872 110.968 34.4872C110.769 34.4872 110.57 34.4755 110.373 34.4522" fill="black"/>
<path d="M120.928 34.4533C117.85 34.1249 115.619 31.3663 115.942 28.2881C116.266 25.2094 119.025 22.9767 122.104 23.3006C123.586 23.4565 124.945 24.1965 125.88 25.357L126.264 25.8241L119.2 32.4913C119.756 32.8552 120.394 33.0793 121.056 33.1436C122.612 33.3139 124.137 32.6255 125.038 31.3458L126.112 32.093C124.859 33.6889 123.326 34.4866 121.512 34.4866C121.317 34.4866 121.122 34.475 120.928 34.4517M118.675 25.6532C117.869 26.366 117.36 27.3562 117.25 28.4263C117.12 29.5585 117.452 30.6951 118.171 31.5793C118.185 31.5932 118.197 31.6087 118.206 31.6259L124.453 25.7286C123.767 25.0968 122.895 24.7041 121.966 24.6081C121.816 24.5848 121.664 24.5731 121.511 24.5731C120.462 24.5598 119.447 24.9459 118.672 25.6532" fill="black"/>
<path d="M21.8778 6.77872V14.8383H19.6644V6.77872C19.6644 4.25695 17.6202 2.21279 15.0985 2.21279C12.5767 2.21279 10.5325 4.25695 10.5325 6.77872V14.8383H8.32031V6.77872C8.32031 3.0349 11.3552 0 15.099 0C18.8429 0 21.8778 3.0349 21.8778 6.77872Z" fill="#FB8500"/>
<path d="M27.0417 8.61152L22.7775 11.7435L22.4924 11.9571L21.2731 12.8518L20.988 13.0593L20.8227 13.1791L18.976 14.5399L15.4596 17.1238C15.1761 17.3312 14.79 17.3301 14.5077 17.1204L11.3424 14.749L9.49575 13.3633L8.60432 12.6965L8.31919 12.4807L7.10268 11.5676L6.81755 11.3541L3.15693 8.61208C2.27658 7.9625 1.03678 8.14944 0.387196 9.02979C0.135906 9.37039 0.000554723 9.78255 0 10.2058V32.7542C0 35.1273 1.92378 37.0516 4.29744 37.0516H25.8973C28.2704 37.0533 30.1958 35.1301 30.1975 32.757V10.2058C30.1975 9.11188 29.311 8.22488 28.2171 8.22488C27.7939 8.22488 27.3823 8.36023 27.0417 8.61152ZM26.7804 30.3611C26.7804 32.1973 25.2915 33.685 23.4559 33.685H6.74211C4.90653 33.685 3.4182 32.1978 3.41765 30.3622V15.9206C3.41765 15.0746 4.10329 14.3895 4.94924 14.3895C5.27653 14.3895 5.59549 14.4949 5.85899 14.6891L8.69085 16.8092L8.91274 16.974L9.853 17.6796L10.0749 17.8477L10.7622 18.3608L12.1917 19.4353L14.6419 21.2703C14.8599 21.4317 15.1578 21.4328 15.3775 21.2736L18.0984 19.2739L19.5252 18.2199L19.6544 18.1267L19.8735 17.968L20.8193 17.2741L21.0384 17.1093L24.3379 14.6891C25.018 14.1865 25.9771 14.3302 26.4797 15.0103C26.6744 15.2738 26.7793 15.5927 26.7793 15.92V30.3617L26.7804 30.3611Z" fill="black"/>
<path d="M35.5866 14.7739H35.3458C34.7234 14.7845 34.1243 14.5393 33.6883 14.0955C33.2407 13.6534 32.9871 13.0515 32.9844 12.4225V10.0716L32.9899 8.83841H33.9979L33.9962 9.08138C33.994 9.35874 33.9923 9.60337 33.9918 9.82249H35.3791V10.7544H33.9912C33.9912 11.0257 33.9912 11.2964 33.989 11.5604C33.989 11.8916 33.9868 12.1495 33.9868 12.3276V12.4125C33.9868 12.7764 34.1338 13.1248 34.3939 13.3799C34.6441 13.6357 34.9897 13.776 35.3475 13.7671H35.5882L35.5866 14.7745V14.7739ZM33.4653 12.4136C33.4653 12.9178 33.6678 13.4016 34.0278 13.7544C34.314 14.05 34.6951 14.2353 35.1045 14.2791V14.2359C34.7051 14.1904 34.334 14.009 34.0522 13.7227C33.7039 13.3799 33.5064 12.9123 33.503 12.4236V12.3287C33.503 12.1501 33.503 11.8911 33.5053 11.5615C33.5053 11.2187 33.5075 10.867 33.5075 10.5159V10.0638C33.5075 9.84634 33.5075 9.60337 33.5103 9.32102H33.4686L33.4653 10.0921V12.4142V12.4136Z" fill="black"/>
<path d="M38.5433 9.83194C39.9101 9.82861 41.0212 10.9342 41.0246 12.301C41.0279 13.6679 39.9223 14.779 38.5555 14.7823C37.1887 14.7856 36.0776 13.6801 36.0742 12.3132C36.0726 11.6548 36.3333 11.0224 36.7993 10.5564C37.2569 10.086 37.8871 9.82417 38.5433 9.83138V9.83194ZM38.5433 14.2925C39.645 14.2964 40.542 13.4066 40.5459 12.3043C40.5497 11.2027 39.66 10.3057 38.5577 10.3018C37.456 10.2979 36.5591 11.1877 36.5552 12.2899C36.5535 12.8219 36.7637 13.3322 37.1398 13.7083C37.506 14.0894 38.0146 14.3008 38.5427 14.2925H38.5433ZM38.5433 10.3567C39.6195 10.3567 40.4915 11.2293 40.4915 12.3055C40.4915 13.3816 39.6189 14.2536 38.5427 14.2536C37.4666 14.2536 36.5946 13.3811 36.5946 12.3049C36.5946 11.7873 36.8004 11.2914 37.1665 10.9264C37.5276 10.5559 38.0257 10.3501 38.5433 10.3573V10.3567ZM38.5433 13.7683C39.3532 13.7683 40.01 13.1115 40.01 12.3016C40.01 11.4917 39.3532 10.8349 38.5433 10.8349C37.7334 10.8349 37.0766 11.4917 37.0766 12.3016C37.0766 12.691 37.2314 13.0643 37.5071 13.3395C37.7778 13.6202 38.1533 13.7755 38.5433 13.7683Z" fill="black"/>
<path d="M44.0379 9.83195H44.2786V10.8332H44.0379C43.6518 10.8244 43.2795 10.9763 43.0105 11.2532C42.7293 11.5289 42.5706 11.9055 42.5706 12.2994V14.774H41.5693V12.2899C41.5727 11.6326 41.8378 11.0041 42.306 10.5426C42.7614 10.0783 43.3877 9.82141 44.0379 9.8314V9.83195ZM43.7971 10.365V10.3268C43.3594 10.3711 42.9517 10.5686 42.646 10.8848C42.4602 11.0673 42.3121 11.2842 42.21 11.5239C42.1091 11.7702 42.0553 12.0336 42.0508 12.2999V14.293H42.0891V12.2899C42.0919 11.7713 42.301 11.2759 42.6705 10.9114C42.9711 10.6041 43.3694 10.4111 43.7971 10.3645V10.365Z" fill="black"/>
<path d="M47.3007 9.83195H47.5414V10.8332H47.3007C46.9146 10.8244 46.5424 10.9763 46.2733 11.2532C45.9921 11.5289 45.8334 11.9055 45.8334 12.2994V14.774H44.8322V12.2899C44.8355 11.6326 45.1006 11.0041 45.5688 10.5426C46.0243 10.0783 46.6505 9.82141 47.3007 9.8314V9.83195ZM47.0599 10.365V10.3268C46.6222 10.3711 46.2145 10.5686 45.9089 10.8848C45.723 11.0673 45.5749 11.2842 45.4729 11.5239C45.3719 11.7702 45.3181 12.0336 45.3137 12.2999V14.293H45.3519V12.2899C45.3547 11.7713 45.5638 11.2759 45.9333 10.9114C46.2339 10.6041 46.6322 10.4111 47.0599 10.3645V10.365Z" fill="black"/>
<path d="M47.562 9.83195H48.6881L50.476 13.3095L51.3452 11.6137H51.3519L52.2727 9.83139H53.3994L51.0329 14.4328C51.0207 14.4572 51.0068 14.4805 50.9908 14.5033L49.772 16.8758L48.875 16.421L49.9113 14.4117L47.562 9.83139V9.83195ZM48.3941 10.314H48.3508L50.3501 14.2109C50.3562 14.222 50.3634 14.2326 50.3717 14.242L50.4765 14.3635L48.3941 10.314ZM52.6067 10.314H52.5634L51.6426 12.0963H51.6381L50.4749 14.3646L49.523 16.2107L49.5574 16.2285L50.5769 14.2442L50.5914 14.2259C50.5914 14.2259 50.5952 14.2204 50.5969 14.2176V14.2143L52.6067 10.314Z" fill="black"/>
<path d="M33.7444 12.4164C33.746 12.843 33.918 13.2518 34.222 13.5513C34.5177 13.852 34.9237 14.0173 35.3453 14.0084V14.5332C34.7867 14.5437 34.2486 14.3241 33.8576 13.9252C33.4537 13.5269 33.2257 12.9839 33.2246 12.4164V10.0721L33.229 9.07861H33.7538L33.7516 9.35931C33.7499 9.5468 33.7494 9.78089 33.7494 10.0627H35.1373V10.5126H33.7494C33.7494 10.8776 33.7488 11.2265 33.7472 11.5593C33.7455 11.8922 33.7449 12.1479 33.7449 12.3265V12.4147L33.7444 12.4164ZM38.4767 14.5327C37.8843 14.541 37.3151 14.3041 36.9035 13.8781C36.477 13.4648 36.2401 12.894 36.249 12.3004C36.2406 11.708 36.4775 11.1389 36.9035 10.7272C37.3151 10.3012 37.8843 10.0644 38.4767 10.0727C39.0703 10.0638 39.6416 10.3001 40.0544 10.7267C40.4804 11.1383 40.7173 11.7074 40.7089 12.2999C40.7184 12.894 40.4809 13.4654 40.0544 13.8786C39.6411 14.3052 39.0703 14.5421 38.4767 14.5332V14.5327ZM38.4767 10.5969C38.023 10.5902 37.5864 10.7705 37.2702 11.0956C36.9435 11.4101 36.7615 11.8467 36.7687 12.3004C36.761 12.7553 36.9424 13.193 37.2697 13.5092C37.5864 13.8343 38.0224 14.0145 38.4762 14.0079C38.9305 14.0157 39.3682 13.8354 39.6855 13.5092C40.0116 13.1924 40.1919 12.7548 40.1842 12.2999C40.1914 11.8467 40.0105 11.4107 39.6855 11.0956C39.3687 10.7694 38.9316 10.5891 38.4767 10.5963V10.5969ZM43.9635 10.0721V10.5919C43.5142 10.5836 43.0809 10.7605 42.7659 11.0817C42.4402 11.4018 42.2566 11.8389 42.255 12.2955V14.5327H41.7341V12.2955C41.7357 11.6997 41.9754 11.1294 42.4003 10.7117C42.8108 10.2929 43.3755 10.0616 43.9618 10.0727H43.9635V10.0721ZM47.2164 10.0721V10.5919C46.7671 10.5836 46.3338 10.7605 46.0188 11.0817C45.6931 11.4018 45.5095 11.8389 45.5079 12.2955V14.5327H44.987V12.2955C44.9886 11.6997 45.2283 11.1294 45.6532 10.7117C46.0637 10.2929 46.6284 10.0616 47.2147 10.0727H47.2164V10.0721ZM52.8596 10.0721L50.6723 14.3241C50.6635 14.3424 50.6524 14.359 50.6396 14.3751L49.5213 16.5518L49.057 16.315L50.0455 14.3967C50.0261 14.3734 50.0089 14.349 49.9945 14.3224L47.8122 10.0732H48.3968L50.3323 13.8376L51.3485 11.8556H51.353L52.2738 10.0732H52.8585L52.8596 10.0721Z" fill="black"/>
<path d="M60.3733 12.1834V14.5321H59.8536V12.1834C59.8508 11.7574 59.6788 11.3497 59.3754 11.0507C59.0819 10.7494 58.6776 10.5825 58.2571 10.5902C57.8616 10.583 57.4788 10.7295 57.1898 10.9991C56.8958 11.2653 56.7094 11.6303 56.665 12.0248V14.531H56.1447V12.1906H56.1353C56.1353 12.1318 56.138 12.0725 56.1447 12.0142V7.88208H56.6645V10.7922C57.0611 10.3267 57.6452 10.0627 58.2565 10.0732C58.8135 10.0633 59.3499 10.2829 59.7393 10.6812C60.142 11.0773 60.37 11.6181 60.3728 12.1834H60.3733ZM66.0903 12.3043C66.0903 12.357 66.087 12.4097 66.0809 12.4619V14.5338H65.5617V13.74C65.1462 14.2525 64.5177 14.5449 63.8581 14.5338C63.2657 14.5421 62.6965 14.3052 62.2849 13.8792C61.8589 13.4676 61.622 12.8984 61.6303 12.306C61.6204 11.7113 61.8572 11.1389 62.2844 10.725C62.696 10.299 63.2651 10.0621 63.8576 10.0705C64.4517 10.061 65.023 10.2985 65.4363 10.725C65.8634 11.1383 66.1003 11.7102 66.0909 12.3049H66.0903V12.3043ZM63.8576 14.0079C64.3119 14.0157 64.7496 13.8354 65.0669 13.5092C65.3925 13.1936 65.5728 12.7581 65.5656 12.3049C65.5733 11.8506 65.393 11.4129 65.0669 11.0956C64.7501 10.7694 64.3124 10.5891 63.8576 10.5969C63.4038 10.5902 62.9672 10.7705 62.651 11.0956C62.3237 11.4118 62.1424 11.8495 62.1501 12.3049C62.1429 12.7587 62.3249 13.1947 62.651 13.5092C62.9678 13.8348 63.4043 14.0157 63.8587 14.009H63.8581L63.8576 14.0079ZM69.5757 10.0732V10.593C69.1263 10.5847 68.6931 10.7616 68.378 11.0828C68.0524 11.4029 67.8688 11.84 67.8671 12.2966V14.5338H67.3473V12.2966C67.349 11.7013 67.5886 11.1311 68.0135 10.7139C68.4235 10.2946 68.9888 10.0627 69.5751 10.0738L69.5757 10.0732ZM72.8285 10.0732V10.593C72.3792 10.5847 71.946 10.7616 71.6309 11.0828C71.3053 11.4029 71.1217 11.84 71.12 12.2966V14.5338H70.6002V12.2966C70.6019 11.7013 70.8415 11.1311 71.2664 10.7139C71.6764 10.2946 72.2417 10.0627 72.828 10.0738L72.8285 10.0732ZM73.9508 14.5338V10.0682H74.4705V14.5332H73.9508V14.5338ZM74.2104 9.43308C74.1155 9.43475 74.024 9.39703 73.9574 9.3288C73.8892 9.26223 73.8515 9.17125 73.8531 9.07584C73.8515 8.98098 73.8892 8.88946 73.9574 8.82289C74.024 8.75466 74.1149 8.71694 74.2104 8.7186C74.3052 8.71694 74.3968 8.75466 74.4633 8.82289C74.5315 8.88946 74.5693 8.98043 74.5676 9.07584C74.5693 9.1707 74.5315 9.26223 74.4633 9.3288C74.3968 9.39647 74.3058 9.43419 74.2109 9.43253L74.2104 9.43308ZM78.5866 13.3544C78.5955 13.5009 78.5749 13.6479 78.5261 13.786C78.4734 13.9241 78.3908 14.0495 78.2848 14.1527C78.1833 14.2481 78.0668 14.3257 77.9392 14.3829C77.7035 14.4855 77.4488 14.5365 77.192 14.5315C76.9402 14.5315 76.69 14.4855 76.4542 14.3967C76.2523 14.3202 76.0704 14.1998 75.9206 14.0439L76.2662 13.6495C76.3699 13.766 76.5003 13.8553 76.6467 13.9091C76.9929 14.0451 77.3773 14.0451 77.7234 13.9091C77.8654 13.8537 77.9797 13.7427 78.0391 13.6024C78.0646 13.5325 78.074 13.4582 78.0668 13.3838C78.0635 13.3156 78.0424 13.2496 78.0063 13.1919C77.9032 13.0471 77.7684 12.9284 77.6119 12.8441C77.4511 12.7481 77.2791 12.6566 77.0966 12.57C77.0816 12.5612 77.0661 12.5534 77.05 12.5467C77.0433 12.5406 77.0356 12.5357 77.0267 12.5329C76.8381 12.4402 76.6462 12.3332 76.4509 12.2122C76.3449 12.1446 76.2456 12.068 76.1541 11.982C76.0526 11.8844 75.9694 11.7701 75.9084 11.6431C75.8751 11.5738 75.8518 11.5005 75.839 11.4245C75.8329 11.3846 75.8285 11.3458 75.8252 11.3092V11.2071C75.8285 11.0629 75.8601 10.9214 75.9178 10.7894C76.0398 10.5331 76.2512 10.3306 76.5119 10.2186C76.7449 10.1121 76.9984 10.0583 77.2541 10.061C77.5082 10.0583 77.7606 10.1054 77.9963 10.2003C78.1805 10.2746 78.3475 10.385 78.4884 10.5253L78.0751 10.8504C77.9914 10.7805 77.8976 10.7245 77.7966 10.6834C77.4544 10.5442 77.0705 10.5459 76.7294 10.6879C76.5824 10.7489 76.462 10.8609 76.3904 11.0035C76.3616 11.0728 76.3461 11.1466 76.3438 11.2221V11.2825C76.3438 11.2997 76.3455 11.3169 76.3483 11.3336C76.3549 11.3657 76.366 11.3968 76.381 11.4262C76.4648 11.5749 76.5885 11.6975 76.7382 11.779C76.9135 11.8916 77.0966 11.9926 77.2858 12.0808L77.3506 12.1191C77.5271 12.2028 77.7051 12.2971 77.8843 12.402C78.1095 12.5329 78.3031 12.7121 78.4507 12.9267C78.5306 13.0554 78.5771 13.2019 78.5855 13.3533L78.5866 13.3544Z" fill="black"/>
<path d="M55.9051 7.64075H56.9063V10.2496C57.8405 9.60447 59.1008 9.7132 59.9107 10.5087C60.3578 10.9491 60.6113 11.5493 60.6152 12.1767V14.7723H59.6134V12.1862C59.6117 11.8228 59.4653 11.475 59.2057 11.2209C58.6964 10.7195 57.8849 10.7006 57.3523 11.1771C57.1038 11.4018 56.9452 11.7085 56.9063 12.0414V14.7728H55.9051V12.4324H55.8956V12.1917C55.8956 12.1285 55.8984 12.0652 55.9051 12.0025V7.64075ZM56.4248 8.12281H56.3866V14.2924H56.4248V12.0114L56.4265 11.9959C56.4781 11.5449 56.6917 11.1283 57.0273 10.8232C57.7501 10.1725 58.8551 10.198 59.5468 10.8814C59.8935 11.2243 60.091 11.6902 60.0954 12.1778V14.2919H60.1337V12.1878C60.1337 11.6847 59.9307 11.2032 59.5712 10.8515C59.2273 10.4976 58.7513 10.3034 58.2582 10.3145C57.7151 10.3034 57.1959 10.5381 56.8459 10.9536L56.4237 11.4256V8.12336L56.4248 8.12281Z" fill="black"/>
<path d="M66.3338 14.7739H65.332V14.2985C64.2275 15.1034 62.6804 14.8605 61.8755 13.7566C61.5676 13.3344 61.4017 12.8258 61.4006 12.3032C61.4006 10.9386 62.5067 9.83191 63.8719 9.83191C65.2371 9.83191 66.3432 10.938 66.3432 12.3032C66.3432 12.3603 66.3404 12.4175 66.3338 12.4746V14.7739ZM65.814 14.2919H65.8523V12.4358C65.8573 12.3931 65.8601 12.3498 65.8601 12.3065C65.8673 11.2026 64.9786 10.3023 63.8747 10.2951C62.7708 10.2879 61.8705 11.1766 61.8627 12.2805C61.8555 13.3844 62.7442 14.2847 63.8481 14.2924C64.4416 14.2963 65.0069 14.0362 65.3891 13.5818L65.8129 13.0848V14.2919H65.814ZM63.8697 14.2492C62.7958 14.2458 61.9276 13.3727 61.9309 12.2988C61.9343 11.2248 62.8074 10.3567 63.8814 10.36C64.9553 10.3633 65.8234 11.2365 65.8201 12.3104C65.8184 12.8241 65.6138 13.3161 65.251 13.6789C64.8882 14.0506 64.3884 14.2569 63.8692 14.2486L63.8697 14.2492ZM63.8697 10.8376C63.062 10.8404 62.4091 11.4972 62.4119 12.3049C62.4147 13.1125 63.0715 13.7655 63.8791 13.7627C64.6868 13.7599 65.3397 13.1031 65.3369 12.2954C65.3358 11.9088 65.1816 11.5388 64.9081 11.2659C64.6363 10.9846 64.2597 10.8299 63.8692 10.8376H63.8697Z" fill="black"/>
<path d="M69.5962 9.83192H69.837V10.8332H69.5962C69.2101 10.8243 68.8379 10.9763 68.5689 11.2531C68.2876 11.5288 68.129 11.9055 68.129 12.2993V14.774H67.1277V12.2899C67.131 11.6326 67.3962 11.0041 67.8644 10.5425C68.3198 10.0782 68.9461 9.82138 69.5962 9.83137V9.83192Z" fill="black"/>
<path d="M72.8585 9.83192H73.0993V10.8332H72.8585C72.4724 10.8243 72.1002 10.9763 71.8312 11.2531C71.5499 11.5288 71.3913 11.9055 71.3913 12.2993V14.774H70.39V12.2899C70.3933 11.6326 70.6585 11.0041 71.1267 10.5425C71.5821 10.0782 72.2084 9.82138 72.8585 9.83137V9.83192ZM72.6178 10.365V10.3267C72.1801 10.3711 71.7724 10.5686 71.4667 10.8848C71.2809 11.0673 71.1328 11.2842 71.0307 11.5238C70.9298 11.7701 70.876 12.0336 70.8715 12.2999V14.293H70.9098V12.2899C70.9126 11.7712 71.1217 11.2759 71.4911 10.9114C71.7918 10.6041 72.1901 10.4111 72.6178 10.3645V10.365Z" fill="black"/>
<path d="M74.2497 8.47675C74.5798 8.47675 74.8471 8.74412 74.8477 9.07363C74.8477 9.40369 74.5803 9.67107 74.2508 9.67162C73.9208 9.67162 73.6534 9.40424 73.6528 9.07474C73.6528 8.91609 73.7155 8.76409 73.8276 8.65204C73.9391 8.53888 74.0911 8.47619 74.2497 8.4773V8.47675ZM74.2497 9.19178C74.3135 9.19123 74.3645 9.13908 74.364 9.07584C74.3634 9.01205 74.3113 8.96102 74.248 8.96157C74.1843 8.96213 74.1332 9.01427 74.1338 9.07751C74.1338 9.10746 74.146 9.13631 74.1671 9.15739C74.1881 9.18069 74.2187 9.19345 74.2497 9.19178ZM73.7488 9.8275H74.7506V14.774H73.7488V9.8275ZM74.2686 10.3096H74.2303V14.293H74.2686V10.3096Z" fill="black"/>
<path d="M77.2841 14.7745H77.2397C76.9601 14.774 76.6828 14.7229 76.4204 14.6247C76.1857 14.5354 75.9738 14.3956 75.7996 14.2148L75.6432 14.0561L76.3161 13.284L76.4975 13.4953C76.5751 13.5813 76.6722 13.6473 76.7809 13.6872C76.9279 13.7427 77.0838 13.7721 77.2414 13.7738C77.39 13.7738 77.537 13.7449 77.6757 13.6911C77.7573 13.6606 77.8238 13.5996 77.861 13.5203C77.8738 13.4831 77.8782 13.4437 77.8738 13.4049V13.3988C77.8715 13.3722 77.8638 13.3467 77.8493 13.3245C77.7661 13.213 77.6596 13.1214 77.5376 13.056C77.3839 12.9644 77.217 12.8757 77.0422 12.793L77.0317 12.788L77.0217 12.7825C77.0178 12.7803 77.0134 12.7781 77.0089 12.7758L76.9646 12.7581L76.9524 12.7464C76.7637 12.6532 76.5685 12.5445 76.3732 12.4236H76.3705C76.2517 12.3476 76.1408 12.2605 76.0382 12.164C75.9156 12.0469 75.8152 11.9094 75.7414 11.7568V11.7535C75.6981 11.6642 75.6676 11.5688 75.651 11.4706V11.4661C75.6438 11.4195 75.6382 11.3746 75.6349 11.3313V11.2071C75.6388 11.0318 75.677 10.8593 75.7475 10.699L75.7508 10.6917L75.7542 10.6851C75.9017 10.3794 76.1547 10.137 76.4664 10.0028C76.7233 9.88629 77.0023 9.82526 77.2846 9.82471H77.329C77.6058 9.82471 77.8799 9.87852 78.1372 9.98114C78.3508 10.0671 78.5455 10.1953 78.7092 10.3578L78.905 10.5497L78.1217 11.1655L77.9719 11.0384C77.9081 10.9857 77.8366 10.9425 77.76 10.9114C77.618 10.8559 77.4666 10.8265 77.314 10.8249C77.1643 10.8254 77.0162 10.8554 76.8775 10.9125C76.7854 10.9502 76.7094 11.0185 76.6622 11.1061C76.6467 11.1455 76.6384 11.1877 76.6367 11.2298V11.2853C76.6367 11.2853 76.6367 11.2886 76.6367 11.2903C76.6389 11.3008 76.6428 11.3114 76.6484 11.3214V11.3236C76.7133 11.4306 76.8059 11.5183 76.9169 11.5765L76.9224 11.5799C77.0888 11.6869 77.2619 11.7823 77.4411 11.8655L77.4499 11.87L77.4583 11.8744L77.4915 11.8938L77.5154 11.9071C77.6918 11.9909 77.8743 12.088 78.0568 12.1945C78.312 12.3426 78.5311 12.5451 78.6992 12.7875L78.7042 12.7941L78.7086 12.8014C78.8096 12.9633 78.8678 13.1481 78.8789 13.3383C78.8894 13.5164 78.8645 13.6945 78.8062 13.8625L78.8024 13.8725C78.7369 14.0428 78.6354 14.1965 78.5045 14.3241L78.5017 14.3268C78.3813 14.4411 78.2432 14.5343 78.0918 14.6031L78.0873 14.6048C77.8338 14.7152 77.5598 14.7734 77.283 14.7745H77.2841ZM76.589 14.1726C76.7976 14.2508 77.0184 14.2913 77.2414 14.2919H77.283C77.4927 14.2902 77.7001 14.2464 77.8921 14.1632C77.993 14.1172 78.0857 14.0545 78.1666 13.9785C78.246 13.9008 78.3081 13.8065 78.348 13.7028C78.3852 13.5957 78.4013 13.4826 78.3946 13.3699C78.3891 13.2612 78.3564 13.1558 78.2998 13.0632C78.1733 12.8807 78.0091 12.7281 77.8177 12.6155L77.8127 12.6127C77.638 12.5107 77.4649 12.4186 77.2974 12.3398L77.2891 12.3359L77.2808 12.3315L77.248 12.3126L77.2236 12.2988C77.0284 12.2078 76.8397 12.1035 76.6583 11.987C76.4703 11.8822 76.3161 11.7263 76.2135 11.5371C76.1891 11.4883 76.1713 11.4367 76.1608 11.3835C76.1547 11.3513 76.1513 11.3186 76.1513 11.2859V11.216C76.1541 11.1117 76.1769 11.0085 76.2168 10.912L76.2207 10.9031C76.3161 10.7095 76.4775 10.5569 76.6761 10.4721L76.6855 10.4676C76.8836 10.385 77.0955 10.3423 77.3096 10.3417C77.5221 10.3434 77.7323 10.3833 77.9303 10.4604L77.9364 10.4626C77.998 10.4882 78.0579 10.5181 78.1151 10.552L78.1489 10.5253C78.0879 10.4865 78.0241 10.4532 77.957 10.4266C77.7495 10.3434 77.5282 10.3018 77.3046 10.304H77.2991C77.0777 10.3023 76.8592 10.3489 76.6578 10.4405L76.6528 10.4427C76.447 10.5314 76.28 10.6917 76.183 10.8942C76.1397 10.9946 76.1158 11.1022 76.1131 11.2121V11.3014C76.1153 11.3291 76.1192 11.358 76.1236 11.389C76.1325 11.4412 76.1491 11.4922 76.1719 11.5399C76.2201 11.6403 76.2861 11.7313 76.366 11.8084C76.4464 11.8844 76.5335 11.9526 76.6267 12.0125C76.8115 12.1279 76.9951 12.2289 77.1715 12.316C77.1881 12.3232 77.2042 12.3315 77.2192 12.3415C77.2319 12.3476 77.2447 12.3537 77.2575 12.3609C77.4422 12.4486 77.6186 12.5429 77.7828 12.6405C77.9703 12.7431 78.1323 12.8879 78.256 13.0626L78.2615 13.0715C78.317 13.1619 78.3492 13.2645 78.3553 13.3705C78.3641 13.4787 78.3497 13.5874 78.312 13.6895C78.2304 13.8892 78.0718 14.0473 77.8721 14.1288L77.8654 14.1321L77.8588 14.1349C77.6624 14.2131 77.4527 14.2536 77.2414 14.2536C77.0261 14.2525 76.8126 14.2137 76.6112 14.1382H76.6062C76.5108 14.1011 76.4198 14.0534 76.3355 13.9951L76.3094 14.0251C76.3954 14.0867 76.4886 14.136 76.5874 14.1726H76.589Z" fill="black"/>
</svg>
