<?xml version="1.0" encoding="UTF-8"?>
<svg id="Layer_2" data-name="Layer 2" xmlns="http://www.w3.org/2000/svg" xmlns:xlink="http://www.w3.org/1999/xlink" viewBox="0 0 2268.73 548.74">
  <defs>
    <style>
      .cls-1 {
        fill: url(#linear-gradient);
      }

      .cls-2 {
        fill: #0047ba;
      }

      .cls-3 {
        fill: #222;
      }
    </style>
    <linearGradient id="linear-gradient" x1="-.35" y1="107.08" x2="401.82" y2="489.89" gradientUnits="userSpaceOnUse">
      <stop offset="0" stop-color="#7d3192"/>
      <stop offset="1" stop-color="#282565"/>
    </linearGradient>
  </defs>
  <g id="Layer_1-2" data-name="Layer 1">
    <g>
      <g>
        <g>
          <path class="cls-2" d="m287.3,97.64h-3.85c0-51.71-42.07-93.79-93.79-93.79s-93.79,42.07-93.79,93.79h-3.85C92.02,43.8,135.82,0,189.66,0s97.64,43.8,97.64,97.64Z"/>
          <rect class="cls-2" x="283.45" y="97.64" width="3.85" height="150.84"/>
          <rect class="cls-2" x="92.02" y="97.64" width="3.85" height="161.26"/>
        </g>
        <g>
          <path class="cls-2" d="m307.62,97.64h-3.85c0-51.71-42.07-93.79-93.79-93.79s-93.79,42.07-93.79,93.79h-3.85C112.35,43.8,156.15,0,209.98,0s97.64,43.8,97.64,97.64Z"/>
          <rect class="cls-2" x="303.77" y="97.64" width="3.85" height="150.84"/>
          <rect class="cls-2" x="112.35" y="97.64" width="3.85" height="161.26"/>
        </g>
        <path class="cls-1" d="m365.21,120.99l-156.45,115c-3.8,2.78-9,2.78-12.81-.06L42.6,120.99c-17.66-13.03-42.6-.39-42.6,21.52v304.6c0,32.07,26.02,58.05,58.03,58.05h291.75c32.07,0,58.05-25.98,58.05-58.05V142.52c0-21.91-24.94-34.55-42.62-21.52Zm-64.43,335.96c0,6.87-5.57,12.44-12.44,12.44H121.1c-6.87,0-12.44-5.57-12.44-12.44v-168.11c0-10.33,11.83-16.16,20-9.88l64.49,49.45c6.52,5,15.59,5.02,22.13.06l65.53-49.72c8.19-6.22,19.96-.37,19.96,9.92v168.28Z"/>
      </g>
      <g>
        <path class="cls-3" d="m537.77,278.96c26.11,0,46.96,5.59,62.55,16.79,15.59,11.19,23.38,28.51,23.38,51.96v92.32c0,6.4-1.6,11.46-4.8,15.19-3.2,3.73-7.19,7.06-11.99,9.99-7.46,4.53-16.92,8.13-28.38,10.79-11.46,2.66-24.52,4-39.17,4-26.65,0-47.63-5.13-62.95-15.39-15.32-10.26-22.98-25.64-22.98-46.16,0-17.85,5.66-31.51,16.99-40.97,11.32-9.45,27.78-15.25,49.36-17.39l54.76-5.59v-7.19c0-10.12-3.67-17.59-10.99-22.38-7.33-4.8-17.65-7.19-30.97-7.19-10.39,0-20.52,1.27-30.38,3.8-9.86,2.54-18.65,5.67-26.38,9.39-2.94-2.13-5.4-5-7.39-8.59-2-3.6-3-7.53-3-11.79,0-5.33,1.26-9.65,3.8-12.99,2.53-3.33,6.6-6.33,12.19-8.99,7.73-3.2,16.52-5.59,26.38-7.19,9.85-1.6,19.85-2.4,29.98-2.4Zm1.6,162.67c7.73,0,14.79-.73,21.18-2.2,6.4-1.46,11.05-3.26,13.99-5.4v-44.36l-38.77,3.6c-10.66,1.07-18.78,3.4-24.38,6.99-5.6,3.6-8.39,9.26-8.39,16.99s2.86,13.73,8.59,17.99c5.73,4.26,14.99,6.39,27.78,6.39Z"/>
        <path class="cls-3" d="m720.01,473.6c-2.4.53-5.6,1.2-9.59,2-4,.8-8.53,1.2-13.59,1.2-9.33,0-16.26-1.74-20.78-5.19-4.53-3.46-6.79-9.59-6.79-18.39v-126.7c0-6.93,1.6-12.79,4.8-17.59,3.2-4.8,7.86-9.06,13.99-12.79,8.26-5.06,18.45-9.19,30.58-12.39,12.12-3.2,25.24-4.8,39.37-4.8,25.31,0,37.97,7.86,37.97,23.58,0,3.73-.6,7.26-1.8,10.59-1.2,3.33-2.47,6.06-3.8,8.19-6.13-1.33-13.73-2-22.78-2s-18.12,1.07-26.38,3.2c-8.26,2.14-15.33,4.8-21.18,7.99v143.08Z"/>
        <path class="cls-3" d="m865.89,475.6c-4,.8-8.53,1.2-13.59,1.2-9.33,0-16.26-1.74-20.78-5.19-4.53-3.46-6.79-9.59-6.79-18.39v-239.01c2.13-.8,5.26-1.53,9.39-2.2,4.13-.66,8.72-1,13.79-1,9.32,0,16.25,1.74,20.78,5.2,4.53,3.47,6.79,9.59,6.79,18.39v123.9l77.54-77.14c10.12,0,18.25,2.27,24.38,6.8,6.13,4.53,9.19,10.26,9.19,17.19,0,6.13-1.94,11.46-5.8,15.99-3.86,4.53-9.93,10.26-18.19,17.19l-43.16,37.57,76.34,71.54c-1.07,9.33-3.87,16.59-8.39,21.78-4.53,5.2-11.06,7.79-19.58,7.79-6.13,0-11.53-1.47-16.19-4.4-4.66-2.93-10.33-8.12-16.99-15.59l-59.15-65.55v81.93c-2.4.53-5.6,1.2-9.59,2Z"/>
        <path class="cls-3" d="m1063.33,402.06c3.73,13.59,10.65,23.45,20.78,29.57,10.12,6.13,22.64,9.19,37.57,9.19,11.19,0,21.51-1.66,30.98-5,9.45-3.33,17.12-6.86,22.98-10.59,3.73,2.14,6.79,5.06,9.19,8.79,2.4,3.73,3.6,7.73,3.6,11.99,0,5.33-1.8,10.06-5.4,14.19-3.6,4.13-8.53,7.66-14.79,10.59-6.26,2.94-13.66,5.2-22.18,6.8-8.53,1.6-17.72,2.4-27.58,2.4-15.72,0-30.04-2.14-42.96-6.39-12.93-4.26-23.98-10.72-33.17-19.38-9.19-8.66-16.39-19.38-21.58-32.17-5.19-12.79-7.79-27.71-7.79-44.76s2.53-30.91,7.59-43.16c5.06-12.25,11.92-22.51,20.58-30.77,8.66-8.26,18.72-14.39,30.18-18.39,11.45-4,23.58-6,36.37-6s25.04,2.07,35.97,6.2c10.92,4.13,20.25,9.86,27.98,17.19,7.72,7.33,13.79,16.12,18.19,26.38,4.4,10.26,6.59,21.38,6.59,33.37,0,7.46-1.94,13.06-5.79,16.79-3.87,3.73-9.26,6.13-16.19,7.19l-111.11,15.99Zm44.36-85.13c-13.06,0-23.98,4.33-32.77,12.99-8.79,8.66-13.73,20.98-14.79,36.97l88.73-13.19c-1.07-9.85-4.93-18.45-11.59-25.78-6.66-7.33-16.52-10.99-29.58-10.99Z"/>
        <path class="cls-3" d="m1290.14,433.63c5.2,3.73,12.45,5.6,21.78,5.6,4.53,0,9.12-.53,13.79-1.6,4.66-1.06,8.85-2.4,12.59-4,2.13,2.14,3.93,4.73,5.4,7.79,1.46,3.07,2.2,6.59,2.2,10.59,0,7.99-3.6,14.59-10.79,19.78-7.19,5.2-18.78,7.79-34.77,7.79-21.05,0-37.64-4.73-49.76-14.19-12.13-9.45-18.19-25.11-18.19-46.96v-183.45c2.13-.53,5.26-1.2,9.39-2,4.13-.8,8.59-1.2,13.39-1.2,9.32,0,16.19,1.74,20.58,5.2,4.4,3.47,6.6,9.59,6.6,18.39v33.17h58.75c1.33,2.14,2.53,4.93,3.6,8.39,1.06,3.47,1.6,7.19,1.6,11.19,0,6.93-1.6,11.99-4.8,15.19-3.2,3.2-7.46,4.8-12.79,4.8h-46.36v87.13c0,8.53,2.6,14.66,7.79,18.38Z"/>
        <path class="cls-3" d="m1471.39,479.6c-7.73,0-14.86-.74-21.38-2.2-6.53-1.47-12.46-3.27-17.78-5.4v73.54c-2.4.53-5.6,1.2-9.59,2-4,.8-8.53,1.2-13.59,1.2-9.33,0-16.26-1.74-20.78-5.2-4.53-3.47-6.79-9.59-6.79-18.38v-202.64c0-6.39,1.26-11.59,3.8-15.59,2.53-4,6.6-7.73,12.19-11.19,7.73-4.53,17.32-8.46,28.78-11.79,11.45-3.33,24.38-5,38.77-5s28.18,1.94,40.57,5.79c12.39,3.87,23.11,9.86,32.17,17.99,9.06,8.13,16.12,18.45,21.18,30.97,5.06,12.53,7.59,27.45,7.59,44.76s-2.4,31.44-7.19,43.96c-4.8,12.53-11.39,23.05-19.78,31.57-8.39,8.53-18.39,14.93-29.98,19.18-11.59,4.26-24.32,6.4-38.17,6.4Zm-7.59-40.37c15.99,0,28.51-4.93,37.57-14.79,9.06-9.85,13.59-25.18,13.59-45.96s-4.66-36.9-13.99-45.96c-9.33-9.06-21.32-13.59-35.97-13.59-7.19,0-13.53.94-18.98,2.8-5.46,1.87-10.19,3.87-14.19,6v102.72c4.26,2.67,8.99,4.8,14.19,6.4,5.2,1.6,11.12,2.4,17.78,2.4Z"/>
        <path class="cls-3" d="m1647.44,475.6c-4.14.8-8.59,1.2-13.39,1.2-9.59,0-16.59-1.74-20.98-5.19-4.4-3.46-6.6-9.59-6.6-18.39v-239.01c2.13-.8,5.26-1.53,9.39-2.2,4.13-.66,8.59-1,13.39-1,9.59,0,16.59,1.74,20.98,5.2,4.4,3.47,6.59,9.59,6.59,18.39v239.01c-2.14.53-5.26,1.2-9.39,2Z"/>
        <path class="cls-3" d="m1779.13,278.96c26.11,0,46.96,5.59,62.55,16.79,15.59,11.19,23.38,28.51,23.38,51.96v92.32c0,6.4-1.6,11.46-4.8,15.19-3.2,3.73-7.19,7.06-11.99,9.99-7.46,4.53-16.92,8.13-28.38,10.79-11.46,2.66-24.52,4-39.17,4-26.65,0-47.63-5.13-62.95-15.39-15.32-10.26-22.98-25.64-22.98-46.16,0-17.85,5.66-31.51,16.99-40.97,11.32-9.45,27.78-15.25,49.36-17.39l54.76-5.59v-7.19c0-10.12-3.67-17.59-10.99-22.38-7.33-4.8-17.65-7.19-30.97-7.19-10.39,0-20.52,1.27-30.38,3.8-9.86,2.54-18.65,5.67-26.38,9.39-2.94-2.13-5.4-5-7.39-8.59-2-3.6-3-7.53-3-11.79,0-5.33,1.26-9.65,3.8-12.99,2.53-3.33,6.6-6.33,12.19-8.99,7.73-3.2,16.52-5.59,26.38-7.19,9.85-1.6,19.85-2.4,29.98-2.4Zm1.6,162.67c7.73,0,14.79-.73,21.18-2.2,6.4-1.46,11.05-3.26,13.99-5.4v-44.36l-38.77,3.6c-10.66,1.07-18.78,3.4-24.38,6.99-5.6,3.6-8.39,9.26-8.39,16.99s2.86,13.73,8.59,17.99c5.73,4.26,14.99,6.39,27.78,6.39Z"/>
        <path class="cls-3" d="m2008.54,319.33c-7.99,0-15.39,1.34-22.18,4-6.79,2.67-12.66,6.53-17.59,11.59-4.93,5.07-8.86,11.33-11.79,18.79-2.93,7.46-4.4,16.12-4.4,25.98,0,19.72,5.2,34.57,15.59,44.56,10.39,9.99,23.84,14.99,40.37,14.99,9.32,0,17.39-1.26,24.18-3.8,6.79-2.53,12.85-5.26,18.19-8.19,3.73,2.67,6.72,5.73,8.99,9.19,2.26,3.47,3.4,7.46,3.4,11.99,0,9.06-5.33,16.52-15.99,22.38-10.66,5.86-25.05,8.79-43.16,8.79-15.19,0-29.11-2.07-41.77-6.2-12.66-4.13-23.52-10.39-32.57-18.79-9.06-8.39-16.06-18.85-20.98-31.37-4.93-12.52-7.39-27.04-7.39-43.56s2.66-31.51,7.99-44.16c5.33-12.65,12.59-23.18,21.78-31.57,9.19-8.39,19.91-14.65,32.17-18.78,12.25-4.13,25.31-6.2,39.17-6.2,17.85,0,32.1,3.13,42.76,9.39,10.65,6.26,15.99,13.93,15.99,22.98,0,4.26-1.14,8.13-3.4,11.59-2.27,3.47-4.86,6.26-7.79,8.39-5.33-2.93-11.26-5.66-17.79-8.19-6.53-2.53-14.46-3.8-23.78-3.8Z"/>
        <path class="cls-3" d="m2135.64,402.06c3.73,13.59,10.65,23.45,20.78,29.57,10.12,6.13,22.64,9.19,37.57,9.19,11.19,0,21.51-1.66,30.98-5,9.45-3.33,17.12-6.86,22.98-10.59,3.73,2.14,6.79,5.06,9.19,8.79,2.4,3.73,3.6,7.73,3.6,11.99,0,5.33-1.8,10.06-5.4,14.19-3.6,4.13-8.53,7.66-14.79,10.59-6.26,2.94-13.66,5.2-22.18,6.8-8.53,1.6-17.72,2.4-27.58,2.4-15.72,0-30.04-2.14-42.96-6.39-12.93-4.26-23.98-10.72-33.17-19.38-9.19-8.66-16.39-19.38-21.58-32.17-5.19-12.79-7.79-27.71-7.79-44.76s2.53-30.91,7.59-43.16c5.06-12.25,11.92-22.51,20.58-30.77,8.66-8.26,18.72-14.39,30.18-18.39,11.45-4,23.58-6,36.37-6s25.04,2.07,35.97,6.2c10.92,4.13,20.25,9.86,27.98,17.19,7.72,7.33,13.79,16.12,18.19,26.38,4.4,10.26,6.59,21.38,6.59,33.37,0,7.46-1.94,13.06-5.79,16.79-3.87,3.73-9.26,6.13-16.19,7.19l-111.11,15.99Zm44.36-85.13c-13.06,0-23.98,4.33-32.77,12.99-8.79,8.66-13.73,20.98-14.79,36.97l88.73-13.19c-1.07-9.85-4.93-18.45-11.59-25.78-6.66-7.33-16.52-10.99-29.58-10.99Z"/>
      </g>
      <g>
        <path class="cls-3" d="m459.88,169.49v-77.37h26.26c6.17,0,11.57,1.02,16.18,3.05,4.61,2.03,8.46,4.79,11.55,8.28,3.09,3.49,5.41,7.57,6.97,12.26,1.56,4.69,2.34,9.68,2.34,14.98,0,5.88-.87,11.21-2.62,15.96-1.74,4.76-4.23,8.83-7.46,12.21-3.23,3.38-7.12,5.99-11.66,7.85-4.54,1.85-9.64,2.78-15.31,2.78h-26.26Zm55.68-38.79c0-4.65-.65-8.92-1.96-12.8-1.31-3.89-3.22-7.25-5.72-10.08-2.51-2.83-5.58-5.03-9.21-6.59-3.63-1.56-7.81-2.34-12.53-2.34h-18.64v63.86h18.64c4.79,0,9.03-.82,12.69-2.45,3.67-1.63,6.74-3.89,9.21-6.76,2.47-2.87,4.34-6.25,5.61-10.13,1.27-3.89,1.91-8.12,1.91-12.69Z"/>
        <path class="cls-3" d="m552.61,100.84v-10.9h7.41v10.9h-7.41Zm0,68.65v-56.77h7.41v56.77h-7.41Z"/>
        <path class="cls-3" d="m615.49,170.25c-3.92,0-7.5-.82-10.73-2.45-3.23-1.63-6.03-3.8-8.39-6.48-2.36-2.69-4.2-5.78-5.5-9.26-1.31-3.49-1.96-7.08-1.96-10.79,0-3.92.64-7.68,1.91-11.28,1.27-3.6,3.07-6.74,5.39-9.43,2.32-2.69,5.1-4.83,8.34-6.43,3.23-1.6,6.81-2.4,10.73-2.4,4.86,0,9.08,1.22,12.64,3.65,3.56,2.43,6.61,5.5,9.15,9.21v-11.88h6.65v56.99c0,3.92-.74,7.39-2.23,10.41-1.49,3.01-3.49,5.54-5.99,7.57-2.51,2.03-5.45,3.56-8.83,4.58s-6.96,1.53-10.73,1.53c-6.54,0-11.81-1.16-15.8-3.49-4-2.33-7.23-5.45-9.7-9.37l4.58-3.6c2.25,3.63,5.23,6.3,8.94,8.01,3.7,1.71,7.7,2.56,11.99,2.56,2.76,0,5.38-.38,7.85-1.15,2.47-.76,4.63-1.89,6.48-3.38,1.85-1.49,3.32-3.38,4.41-5.67,1.09-2.29,1.63-4.96,1.63-8.01v-11.22c-2.18,3.63-5.16,6.5-8.94,8.61-3.78,2.11-7.74,3.16-11.88,3.16Zm2.07-6.21c2.18,0,4.32-.4,6.43-1.2,2.11-.8,4.01-1.87,5.72-3.21,1.71-1.34,3.14-2.85,4.3-4.52,1.16-1.67,1.92-3.38,2.29-5.12v-17.55c-.8-2.03-1.89-3.92-3.27-5.67-1.38-1.74-2.94-3.23-4.69-4.47-1.74-1.24-3.62-2.22-5.61-2.94-2-.73-4.01-1.09-6.05-1.09-3.2,0-6.05.67-8.55,2.02-2.51,1.35-4.63,3.11-6.37,5.28-1.74,2.18-3.07,4.65-3.98,7.41-.91,2.76-1.36,5.56-1.36,8.39,0,3.05.55,5.96,1.64,8.72,1.09,2.76,2.6,5.18,4.52,7.25,1.92,2.07,4.16,3.7,6.7,4.9,2.54,1.2,5.3,1.8,8.28,1.8Z"/>
        <path class="cls-3" d="m676.4,100.84v-10.9h7.41v10.9h-7.41Zm0,68.65v-56.77h7.41v56.77h-7.41Z"/>
        <path class="cls-3" d="m743.74,166.77c-.44.22-1.07.51-1.91.87-.84.36-1.8.73-2.89,1.09-1.09.36-2.32.69-3.7.98-1.38.29-2.83.44-4.36.44s-3.12-.22-4.58-.65c-1.46-.43-2.73-1.11-3.81-2.01s-1.96-2.05-2.62-3.43c-.65-1.38-.98-2.98-.98-4.79v-40.65h-7.85v-5.89h7.85v-19.18h7.41v19.18h13.08v5.89h-13.08v38.57c.14,2.11.89,3.65,2.23,4.63,1.34.98,2.89,1.47,4.63,1.47,2.11,0,3.96-.34,5.56-1.03,1.6-.69,2.62-1.18,3.05-1.47l1.96,5.99Z"/>
        <path class="cls-3" d="m783.63,170.58c-2.69,0-5.18-.45-7.47-1.36-2.29-.91-4.29-2.16-5.99-3.76-1.71-1.6-3.03-3.47-3.98-5.61-.94-2.14-1.42-4.45-1.42-6.92s.58-4.76,1.74-6.86c1.16-2.11,2.8-3.92,4.9-5.45,2.11-1.53,4.61-2.71,7.52-3.54,2.9-.83,6.1-1.25,9.59-1.25,2.9,0,5.85.26,8.83.76,2.98.51,5.63,1.24,7.96,2.18v-5.12c0-5.01-1.42-8.99-4.25-11.93-2.83-2.94-6.76-4.41-11.77-4.41-2.91,0-5.89.58-8.94,1.74-3.05,1.16-6.14,2.83-9.26,5.01l-2.62-4.9c7.34-4.94,14.46-7.41,21.36-7.41s12.71,2,16.78,5.99c4.07,4,6.1,9.52,6.1,16.56v25.61c0,2.03.91,3.05,2.73,3.05v6.54c-1.24.22-2.18.33-2.83.33-1.89,0-3.36-.47-4.41-1.42-1.05-.94-1.62-2.25-1.69-3.92l-.22-4.47c-2.62,3.42-5.9,6.03-9.86,7.85-3.96,1.81-8.23,2.72-12.8,2.72Zm1.74-5.67c3.85,0,7.39-.73,10.62-2.18,3.23-1.45,5.68-3.38,7.36-5.78.65-.65,1.15-1.36,1.47-2.12s.49-1.47.49-2.12v-9.26c-2.47-.94-5.03-1.67-7.68-2.18-2.65-.51-5.36-.76-8.12-.76-5.23,0-9.48,1.09-12.75,3.27-3.27,2.18-4.9,5.05-4.9,8.61,0,1.74.34,3.38,1.04,4.9.69,1.52,1.63,2.85,2.83,3.98,1.2,1.13,2.63,2.01,4.3,2.67,1.67.65,3.45.98,5.34.98Z"/>
        <path class="cls-3" d="m845.41,89.94h7.41v66.69c0,2.11.58,3.76,1.74,4.96,1.16,1.2,2.8,1.8,4.9,1.8.8,0,1.74-.11,2.83-.33,1.09-.22,2.11-.51,3.05-.87l1.31,5.99c-1.38.58-3.07,1.05-5.07,1.42s-3.72.54-5.17.54c-3.42,0-6.1-.96-8.06-2.89-1.96-1.92-2.94-4.63-2.94-8.12v-69.2Z"/>
      </g>
    </g>
  </g>
</svg>