<svg width="56" height="45" viewBox="0 0 56 45" fill="none" xmlns="http://www.w3.org/2000/svg">
<path d="M54 0.00390625H2C1.46975 0.00451498 0.9614 0.215425 0.586459 0.590365C0.211518 0.965306 0.000608734 1.47366 0 2.00391V42.0039C0.000608734 42.5342 0.211518 43.0425 0.586459 43.4174C0.9614 43.7924 1.46975 44.0033 2 44.0039H54C54.5302 44.0033 55.0386 43.7924 55.4135 43.4174C55.7885 43.0425 55.9994 42.5342 56 42.0039V2.00391C55.9994 1.47366 55.7885 0.965306 55.4135 0.590365C55.0386 0.215425 54.5302 0.00451498 54 0.00390625ZM2 2.00391H54V8.00391H2V2.00391ZM2 42.0039V10.0039H54L54.0012 42.0039H2ZM52 5.00391C52 5.20169 51.9414 5.39503 51.8315 5.55948C51.7216 5.72393 51.5654 5.8521 51.3827 5.92779C51.2 6.00347 50.9989 6.02328 50.8049 5.98469C50.6109 5.94611 50.4327 5.85087 50.2929 5.71101C50.153 5.57116 50.0578 5.39298 50.0192 5.199C49.9806 5.00502 50.0004 4.80395 50.0761 4.62122C50.1518 4.4385 50.28 4.28232 50.4444 4.17244C50.6089 4.06256 50.8022 4.00391 51 4.00391C51.2652 4.00391 51.5196 4.10926 51.7071 4.2968C51.8946 4.48434 52 4.73869 52 5.00391ZM17 5.00391C17 5.26912 16.8946 5.52348 16.7071 5.71101C16.5196 5.89855 16.2652 6.00391 16 6.00391H5C4.73478 6.00391 4.48043 5.89855 4.29289 5.71101C4.10536 5.52348 4 5.26912 4 5.00391C4 4.73869 4.10536 4.48434 4.29289 4.2968C4.48043 4.10926 4.73478 4.00391 5 4.00391H16C16.2652 4.00391 16.5196 4.10926 16.7071 4.2968C16.8946 4.48434 17 4.73869 17 5.00391ZM5.2 19.6039C5.06981 19.431 4.9994 19.2204 4.9994 19.0039C4.9994 18.7874 5.06981 18.5768 5.2 18.4039L8.2 14.4039C8.27879 14.2988 8.37751 14.2103 8.49051 14.1434C8.60351 14.0765 8.72858 14.0325 8.85858 14.014C8.98858 13.9954 9.12097 14.0026 9.24818 14.0352C9.37539 14.0678 9.49494 14.1251 9.6 14.2039C9.70506 14.2827 9.79357 14.3814 9.86047 14.4944C9.92738 14.6074 9.97138 14.7325 9.98995 14.8625C10.0085 14.9925 10.0013 15.1249 9.96871 15.2521C9.93612 15.3793 9.87879 15.4988 9.8 15.6039L7.25 19.0039L9.8 22.4039C9.95913 22.6161 10.0275 22.8828 9.98995 23.1453C9.95244 23.4079 9.81217 23.6448 9.6 23.8039C9.38783 23.963 9.12113 24.0314 8.85858 23.9939C8.59603 23.9563 8.35913 23.8161 8.2 23.6039L5.2 19.6039ZM16.2 22.4039L18.75 19.0039L16.2 15.6039C16.1212 15.4988 16.0639 15.3793 16.0313 15.2521C15.9987 15.1249 15.9915 14.9925 16.01 14.8625C16.0286 14.7325 16.0726 14.6074 16.1395 14.4944C16.2064 14.3814 16.2949 14.2827 16.4 14.2039C16.5051 14.1251 16.6246 14.0678 16.7518 14.0352C16.879 14.0026 17.0114 13.9954 17.1414 14.014C17.2714 14.0325 17.3965 14.0765 17.5095 14.1434C17.6225 14.2103 17.7212 14.2988 17.8 14.4039L20.8 18.4039C20.93 18.5768 21.0003 18.7872 21.0003 19.0035C21.0003 19.2198 20.93 19.4302 20.8 19.6031L17.8 23.6031C17.7225 23.7114 17.6241 23.8031 17.5107 23.8729C17.3973 23.9426 17.271 23.989 17.1394 24.0093C17.0078 24.0296 16.8735 24.0235 16.7443 23.9912C16.6151 23.9589 16.4937 23.9011 16.3871 23.8212C16.2806 23.7414 16.191 23.641 16.1238 23.5261C16.0565 23.4112 16.0129 23.2839 15.9955 23.1519C15.978 23.0199 15.9871 22.8857 16.0223 22.7573C16.0574 22.6288 16.1178 22.5087 16.2 22.4039ZM11.02 23.8076L13.02 13.8076C13.0751 13.5506 13.2292 13.3256 13.4489 13.1813C13.6686 13.037 13.9364 12.9851 14.1941 13.0367C14.4519 13.0883 14.6789 13.2393 14.8262 13.457C14.9734 13.6748 15.029 13.9418 14.9809 14.2002L12.9809 24.2002C12.9355 24.4267 12.8132 24.6306 12.6345 24.7771C12.4559 24.9236 12.232 25.0038 12.001 25.0039C11.9347 25.004 11.8686 24.9973 11.8037 24.9839C11.5439 24.9317 11.3154 24.7785 11.1684 24.5579C11.0215 24.3374 10.9681 24.0675 11.02 23.8076ZM23 15.0039C23 14.7387 23.1054 14.4843 23.2929 14.2968C23.4804 14.1093 23.7348 14.0039 24 14.0039H33C33.2652 14.0039 33.5196 14.1093 33.7071 14.2968C33.8946 14.4843 34 14.7387 34 15.0039C34 15.2691 33.8946 15.5235 33.7071 15.711C33.5196 15.8986 33.2652 16.0039 33 16.0039H24C23.7348 16.0039 23.4804 15.8986 23.2929 15.711C23.1054 15.5235 23 15.2691 23 15.0039ZM23 20.0039C23 19.7387 23.1054 19.4843 23.2929 19.2968C23.4804 19.1093 23.7348 19.0039 24 19.0039H43C43.2652 19.0039 43.5196 19.1093 43.7071 19.2968C43.8946 19.4843 44 19.7387 44 20.0039C44 20.2691 43.8946 20.5235 43.7071 20.711C43.5196 20.8986 43.2652 21.0039 43 21.0039H24C23.7348 21.0039 23.4804 20.8986 23.2929 20.711C23.1054 20.5235 23 20.2691 23 20.0039ZM51 20.0039C51 20.2691 50.8946 20.5235 50.7071 20.711C50.5196 20.8986 50.2652 21.0039 50 21.0039H47C46.7348 21.0039 46.4804 20.8986 46.2929 20.711C46.1054 20.5235 46 20.2691 46 20.0039C46 19.7387 46.1054 19.4843 46.2929 19.2968C46.4804 19.1093 46.7348 19.0039 47 19.0039H50C50.2652 19.0039 50.5196 19.1093 50.7071 19.2968C50.8946 19.4843 51 19.7387 51 20.0039ZM23 25.0039C23 24.7387 23.1054 24.4843 23.2929 24.2968C23.4804 24.1093 23.7348 24.0039 24 24.0039H33C33.2652 24.0039 33.5196 24.1093 33.7071 24.2968C33.8946 24.4843 34 24.7387 34 25.0039C34 25.2691 33.8946 25.5235 33.7071 25.711C33.5196 25.8986 33.2652 26.0039 33 26.0039H24C23.7348 26.0039 23.4804 25.8986 23.2929 25.711C23.1054 25.5235 23 25.2691 23 25.0039ZM51 25.0039C51 25.2691 50.8946 25.5235 50.7071 25.711C50.5196 25.8986 50.2652 26.0039 50 26.0039H38C37.7348 26.0039 37.4804 25.8986 37.2929 25.711C37.1054 25.5235 37 25.2691 37 25.0039C37 24.7387 37.1054 24.4843 37.2929 24.2968C37.4804 24.1093 37.7348 24.0039 38 24.0039H50C50.2652 24.0039 50.5196 24.1093 50.7071 24.2968C50.8946 24.4843 51 24.7387 51 25.0039ZM13 29.0039C13.2652 29.0039 13.5196 29.1093 13.7071 29.2968C13.8946 29.4843 14 29.7387 14 30.0039C14 30.2691 13.8946 30.5235 13.7071 30.711C13.5196 30.8986 13.2652 31.0039 13 31.0039H6C5.73478 31.0039 5.48043 30.8986 5.29289 30.711C5.10536 30.5235 5 30.2691 5 30.0039C5 29.7387 5.10536 29.4843 5.29289 29.2968C5.48043 29.1093 5.73478 29.0039 6 29.0039H13ZM29 29.0039C29.2652 29.0039 29.5196 29.1093 29.7071 29.2968C29.8946 29.4843 30 29.7387 30 30.0039C30 30.2691 29.8946 30.5235 29.7071 30.711C29.5196 30.8986 29.2652 31.0039 29 31.0039H18C17.7348 31.0039 17.4804 30.8986 17.2929 30.711C17.1054 30.5235 17 30.2691 17 30.0039C17 29.7387 17.1054 29.4843 17.2929 29.2968C17.4804 29.1093 17.7348 29.0039 18 29.0039H29ZM34 29.0039H40C40.2652 29.0039 40.5196 29.1093 40.7071 29.2968C40.8946 29.4843 41 29.7387 41 30.0039C41 30.2691 40.8946 30.5235 40.7071 30.711C40.5196 30.8986 40.2652 31.0039 40 31.0039H34C33.7348 31.0039 33.4804 30.8986 33.2929 30.711C33.1054 30.5235 33 30.2691 33 30.0039C33 29.7387 33.1054 29.4843 33.2929 29.2968C33.4804 29.1093 33.7348 29.0039 34 29.0039ZM51 30.0039C51 30.2691 50.8946 30.5235 50.7071 30.711C50.5196 30.8986 50.2652 31.0039 50 31.0039H45C44.7348 31.0039 44.4804 30.8986 44.2929 30.711C44.1054 30.5235 44 30.2691 44 30.0039C44 29.7387 44.1054 29.4843 44.2929 29.2968C44.4804 29.1093 44.7348 29.0039 45 29.0039H50C50.2652 29.0039 50.5196 29.1093 50.7071 29.2968C50.8946 29.4843 51 29.7387 51 30.0039ZM10 35.0039C10 35.2691 9.89464 35.5235 9.70711 35.711C9.51957 35.8986 9.26522 36.0039 9 36.0039H6C5.73478 36.0039 5.48043 35.8986 5.29289 35.711C5.10536 35.5235 5 35.2691 5 35.0039C5 34.7387 5.10536 34.4843 5.29289 34.2968C5.48043 34.1093 5.73478 34.0039 6 34.0039H9C9.26522 34.0039 9.51957 34.1093 9.70711 34.2968C9.89464 34.4843 10 34.7387 10 35.0039ZM23 35.0039C23 35.2691 22.8946 35.5235 22.7071 35.711C22.5196 35.8986 22.2652 36.0039 22 36.0039H13C12.7348 36.0039 12.4804 35.8986 12.2929 35.711C12.1054 35.5235 12 35.2691 12 35.0039C12 34.7387 12.1054 34.4843 12.2929 34.2968C12.4804 34.1093 12.7348 34.0039 13 34.0039H22C22.2652 34.0039 22.5196 34.1093 22.7071 34.2968C22.8946 34.4843 23 34.7387 23 35.0039ZM37 35.0039C37 35.2691 36.8946 35.5235 36.7071 35.711C36.5196 35.8986 36.2652 36.0039 36 36.0039H27C26.7348 36.0039 26.4804 35.8986 26.2929 35.711C26.1054 35.5235 26 35.2691 26 35.0039C26 34.7387 26.1054 34.4843 26.2929 34.2968C26.4804 34.1093 26.7348 34.0039 27 34.0039H36C36.2652 34.0039 36.5196 34.1093 36.7071 34.2968C36.8946 34.4843 37 34.7387 37 35.0039ZM51 35.0039C51 35.2691 50.8946 35.5235 50.7071 35.711C50.5196 35.8986 50.2652 36.0039 50 36.0039H40C39.7348 36.0039 39.4804 35.8986 39.2929 35.711C39.1054 35.5235 39 35.2691 39 35.0039C39 34.7387 39.1054 34.4843 39.2929 34.2968C39.4804 34.1093 39.7348 34.0039 40 34.0039H50C50.2652 34.0039 50.5196 34.1093 50.7071 34.2968C50.8946 34.4843 51 34.7387 51 35.0039Z" fill="#1D39C4"/>
</svg>
