<svg width="36" height="32" viewBox="0 0 36 32" fill="none" xmlns="http://www.w3.org/2000/svg">
<path d="M31.4998 0.0810547H4.4998C2.5873 0.0810547 0.956055 1.65605 0.956055 3.6248V28.4311C0.956055 30.3436 2.53105 31.9748 4.4998 31.9748H31.4998C33.4123 31.9748 35.0436 30.3998 35.0436 28.4311V3.56855C35.0436 1.65605 33.4123 0.0810547 31.4998 0.0810547ZM4.4998 2.6123H31.4998C32.0623 2.6123 32.5123 3.0623 32.5123 3.6248V7.11231H3.54355V3.56855C3.54355 3.0623 3.9373 2.6123 4.4998 2.6123ZM31.4998 29.3873H4.4998C3.9373 29.3873 3.4873 28.9373 3.4873 28.3748V9.5873H32.4561V28.3748C32.5123 28.9373 32.0623 29.3873 31.4998 29.3873Z" fill="#023047"/>
<path d="M11.8125 23.8186H11.7562V21.0061C11.7562 20.6686 11.6437 20.3873 11.4187 20.1623L10.575 19.2623L11.4187 18.3623C11.6437 18.1373 11.7562 17.7998 11.7562 17.5186V15.0436H11.8125C12.4875 15.0436 13.1062 14.4811 13.1062 13.7498C13.1062 13.0186 12.5437 12.4561 11.8125 12.4561H10.4625C9.7875 12.4561 9.16875 13.0186 9.16875 13.7498V17.0123L7.93125 18.4186C7.48125 18.9248 7.48125 19.6561 7.93125 20.1061L9.16875 21.5123V25.1123C9.16875 25.7873 9.73125 26.4061 10.4625 26.4061H11.8125C12.4875 26.4061 13.1062 25.8436 13.1062 25.1123C13.1062 24.3811 12.4875 23.8186 11.8125 23.8186Z" fill="#023047"/>
<path d="M26.7748 17.0123V13.7498C26.7748 13.0748 26.2123 12.4561 25.4811 12.4561H24.1873C23.5123 12.4561 22.8936 13.0186 22.8936 13.7498C22.8936 14.4811 23.4561 15.0436 24.1873 15.0436H24.2436V17.5186C24.2436 17.8561 24.3561 18.1373 24.5811 18.3623L25.4248 19.2623L24.5811 20.1623C24.3561 20.3873 24.2436 20.7248 24.2436 21.0061V23.8186H24.1873C23.5123 23.8186 22.8936 24.3811 22.8936 25.1123C22.8936 25.8436 23.4561 26.4061 24.1873 26.4061H25.5373C26.2123 26.4061 26.8311 25.8436 26.8311 25.1123V21.5123L28.0686 20.1061C28.5186 19.5998 28.5186 18.8686 28.0686 18.4186L26.7748 17.0123Z" fill="#023047"/>
</svg>
