<svg width="22" height="24" viewBox="0 0 22 24" fill="none" xmlns="http://www.w3.org/2000/svg">
<path d="M11.2734 7.92871L7.97852 17H6.63184L10.4258 7.04688H11.2939L11.2734 7.92871ZM14.0352 17L10.7334 7.92871L10.7129 7.04688H11.5811L15.3887 17H14.0352ZM13.8643 13.3154V14.3955H8.27246V13.3154H13.8643Z" fill="#4A2D73"/>
<g clip-path="url(#clip0_3462_23128)">
<rect width="14" height="14" transform="translate(4 5)" fill="white"/>
<path d="M16.0808 9.10666C16.3083 8.87916 16.3083 8.49999 16.0808 8.28416L14.7158 6.91916C14.5 6.69166 14.1208 6.69166 13.8933 6.91916L12.82 7.98666L15.0075 10.1742M5.75 15.0625V17.25H7.9375L14.3892 10.7925L12.2017 8.60499L5.75 15.0625Z" fill="black" fill-opacity="0.85"/>
</g>
<defs>
<clipPath id="clip0_3462_23128">
<rect width="14" height="14" fill="white" transform="translate(4 5)"/>
</clipPath>
</defs>
</svg>
