<svg width="12" height="14" viewBox="0 0 12 14" fill="none" xmlns="http://www.w3.org/2000/svg">
<path d="M10.0837 12.2502H3.66699V4.0835H10.0837M10.0837 2.91683H3.66699C3.35757 2.91683 3.06083 3.03975 2.84203 3.25854C2.62324 3.47733 2.50033 3.77408 2.50033 4.0835V12.2502C2.50033 12.5596 2.62324 12.8563 2.84203 13.0751C3.06083 13.2939 3.35757 13.4168 3.66699 13.4168H10.0837C10.3931 13.4168 10.6898 13.2939 10.9086 13.0751C11.1274 12.8563 11.2503 12.5596 11.2503 12.2502V4.0835C11.2503 3.77408 11.1274 3.47733 10.9086 3.25854C10.6898 3.03975 10.3931 2.91683 10.0837 2.91683ZM8.33366 0.583496H1.33366C1.02424 0.583496 0.727493 0.706412 0.508701 0.925205C0.289908 1.144 0.166992 1.44074 0.166992 1.75016V9.91683H1.33366V1.75016H8.33366V0.583496Z" fill="#4A2D73"/>
</svg>
