<svg width="14" height="14" viewBox="0 0 14 14" fill="none" xmlns="http://www.w3.org/2000/svg">
<path fill-rule="evenodd" clip-rule="evenodd" d="M9.0127 1.9252H10.6971C11.3314 1.9252 11.8564 2.4502 11.8564 3.0627V3.71895C11.8564 4.17832 11.5721 4.59395 11.1564 4.76895L10.7846 12.0314C10.7408 12.9283 9.99707 13.6283 9.10019 13.6283H4.85645C3.95957 13.6283 3.21582 12.9283 3.17207 12.0314L2.82207 4.79082C2.40645 4.61582 2.12207 4.22207 2.12207 3.74082V3.08457C2.12207 2.4502 2.64707 1.9252 3.28145 1.9252H4.96582V1.55332C4.96582 0.89707 5.49082 0.37207 6.14707 0.37207H7.83145C8.4877 0.37207 9.0127 0.89707 9.0127 1.55332V1.9252ZM6.16895 1.35645C6.05957 1.35645 5.97207 1.44395 5.97207 1.55332H5.99395V1.9252H8.0502V1.55332C8.0502 1.44395 7.9627 1.35645 7.85332 1.35645H6.16895ZM3.30332 2.90957C3.19395 2.90957 3.12832 2.99707 3.12832 3.08457V3.74082C3.12832 3.8502 3.21582 3.91582 3.30332 3.91582H10.6971C10.8064 3.91582 10.8721 3.82832 10.8721 3.74082V3.08457C10.8721 2.9752 10.7846 2.90957 10.6971 2.90957H3.30332ZM4.17832 11.9658C4.2002 12.3596 4.50645 12.6439 4.87832 12.6439H9.12207C9.49395 12.6439 9.8002 12.3377 9.84395 11.9658L10.1721 4.87832H3.8502L4.17832 11.9658ZM6.49707 7.59082C6.49707 7.30645 6.7377 7.0877 7.0002 7.0877C7.2627 7.0877 7.50332 7.30645 7.50332 7.59082V10.3689C7.50332 10.6533 7.2627 10.8721 7.0002 10.8721C6.71582 10.8721 6.49707 10.6314 6.49707 10.3689V7.59082ZM8.7502 7.5252C8.46582 7.50332 8.24707 7.7002 8.2252 7.98457L8.09395 9.90957C8.07207 10.1721 8.26895 10.4127 8.55332 10.4346H8.59707C8.85957 10.4346 9.07832 10.2377 9.07832 9.97519L9.20957 8.0502C9.20957 7.76582 9.0127 7.54707 8.7502 7.5252ZM4.76895 8.0502C4.74707 7.78769 4.96582 7.54707 5.22832 7.5252C5.5127 7.50332 5.75332 7.7002 5.75332 7.98457L5.90645 9.90957C5.92832 10.1721 5.70957 10.4127 5.44707 10.4346H5.40332C5.1627 10.4346 4.94395 10.2377 4.92207 9.97519L4.76895 8.0502Z" fill="white"/>
</svg>
