<svg width="14" height="12" viewBox="0 0 14 12" fill="none" xmlns="http://www.w3.org/2000/svg">
<path fill-rule="evenodd" clip-rule="evenodd" d="M7.0002 8.73555C6.86895 8.73555 6.7377 8.6918 6.6502 8.6043L3.5002 5.56367C3.3252 5.3668 3.30332 5.06055 3.5002 4.86367C3.69707 4.68867 4.00332 4.6668 4.2002 4.86367L6.49707 7.09492V0.641797C6.49707 0.357422 6.7377 0.138672 7.0002 0.138672C7.28457 0.138672 7.50332 0.379297 7.50332 0.641797V7.09492L9.8002 4.8418C9.99707 4.6668 10.3033 4.6668 10.5002 4.86367C10.6752 5.06055 10.6752 5.3668 10.4783 5.56367L7.35019 8.6043C7.24082 8.6918 7.13145 8.73555 7.0002 8.73555ZM12.6221 8.58242C12.6221 8.29805 12.8627 8.0793 13.1252 8.0793C13.3877 8.0793 13.6283 8.29805 13.6064 8.58242V10.5293C13.6064 11.273 13.0158 11.8637 12.2721 11.8637H1.70645C0.962695 11.8637 0.37207 11.273 0.37207 10.5293V8.58242C0.37207 8.29805 0.59082 8.0793 0.875195 8.0793C1.15957 8.0793 1.37832 8.31992 1.37832 8.58242V10.5293C1.37832 10.7262 1.53145 10.8793 1.72832 10.8793H12.2721C12.4689 10.8793 12.6221 10.7262 12.6221 10.5293V8.58242Z" fill="#FB8500"/>
</svg>
