<svg width="14" height="14" viewBox="0 0 14 14" fill="none" xmlns="http://www.w3.org/2000/svg">
<path d="M13.3875 2.84404C12.6875 2.10029 11.9438 1.35654 11.2 0.634668C11.0469 0.481543 10.8719 0.394043 10.675 0.394043C10.4781 0.394043 10.2813 0.459668 10.15 0.612793L1.90313 8.79404C1.77188 8.92529 1.68438 9.07842 1.61876 9.23154L0.41563 12.9065C0.350005 13.0815 0.393755 13.2565 0.481255 13.3878C0.59063 13.519 0.743755 13.6065 0.94063 13.6065H1.02813L4.76875 12.3597C4.94376 12.294 5.09688 12.2065 5.20625 12.0753L13.4094 3.89404C13.5406 3.76279 13.6281 3.56592 13.6281 3.36904C13.6281 3.17217 13.5406 2.99717 13.3875 2.84404ZM4.50626 11.3972C4.48438 11.419 4.46251 11.419 4.44063 11.4409L1.61876 12.3815L2.55938 9.55967C2.55938 9.53779 2.58126 9.51592 2.60313 9.49404L8.61876 3.50029L10.5219 5.40342L4.50626 11.3972ZM11.2 4.70342L9.29688 2.80029L10.6313 1.46592C11.2656 2.07842 11.9 2.73467 12.5125 3.36904L11.2 4.70342Z" fill="#637381"/>
</svg>
