<svg width="200" height="195" viewBox="0 0 200 195" fill="none" xmlns="http://www.w3.org/2000/svg">
<g clip-path="url(#clip0_2438_68558)">
<path d="M126.969 43.8515H73.0775C71.8494 43.853 70.6721 44.341 69.8037 45.2083C68.9353 46.0757 68.4468 47.2517 68.4453 48.4784V168.114L67.8277 168.303L54.6073 172.346C53.9807 172.537 53.304 172.472 52.7256 172.165C52.1472 171.858 51.7144 171.334 51.5223 170.709L12.1976 42.4048C12.0063 41.779 12.0715 41.1029 12.379 40.525C12.6865 39.9472 13.2111 39.515 13.8375 39.3233L34.2101 33.0924L93.271 15.0352L113.643 8.80434C113.954 8.70903 114.279 8.67573 114.602 8.70633C114.925 8.73694 115.239 8.83085 115.525 8.9827C115.812 9.13455 116.066 9.34135 116.272 9.59127C116.479 9.84119 116.634 10.1293 116.729 10.4392L126.78 43.2346L126.969 43.8515Z" fill="#F2F2F2"/>
<path d="M138.728 43.2354L126.613 3.70944C126.412 3.05086 126.082 2.43841 125.644 1.90708C125.205 1.37575 124.666 0.935961 124.057 0.612836C123.448 0.289712 122.781 0.0895849 122.095 0.0238988C121.409 -0.0417872 120.716 0.0282549 120.057 0.230015L91.4145 8.98718L32.3567 27.0475L3.71411 35.8077C2.38352 36.2158 1.26941 37.1346 0.616305 38.3624C-0.0367959 39.5901 -0.175524 41.0265 0.230578 42.3563L41.6366 177.44C41.9665 178.513 42.6321 179.453 43.5359 180.121C44.4396 180.789 45.5338 181.15 46.658 181.151C47.1783 181.151 47.6957 181.073 48.1927 180.919L67.8272 174.917L68.4448 174.726V174.081L67.8272 174.269L48.0106 180.33C46.8361 180.688 45.5675 180.566 44.4832 179.99C43.3989 179.415 42.5873 178.433 42.2265 177.261L0.823631 42.1743C0.644854 41.5935 0.582546 40.9831 0.640271 40.3782C0.697997 39.7732 0.874618 39.1856 1.16003 38.6489C1.44544 38.1123 1.83404 37.6371 2.30357 37.2507C2.77309 36.8642 3.31431 36.5741 3.89625 36.3969L32.5389 27.6366L91.5968 9.57943L120.239 0.819179C120.681 0.684629 121.14 0.616024 121.601 0.615595C122.592 0.617816 123.555 0.936749 124.351 1.52568C125.147 2.11461 125.733 2.94259 126.024 3.88835L138.083 43.2354L138.274 43.8524H138.917L138.728 43.2354Z" fill="#3F3D56"/>
<path d="M37.8858 39.4255C37.2905 39.4251 36.7111 39.2341 36.2325 38.8807C35.7539 38.5273 35.4013 38.0299 35.2264 37.4616L31.2488 24.4842C31.1419 24.1356 31.1048 23.7694 31.1396 23.4065C31.1745 23.0436 31.2805 22.691 31.4518 22.3691C31.623 22.0471 31.8561 21.762 32.1376 21.53C32.4192 21.298 32.7438 21.1237 33.0928 21.017L87.4254 4.40224C88.1303 4.18741 88.8916 4.26068 89.5424 4.60597C90.1933 4.95126 90.6803 5.54035 90.8968 6.24396L94.8744 19.2216C95.0894 19.9256 95.0159 20.686 94.6703 21.336C94.3246 21.9861 93.7349 22.4726 93.0306 22.6889L38.6977 39.3036C38.4346 39.3843 38.161 39.4254 37.8858 39.4255Z" fill="#FB8500"/>
<path d="M58.7232 13.8696C62.1343 13.8696 64.8995 11.1076 64.8995 7.70044C64.8995 4.29329 62.1343 1.53125 58.7232 1.53125C55.3121 1.53125 52.5469 4.29329 52.5469 7.70044C52.5469 11.1076 55.3121 13.8696 58.7232 13.8696Z" fill="#FB8500"/>
<path d="M58.7216 11.6021C60.8816 11.6021 62.6326 9.8531 62.6326 7.69558C62.6326 5.53807 60.8816 3.78906 58.7216 3.78906C56.5616 3.78906 54.8105 5.53807 54.8105 7.69558C54.8105 9.8531 56.5616 11.6021 58.7216 11.6021Z" fill="white"/>
<path d="M186.104 179.576H81.7245C81.0286 179.575 80.3614 179.299 79.8693 178.807C79.3772 178.316 79.1004 177.649 79.0996 176.954V52.0282C79.1004 51.333 79.3772 50.6666 79.8693 50.175C80.3614 49.6835 81.0286 49.407 81.7245 49.4062H186.104C186.8 49.4071 187.467 49.6835 187.959 50.1751C188.451 50.6666 188.728 51.333 188.729 52.0282V176.954C188.728 177.649 188.451 178.316 187.959 178.807C187.467 179.299 186.8 179.575 186.104 179.576Z" fill="#E6E6E6"/>
<path d="M138.082 43.2344H73.076C71.6843 43.2363 70.3501 43.7894 69.366 44.7724C68.3819 45.7554 67.8281 47.088 67.8262 48.4782V174.268L68.4438 174.08V48.4782C68.4453 47.2515 68.9338 46.0755 69.8022 45.2081C70.6706 44.3407 71.8479 43.8528 73.076 43.8513H138.273L138.082 43.2344ZM194.749 43.2344H73.076C71.6843 43.2363 70.3501 43.7894 69.366 44.7724C68.3819 45.7554 67.8281 47.088 67.8262 48.4782V189.753C67.8281 191.143 68.3819 192.475 69.366 193.458C70.3501 194.441 71.6843 194.994 73.076 194.996H194.749C196.141 194.994 197.475 194.441 198.459 193.458C199.443 192.475 199.997 191.143 199.999 189.753V48.4782C199.997 47.088 199.443 45.7554 198.459 44.7724C197.475 43.7894 196.141 43.2363 194.749 43.2344ZM199.382 189.753C199.38 190.979 198.892 192.155 198.023 193.023C197.155 193.89 195.977 194.378 194.749 194.38H73.076C71.8479 194.378 70.6706 193.89 69.8022 193.023C68.9338 192.155 68.4453 190.979 68.4438 189.753V48.4782C68.4453 47.2515 68.9338 46.0755 69.8022 45.2081C70.6706 44.3407 71.8479 43.8528 73.076 43.8513H194.749C195.977 43.8528 197.155 44.3407 198.023 45.2081C198.892 46.0755 199.38 47.2515 199.382 48.4782V189.753Z" fill="#3F3D56"/>
<path d="M162.324 56.812H105.502C104.765 56.8112 104.059 56.5184 103.538 55.998C103.017 55.4775 102.723 54.7719 102.723 54.0359V40.4636C102.723 39.7276 103.017 39.022 103.538 38.5015C104.059 37.9811 104.765 37.6883 105.502 37.6875H162.324C163.061 37.6883 163.767 37.9811 164.288 38.5015C164.809 39.022 165.103 39.7276 165.103 40.4636V54.0359C165.103 54.7719 164.809 55.4775 164.288 55.998C163.767 56.5184 163.061 56.8112 162.324 56.812Z" fill="#FB8500"/>
<path d="M133.913 38.6118C137.324 38.6118 140.089 35.8498 140.089 32.4426C140.089 29.0355 137.324 26.2734 133.913 26.2734C130.502 26.2734 127.736 29.0355 127.736 32.4426C127.736 35.8498 130.502 38.6118 133.913 38.6118Z" fill="#FB8500"/>
<path d="M133.914 36.2027C135.992 36.2027 137.676 34.5204 137.676 32.4451C137.676 30.3698 135.992 28.6875 133.914 28.6875C131.837 28.6875 130.152 30.3698 130.152 32.4451C130.152 34.5204 131.837 36.2027 133.914 36.2027Z" fill="white"/>
</g>
<defs>
<clipPath id="clip0_2438_68558">
<rect width="200" height="195" fill="white"/>
</clipPath>
</defs>
</svg>
