<svg width="56" height="44" viewBox="0 0 56 44" fill="none" xmlns="http://www.w3.org/2000/svg">
<path d="M54 0H2C1.46978 0.000687948 0.96147 0.211622 0.586546 0.586546C0.211623 0.96147 0.000687948 1.46978 0 2V42C0.000687948 42.5302 0.211623 43.0385 0.586546 43.4135C0.96147 43.7884 1.46978 43.9993 2 44H54C54.5302 43.9993 55.0385 43.7884 55.4135 43.4135C55.7884 43.0385 55.9993 42.5302 56 42V2C55.9993 1.46978 55.7884 0.96147 55.4135 0.586546C55.0385 0.211622 54.5302 0.000687948 54 0ZM2 2H54V8H2V2ZM2 42V10H54L54.0016 42H2ZM52 5C52 5.19778 51.9414 5.39112 51.8315 5.55557C51.7216 5.72002 51.5654 5.84819 51.3827 5.92388C51.2 5.99957 50.9989 6.01937 50.8049 5.98079C50.6109 5.9422 50.4327 5.84696 50.2929 5.70711C50.153 5.56725 50.0578 5.38907 50.0192 5.19509C49.9806 5.00111 50.0004 4.80004 50.0761 4.61732C50.1518 4.43459 50.28 4.27841 50.4444 4.16853C50.6089 4.05865 50.8022 4 51 4C51.2652 4 51.5196 4.10536 51.7071 4.29289C51.8946 4.48043 52 4.73478 52 5ZM17 5C17.0001 5.13134 16.9743 5.26142 16.924 5.38278C16.8738 5.50414 16.8002 5.61441 16.7073 5.70728C16.6144 5.80016 16.5041 5.87381 16.3828 5.92404C16.2614 5.97427 16.1313 6.00008 16 6H5C4.73478 6 4.48043 5.89464 4.29289 5.70711C4.10536 5.51957 4 5.26522 4 5C4 4.73478 4.10536 4.48043 4.29289 4.29289C4.48043 4.10536 4.73478 4 5 4H16C16.1313 3.99992 16.2614 4.02573 16.3828 4.07596C16.5041 4.12619 16.6144 4.19984 16.7073 4.29272C16.8002 4.38559 16.8738 4.49586 16.924 4.61722C16.9743 4.73858 17.0001 4.86866 17 5ZM28 14H6C5.86866 13.9999 5.73858 14.0257 5.61722 14.076C5.49586 14.1262 5.38559 14.1998 5.29272 14.2927C5.19984 14.3856 5.12619 14.4959 5.07596 14.6172C5.02573 14.7386 4.99992 14.8687 5 15V35C4.99992 35.1313 5.02573 35.2614 5.07596 35.3828C5.12619 35.5041 5.19984 35.6144 5.29272 35.7073C5.38559 35.8002 5.49586 35.8738 5.61722 35.924C5.73858 35.9743 5.86866 36.0001 6 36H28C28.1313 36.0001 28.2614 35.9743 28.3828 35.924C28.5041 35.8738 28.6144 35.8002 28.7073 35.7073C28.8002 35.6144 28.8738 35.5041 28.924 35.3828C28.9743 35.2614 29.0001 35.1313 29 35V15C29.0001 14.8687 28.9743 14.7386 28.924 14.6172C28.8738 14.4959 28.8002 14.3856 28.7073 14.2927C28.6144 14.1998 28.5041 14.1262 28.3828 14.076C28.2614 14.0257 28.1313 13.9999 28 14ZM27 16V31.1315L22.5547 28.168C22.3973 28.0626 22.2131 28.0042 22.0237 27.9997C21.8344 27.9952 21.6476 28.0448 21.4854 28.1426L17.1554 30.7409L12.707 26.293C12.5305 26.1166 12.2944 26.0125 12.0451 26.0011C11.7957 25.9897 11.5512 26.0719 11.3593 26.2315L7 29.8643V16H27ZM7 32.469L11.9385 28.3525L17.5859 34H7V32.469ZM20.4141 34L18.6126 32.1985L21.9717 30.1826L27 33.5352V34H20.4141ZM19 25C19.5933 25 20.1734 24.8241 20.6667 24.4944C21.1601 24.1648 21.5446 23.6962 21.7716 23.148C21.9987 22.5999 22.0581 21.9967 21.9424 21.4147C21.8266 20.8328 21.5409 20.2982 21.1213 19.8787C20.7018 19.4591 20.1672 19.1734 19.5853 19.0576C19.0033 18.9419 18.4001 19.0013 17.8519 19.2284C17.3038 19.4554 16.8352 19.8399 16.5056 20.3333C16.1759 20.8266 16 21.4067 16 22C16.0009 22.7954 16.3172 23.5579 16.8796 24.1204C17.4421 24.6828 18.2046 24.9991 19 25ZM19 21C19.1978 21 19.3911 21.0586 19.5556 21.1685C19.72 21.2784 19.8482 21.4346 19.9239 21.6173C19.9996 21.8 20.0194 22.0011 19.9808 22.1951C19.9422 22.3891 19.847 22.5673 19.7071 22.7071C19.5673 22.847 19.3891 22.9422 19.1951 22.9808C19.0011 23.0194 18.8 22.9996 18.6173 22.9239C18.4346 22.8482 18.2784 22.72 18.1685 22.5556C18.0586 22.3911 18 22.1978 18 22C18.0002 21.7348 18.1056 21.4806 18.2931 21.2931C18.4806 21.1056 18.7348 21.0002 19 21ZM34 25H40C40.1313 25.0001 40.2614 24.9743 40.3828 24.924C40.5041 24.8738 40.6144 24.8002 40.7073 24.7073C40.8002 24.6144 40.8738 24.5041 40.924 24.3828C40.9743 24.2614 41.0001 24.1313 41 24V15C41.0001 14.8687 40.9743 14.7386 40.924 14.6172C40.8738 14.4959 40.8002 14.3856 40.7073 14.2927C40.6144 14.1998 40.5041 14.1262 40.3828 14.076C40.2614 14.0257 40.1313 13.9999 40 14H34C33.8687 13.9999 33.7386 14.0257 33.6172 14.076C33.4959 14.1262 33.3856 14.1998 33.2927 14.2927C33.1998 14.3856 33.1262 14.4959 33.076 14.6172C33.0257 14.7386 32.9999 14.8687 33 15V24C32.9999 24.1313 33.0257 24.2614 33.076 24.3828C33.1262 24.5041 33.1998 24.6144 33.2927 24.7073C33.3856 24.8002 33.4959 24.8738 33.6172 24.924C33.7386 24.9743 33.8687 25.0001 34 25ZM35 16H39V23H35V16ZM50 27H34C33.8687 26.9999 33.7386 27.0257 33.6172 27.076C33.4959 27.1262 33.3856 27.1998 33.2927 27.2927C33.1998 27.3856 33.1262 27.4959 33.076 27.6172C33.0257 27.7386 32.9999 27.8687 33 28V35C32.9999 35.1313 33.0257 35.2614 33.076 35.3828C33.1262 35.5041 33.1998 35.6144 33.2927 35.7073C33.3856 35.8002 33.4959 35.8738 33.6172 35.924C33.7386 35.9743 33.8687 36.0001 34 36H50C50.1313 36.0001 50.2614 35.9743 50.3828 35.924C50.5041 35.8738 50.6144 35.8002 50.7073 35.7073C50.8002 35.6144 50.8738 35.5041 50.924 35.3828C50.9743 35.2614 51.0001 35.1313 51 35V28C51.0001 27.8687 50.9743 27.7386 50.924 27.6172C50.8738 27.4959 50.8002 27.3856 50.7073 27.2927C50.6144 27.1998 50.5041 27.1262 50.3828 27.076C50.2614 27.0257 50.1313 26.9999 50 27ZM49 34H35V29H49V34ZM43 16C42.9999 15.8687 43.0257 15.7386 43.076 15.6172C43.1262 15.4959 43.1998 15.3856 43.2927 15.2927C43.3856 15.1998 43.4959 15.1262 43.6172 15.076C43.7386 15.0257 43.8687 14.9999 44 15H46C46.2652 15 46.5196 15.1054 46.7071 15.2929C46.8946 15.4804 47 15.7348 47 16C47 16.2652 46.8946 16.5196 46.7071 16.7071C46.5196 16.8946 46.2652 17 46 17H44C43.8687 17.0001 43.7386 16.9743 43.6172 16.924C43.4959 16.8738 43.3856 16.8002 43.2927 16.7073C43.1998 16.6144 43.1262 16.5041 43.076 16.3828C43.0257 16.2614 42.9999 16.1313 43 16ZM51 20C51.0001 20.1313 50.9743 20.2614 50.924 20.3828C50.8738 20.5041 50.8002 20.6144 50.7073 20.7073C50.6144 20.8002 50.5041 20.8738 50.3828 20.924C50.2614 20.9743 50.1313 21.0001 50 21H44C43.7348 21 43.4804 20.8946 43.2929 20.7071C43.1054 20.5196 43 20.2652 43 20C43 19.7348 43.1054 19.4804 43.2929 19.2929C43.4804 19.1054 43.7348 19 44 19H50C50.1313 18.9999 50.2614 19.0257 50.3828 19.076C50.5041 19.1262 50.6144 19.1998 50.7073 19.2927C50.8002 19.3856 50.8738 19.4959 50.924 19.6172C50.9743 19.7386 51.0001 19.8687 51 20ZM51 24C51.0001 24.1313 50.9743 24.2614 50.924 24.3828C50.8738 24.5041 50.8002 24.6144 50.7073 24.7073C50.6144 24.8002 50.5041 24.8738 50.3828 24.924C50.2614 24.9743 50.1313 25.0001 50 25H44C43.7348 25 43.4804 24.8946 43.2929 24.7071C43.1054 24.5196 43 24.2652 43 24C43 23.7348 43.1054 23.4804 43.2929 23.2929C43.4804 23.1054 43.7348 23 44 23H50C50.1313 22.9999 50.2614 23.0257 50.3828 23.076C50.5041 23.1262 50.6144 23.1998 50.7073 23.2927C50.8002 23.3856 50.8738 23.4959 50.924 23.6172C50.9743 23.7386 51.0001 23.8687 51 24Z" fill="#08979C"/>
</svg>
