<svg width="349" height="300" viewBox="0 0 349 300" fill="none" xmlns="http://www.w3.org/2000/svg">
<path d="M291.744 176.959C291.694 202.254 282.184 226.614 265.084 245.253C247.983 263.891 224.53 275.458 199.333 277.68C174.137 279.902 149.02 272.618 128.922 257.261C108.823 241.904 95.1964 219.583 90.7204 194.688C86.2443 169.793 91.2428 144.124 104.733 122.728C118.223 101.331 139.23 85.7549 163.622 79.0612C188.015 72.3675 214.029 75.0405 236.551 86.5547C259.072 98.0689 276.472 117.591 285.329 141.284C285.55 141.879 285.766 142.474 285.975 143.075V143.08C286.91 145.721 287.734 148.411 288.446 151.149C290.642 159.577 291.751 168.251 291.744 176.959Z" fill="#4A2D73"/>
<path d="M178.591 108.147C174.007 105.668 168.918 104.269 163.712 104.056C158.505 103.843 153.319 104.822 148.548 106.918C144.348 108.746 139.925 112.025 138.523 117.947C144.191 114.602 151.527 119.887 152.985 128.364L152.645 128.458C151.875 134.33 153.594 140.723 156.923 144.364C157.171 142.721 157.781 141.154 158.71 139.777C159.639 138.399 160.863 137.246 162.293 136.4C164.739 134.792 167.445 133.624 169.311 130.861C171.525 127.584 172.087 122.796 172.966 118.427C173.845 114.059 175.513 109.364 178.591 108.147Z" fill="#BE4BDE"/>
<path d="M146.867 158.113C145.297 160.471 143.201 161.95 141.32 163.791C139.148 165.767 137.723 168.43 137.285 171.333C137.047 173.384 137.416 175.469 137.364 177.543C137.314 179.617 136.622 181.952 135.211 182.467C132.984 183.272 131.285 179.135 128.995 178.846C127.176 178.62 125.539 181.481 126.066 183.963C126.593 186.445 129.069 187.544 130.491 185.924C131.778 188.083 130.871 191.998 128.939 192.661C128.735 194.021 128.531 195.375 128.332 196.735C123.448 193.318 118.513 189.845 114.359 184.841C109.74 179.324 106.875 172.552 106.132 165.395C105.593 159.643 106.392 153.065 103.752 148.639C101.638 145.098 98.0119 144.316 94.7481 144.537C94.1531 144.577 93.5526 144.644 92.9575 144.718C94.8823 138.937 97.3269 133.342 100.261 128.002C100.925 127.717 101.542 127.333 102.092 126.864C105.129 124.285 106.477 119.067 108.942 115.457C109.101 115.225 109.265 114.998 109.435 114.777C111.957 111.485 115.334 109.791 118.598 108.216C125.822 104.708 133.256 101.155 140.883 101.643L138.713 101.852C136.18 108.947 133.645 116.041 131.109 123.135C130.723 124.223 130.334 125.313 129.942 126.405C128.502 130.439 127.018 134.734 127.239 139.25C127.369 141.925 128.298 144.781 130.066 145.698C131.715 146.548 133.517 145.506 135.109 144.474C135.783 144.044 136.452 143.613 137.126 143.177C139.546 141.619 142.226 140.021 144.782 141.063C147.122 142.015 148.85 145.194 149.179 148.622C149.48 151.955 148.667 155.293 146.867 158.113Z" fill="#BE4BDE"/>
<path d="M161.257 206.549C154.191 202.198 147.124 197.847 140.058 193.496L140.177 193.188C135.784 194.861 133.96 202.671 134.686 209.058C135.412 215.444 137.874 221.154 139.118 227.377C140.795 235.893 140.162 244.703 137.285 252.892C146.577 242.466 154.8 231.134 161.831 219.068C162.813 217.547 163.562 215.887 164.052 214.144C164.57 212.287 164.385 210.303 163.532 208.573C162.954 207.72 162.172 207.024 161.257 206.549Z" fill="#BE4BDE"/>
<path d="M133.368 127.392C132.538 129.174 132.411 131.203 133.01 133.075C133.707 134.583 134.972 135.754 136.529 136.334L140.434 138.269C141.733 138.913 143.133 139.564 144.457 139.034C146.054 138.395 147.161 135.891 146.875 133.566C146.57 131.093 145.011 129.391 143.569 127.942C141.551 125.915 139.533 123.887 137.515 121.859L136.377 123.252C135.147 124.452 134.13 125.852 133.368 127.392Z" fill="#BE4BDE"/>
<path d="M270.812 153.836C272.569 154.25 274.325 154.664 276.082 155.077C275.776 161.01 272.835 166.501 268.891 168.489C267.248 169.317 265.418 169.623 264.058 171.17C262.828 172.575 262.205 174.762 261.633 176.853C260.63 180.502 259.627 184.151 258.624 187.8C257.547 191.733 256.165 196.101 253.366 197.518C250.963 198.736 248.215 197.246 246.368 194.747C244.52 192.248 243.393 188.888 242.299 185.613C242.367 189.183 240.707 192.685 238.355 193.926C235.998 195.166 233.131 194.045 231.556 191.274C230.423 189.285 229.952 186.661 228.842 184.644C227.731 182.627 225.402 181.471 224.19 183.364C223.391 184.622 223.493 186.548 223.096 188.146C222.896 189.207 222.371 190.179 221.593 190.928C220.815 191.676 219.823 192.163 218.756 192.322C217.774 192.3 216.807 192.077 215.913 191.669C215.02 191.261 214.219 190.675 213.56 189.948C210.09 186.398 207.831 181.843 207.106 176.932C206.614 174.578 206.676 172.142 207.287 169.815C207.984 167.611 209.667 165.911 211.338 166.331C212.438 164.007 210.268 160.925 208.313 161.197C206.352 161.469 204.816 163.571 203.207 165.186C201.604 166.801 199.36 167.974 197.745 166.37C197.781 166.957 197.583 167.534 197.193 167.974C196.804 168.414 196.256 168.682 195.669 168.718C195.611 168.722 195.553 168.723 195.495 168.722C194.422 168.414 193.424 167.885 192.566 167.169C188.866 164.863 184.168 166.393 181.539 170.756C183.182 163.764 185.591 155.74 190.639 154.097C192.702 153.423 194.951 153.978 196.901 152.811C200.351 150.743 201.048 142.929 198.068 139.705C198.447 142.753 198.374 146.311 196.765 148.397C195.155 150.482 191.778 149.122 191.982 146.039C191.936 146.473 191.755 146.881 191.463 147.205C191.171 147.529 190.784 147.752 190.358 147.842C189.931 147.933 189.487 147.886 189.089 147.709C188.691 147.532 188.359 147.233 188.14 146.855C187.07 145.224 187.16 142.555 187.92 140.605C188.702 138.84 189.825 137.246 191.223 135.914C193.914 133.03 196.646 130.111 199.762 128.298C202.884 126.485 206.488 125.873 209.616 127.675C211.265 128.627 212.715 130.213 214.398 131.052C214.794 131.297 215.234 131.463 215.693 131.538C216.152 131.613 216.622 131.597 217.075 131.491C217.528 131.385 217.956 131.191 218.334 130.919C218.712 130.648 219.033 130.305 219.278 129.909C219.297 129.879 219.316 129.848 219.334 129.817C220.586 127.618 219.997 124.354 220.461 121.606C221.294 116.75 226.15 114.478 228.842 117.685C226.83 117.17 224.751 119.549 224.501 122.434C224.246 125.318 225.703 128.23 227.652 129.103C230.927 130.553 234.134 126.904 236.61 123.527C239.194 119.991 241.782 116.457 244.373 112.926C244.787 112.324 245.251 111.759 245.761 111.237C246.573 110.446 247.655 109.993 248.788 109.97C249.921 109.947 251.021 110.355 251.864 111.112C254.482 113.248 255.711 117.629 257.859 120.643C260.975 125.023 265.639 126.088 269.979 126.938C273.215 127.567 276.452 128.2 279.691 128.836C281.851 132.854 283.734 137.013 285.329 141.286C279.389 143.994 274.351 148.35 270.812 153.836Z" fill="#BE4BDE"/>
<path d="M281.272 222.012C278.845 226.941 276.021 231.665 272.829 236.138C270.79 235.265 268.597 236.824 266.687 238.286C264.693 239.816 262.296 241.306 260.25 239.912C258.159 238.484 257.485 234.489 258.148 231.322C258.91 228.4 260.243 225.657 262.069 223.253C263.769 220.714 265.588 218.079 267.951 217.094C270.319 216.108 273.362 217.502 274.053 220.867L275.731 220.811C274.79 219.519 275.283 216.844 276.547 216.374C278.003 215.824 279.266 217.824 280.128 219.592C280.513 220.391 280.904 221.196 281.272 222.012Z" fill="#BE4BDE"/>
<path d="M217.036 198.08C213.43 198.307 210.575 193.869 208.677 189.503C206.78 185.137 205.048 180.144 201.795 177.922C199.937 176.652 197.818 176.478 195.802 175.862C194.658 175.573 193.6 175.016 192.715 174.237C191.83 173.458 191.143 172.479 190.712 171.381L188.425 170.457C185.226 172.056 182.296 174.145 179.742 176.648C176.823 179.748 175.005 183.723 174.568 187.959C174.131 192.536 175.745 197.64 178.759 199.36C181.141 200.719 183.913 199.862 186.326 201.106C189.34 202.66 191.13 207.174 191.807 211.632C192.484 216.089 192.313 220.721 192.797 225.229C193.282 229.737 194.618 234.428 197.382 236.738C200.841 239.629 205.917 237.227 207.469 231.965C208.23 229.383 208.204 226.471 208.773 223.791C209.776 219.072 212.481 215.571 214.627 211.701C216.773 207.83 218.463 202.573 217.036 198.08Z" fill="#BE4BDE"/>
<path d="M181.412 151.708C181.748 152.018 182.062 152.351 182.351 152.705C182.65 153.22 182.802 153.808 182.792 154.404C182.782 154.999 182.609 155.581 182.293 156.086C182.727 156.061 183.152 155.947 183.539 155.75C183.927 155.553 184.27 155.277 184.546 154.941C185.204 154.192 185.782 153.376 186.273 152.508C186.504 152.211 186.668 151.868 186.756 151.502C186.844 151.136 186.853 150.755 186.782 150.386C186.612 149.9 186.209 149.692 185.927 149.327C185.535 148.612 185.268 147.836 185.137 147.032C184.98 146.278 184.617 145.583 184.087 145.025C183.557 144.467 182.882 144.067 182.137 143.871L182.318 143.906C182.01 144.088 181.768 144.362 181.624 144.69C181.48 145.017 181.442 145.381 181.515 145.731C181.625 146.438 182.079 147.025 182.034 147.746C181.969 148.783 180.932 149.27 180.868 150.307C180.858 150.828 181.054 151.331 181.412 151.708Z" fill="#BE4BDE"/>
<path d="M175.235 134.089L175.251 134.086C175.362 133.984 175.465 133.875 175.559 133.758L175.235 134.089Z" fill="#BE4BDE"/>
<path d="M176.316 138.958C176.749 138.578 177.07 138.086 177.242 137.536C177.415 136.987 177.433 136.4 177.295 135.841C177.033 134.662 176.106 133.869 175.251 134.087C175.003 134.338 174.695 134.523 174.356 134.622C174.018 134.722 173.659 134.734 173.314 134.657C172.786 134.521 172.205 134.17 171.747 134.569C171.485 134.866 171.301 135.225 171.213 135.611C171.043 136.132 170.874 136.653 170.704 137.174C170.623 137.36 170.602 137.567 170.644 137.766C170.676 137.846 170.729 137.916 170.796 137.969C170.863 138.023 170.943 138.058 171.028 138.072L174.083 138.972C174.433 139.134 174.815 139.216 175.201 139.214C175.587 139.211 175.968 139.124 176.316 138.958Z" fill="#BE4BDE"/>
<path d="M253.175 206.157C252.705 205.387 252.234 204.616 251.763 203.846C251.301 202.954 250.669 202.16 249.903 201.51C249.568 201.229 249.135 201.093 248.699 201.131C248.264 201.17 247.861 201.38 247.581 201.715L247.556 201.745L247.613 202.185C248.874 203.536 249.732 205.211 250.093 207.023C250.2 207.811 250.163 208.626 250.257 209.417C250.267 209.783 250.349 210.144 250.499 210.479C250.648 210.814 250.863 211.117 251.129 211.369C251.87 211.864 252.74 211.134 253.268 210.243C253.739 209.511 253.951 208.643 253.868 207.776C253.751 207.195 253.515 206.644 253.175 206.157Z" fill="#BE4BDE"/>
<path d="M260.558 207.16C260.648 206.438 260.589 205.706 260.386 205.009C260.352 204.064 260.602 203.132 261.104 202.331C261.603 201.576 261.981 200.748 262.224 199.876C262.326 199.479 262.308 199.061 262.17 198.674C262.014 198.324 261.637 198.165 261.421 198.442L261.884 198.74C261.258 198.629 260.616 198.66 260.004 198.831C259.655 198.965 259.344 199.18 259.096 199.46C258.848 199.739 258.671 200.075 258.58 200.437C258.503 201.002 258.378 201.559 258.206 202.103C257.93 202.671 257.395 202.86 257.059 203.358C256.83 203.8 256.714 204.292 256.722 204.79C256.731 205.288 256.863 205.775 257.106 206.209C257.528 206.919 258.199 207.447 258.989 207.69C259.554 207.893 260.299 207.903 260.558 207.16Z" fill="#BE4BDE"/>
<path d="M273.705 211.127C273.909 211.659 274.183 212.162 274.52 212.622C275.149 213.256 276.004 212.866 276.768 212.712C277.461 212.603 278.171 212.683 278.822 212.944C279.473 213.205 280.041 213.638 280.466 214.196C280.17 212.719 279.524 211.334 278.582 210.159C277.64 208.984 276.429 208.052 275.052 207.441C273.263 206.822 271.378 206.527 269.485 206.571L269.161 206.653C269.985 209.052 272.573 208.998 273.705 211.127Z" fill="#BE4BDE"/>
<path d="M218.022 216.03L218.026 216.041L218.12 215.859L218.022 216.03Z" fill="#BE4BDE"/>
<path d="M216.027 219.893C215.592 220.683 215.218 221.504 214.908 222.351C214.498 223.722 214.226 225.131 214.097 226.557C213.996 227.367 213.965 228.403 214.473 228.798C214.618 228.894 214.795 228.935 214.968 228.911C215.141 228.888 215.3 228.802 215.415 228.67C215.697 228.371 215.928 228.028 216.098 227.654C217.096 225.935 217.871 224.096 218.404 222.181C218.96 220.15 218.828 217.991 218.026 216.043C217.36 217.326 216.694 218.61 216.027 219.893Z" fill="#BE4BDE"/>
<path d="M196.786 117.039C197.103 117.349 197.504 117.559 197.939 117.644C198.373 117.729 198.823 117.684 199.233 117.517C200.083 117.145 200.861 116.631 201.536 115.996C202.095 115.582 202.569 115.065 202.932 114.473C203.132 114.119 203.26 113.729 203.309 113.325C203.358 112.921 203.327 112.512 203.217 112.12C203.061 111.745 202.812 111.416 202.494 111.164C202.175 110.912 201.797 110.745 201.396 110.68C200.266 110.345 199.136 110.009 198.006 109.674L198.823 108.938C197.982 108.486 197.052 109.324 196.526 110.361C196.189 111.038 195.954 111.762 195.829 112.508C195.65 113.287 195.643 114.096 195.808 114.879C195.974 115.661 196.307 116.398 196.786 117.039Z" fill="#BE4BDE"/>
<path d="M216.737 110.34C217.056 110.691 217.496 110.908 217.968 110.947C218.441 110.985 218.91 110.842 219.281 110.547C219.601 110.307 219.866 110.003 220.06 109.654C220.254 109.304 220.372 108.918 220.407 108.52C220.487 107.631 220.047 106.643 219.42 106.567L219.563 105.734C218.354 105.516 216.866 105.472 216.218 106.941C216 107.503 215.932 108.113 216.024 108.71C216.115 109.306 216.361 109.869 216.737 110.34Z" fill="#BE4BDE"/>
<path d="M134.531 170.21C138.697 170.21 142.074 165.682 142.074 160.095C142.074 154.509 138.697 149.98 134.531 149.98C130.365 149.98 126.988 154.509 126.988 160.095C126.988 165.682 130.365 170.21 134.531 170.21Z" fill="#E6E6E6"/>
<path d="M272.377 295.461C275.978 294.501 278.356 291.693 277.689 289.188C277.022 286.683 273.562 285.429 269.961 286.388C266.359 287.348 263.981 290.156 264.648 292.661C265.315 295.166 268.776 296.42 272.377 295.461Z" fill="#E6E6E6"/>
<path d="M228.269 296.277C231.871 295.318 234.249 292.51 233.582 290.004C232.915 287.499 229.455 286.246 225.853 287.205C222.252 288.164 219.874 290.972 220.541 293.477C221.208 295.983 224.668 297.236 228.269 296.277Z" fill="#E6E6E6"/>
<path d="M280.213 258.765C283.814 257.806 286.192 254.998 285.525 252.493C284.858 249.987 281.398 248.734 277.797 249.693C274.196 250.652 271.817 253.461 272.484 255.966C273.151 258.471 276.612 259.724 280.213 258.765Z" fill="#E6E6E6"/>
<path d="M293.222 243.162C294.848 242.96 295.931 240.902 295.642 238.565C295.352 236.227 293.799 234.496 292.173 234.697C290.547 234.899 289.464 236.957 289.753 239.295C290.043 241.632 291.596 243.363 293.222 243.162Z" fill="#E6E6E6"/>
<path d="M296.516 215.478C298.142 215.277 299.225 213.218 298.935 210.881C298.645 208.544 297.092 206.812 295.466 207.014C293.84 207.215 292.757 209.274 293.047 211.611C293.337 213.948 294.89 215.68 296.516 215.478Z" fill="#E6E6E6"/>
<path d="M252.053 268.701C253.679 268.499 254.762 266.441 254.472 264.104C254.183 261.766 252.63 260.035 251.004 260.237C249.378 260.438 248.294 262.496 248.584 264.834C248.874 267.171 250.427 268.903 252.053 268.701Z" fill="#E6E6E6"/>
<path d="M274.353 276.775C275.979 276.574 277.062 274.515 276.773 272.178C276.483 269.841 274.93 268.109 273.304 268.311C271.678 268.512 270.595 270.571 270.884 272.908C271.174 275.245 272.727 276.977 274.353 276.775Z" fill="#E6E6E6"/>
<path d="M247.277 299.635C248.903 299.433 249.986 297.375 249.696 295.037C249.406 292.7 247.853 290.969 246.227 291.17C244.601 291.372 243.518 293.43 243.808 295.767C244.098 298.105 245.651 299.836 247.277 299.635Z" fill="#E6E6E6"/>
<path d="M53.1284 258.418C56.7295 257.458 59.108 254.65 58.4409 252.145C57.7737 249.64 54.3135 248.386 50.7123 249.346C47.1111 250.305 44.7326 253.113 45.3998 255.618C46.067 258.123 49.5272 259.377 53.1284 258.418Z" fill="#E6E6E6"/>
<path d="M9.01908 259.234C12.6203 258.275 14.9988 255.467 14.3316 252.961C13.6645 250.456 10.2042 249.203 6.60304 250.162C3.00185 251.121 0.623369 253.929 1.29054 256.434C1.95771 258.94 5.41789 260.193 9.01908 259.234Z" fill="#E6E6E6"/>
<path d="M60.9659 221.722C64.5671 220.763 66.9456 217.955 66.2784 215.45C65.6113 212.944 62.151 211.691 58.5498 212.65C54.9486 213.609 52.5702 216.418 53.2373 218.923C53.9045 221.428 57.3647 222.681 60.9659 221.722Z" fill="#E6E6E6"/>
<path d="M73.9738 206.123C75.5998 205.921 76.683 203.863 76.3932 201.526C76.1034 199.188 74.5503 197.457 72.9243 197.658C71.2983 197.86 70.2151 199.918 70.5049 202.256C70.7947 204.593 72.3478 206.324 73.9738 206.123Z" fill="#E6E6E6"/>
<path d="M77.2672 178.435C78.8932 178.234 79.9765 176.175 79.6867 173.838C79.3969 171.501 77.8438 169.769 76.2178 169.971C74.5918 170.173 73.5086 172.231 73.7984 174.568C74.0882 176.906 75.6412 178.637 77.2672 178.435Z" fill="#E6E6E6"/>
<path d="M32.8047 231.658C34.4307 231.456 35.514 229.398 35.2242 227.061C34.9344 224.723 33.3813 222.992 31.7553 223.194C30.1293 223.395 29.046 225.453 29.3358 227.791C29.6256 230.128 31.1787 231.86 32.8047 231.658Z" fill="#E6E6E6"/>
<path d="M55.105 239.728C56.731 239.527 57.8142 237.468 57.5244 235.131C57.2346 232.794 55.6815 231.062 54.0555 231.264C52.4295 231.465 51.3463 233.524 51.6361 235.861C51.9259 238.198 53.479 239.93 55.105 239.728Z" fill="#E6E6E6"/>
<path d="M28.0282 262.596C29.6542 262.394 30.7375 260.336 30.4477 257.998C30.1579 255.661 28.6048 253.929 26.9788 254.131C25.3528 254.333 24.2696 256.391 24.5594 258.728C24.8492 261.066 26.4022 262.797 28.0282 262.596Z" fill="#E6E6E6"/>
<path d="M321.111 88.816C324.712 87.8569 327.091 85.0486 326.424 82.5434C325.757 80.0382 322.296 78.7849 318.695 79.7439C315.094 80.703 312.716 83.5113 313.383 86.0165C314.05 88.5217 317.51 89.775 321.111 88.816Z" fill="#E6E6E6"/>
<path d="M277.002 89.6324C280.603 88.6733 282.982 85.865 282.315 83.3598C281.647 80.8546 278.187 79.6013 274.586 80.5603C270.985 81.5194 268.606 84.3277 269.273 86.8329C269.941 89.338 273.401 90.5914 277.002 89.6324Z" fill="#E6E6E6"/>
<path d="M328.949 52.1128C332.55 51.1538 334.928 48.3455 334.261 45.8403C333.594 43.3351 330.134 42.0817 326.533 43.0408C322.931 43.9999 320.553 46.8082 321.22 49.3134C321.887 51.8186 325.347 53.0719 328.949 52.1128Z" fill="#E6E6E6"/>
<path d="M341.957 36.5174C343.583 36.3158 344.666 34.2575 344.376 31.9201C344.086 29.5827 342.533 27.8513 340.907 28.0529C339.281 28.2545 338.198 30.3128 338.488 32.6502C338.778 34.9876 340.331 36.719 341.957 36.5174Z" fill="#E6E6E6"/>
<path d="M345.25 8.82986C346.876 8.62826 347.959 6.57 347.67 4.23262C347.38 1.89523 345.827 0.16384 344.201 0.365439C342.575 0.567038 341.491 2.62529 341.781 4.96267C342.071 7.30006 343.624 9.03146 345.25 8.82986Z" fill="#E6E6E6"/>
<path d="M300.788 62.0564C302.414 61.8548 303.497 59.7966 303.207 57.4592C302.917 55.1218 301.364 53.3904 299.738 53.592C298.112 53.7936 297.029 55.8519 297.319 58.1892C297.609 60.5266 299.162 62.258 300.788 62.0564Z" fill="#E6E6E6"/>
<path d="M323.088 70.1267C324.714 69.9251 325.797 67.8669 325.507 65.5295C325.217 63.1921 323.664 61.4607 322.038 61.6623C320.412 61.8639 319.329 63.9222 319.619 66.2595C319.909 68.5969 321.462 70.3283 323.088 70.1267Z" fill="#E6E6E6"/>
<path d="M296.011 92.9861C297.637 92.7845 298.72 90.7262 298.431 88.3889C298.141 86.0515 296.588 84.3201 294.962 84.5217C293.336 84.7233 292.252 86.7815 292.542 89.1189C292.832 91.4563 294.385 93.1877 296.011 92.9861Z" fill="#E6E6E6"/>
<path d="M39.8751 264.696C32.6585 264.696 27.9669 262.903 25.8903 259.338C21.7954 252.308 28.6536 239.973 46.2742 222.677L47.7544 224.185C31.3867 240.252 24.2702 252.358 27.7158 258.274C29.8962 262.016 36.3851 263.357 46.485 262.151C56.5114 260.954 69.7987 257.386 85.9779 251.547C119.286 239.526 161.075 219.249 203.646 194.451C246.216 169.654 284.468 143.306 311.357 120.261C316.521 115.834 321.208 111.575 325.288 107.604C330.643 102.517 335.583 97.0113 340.061 91.1383C346.093 82.9491 348.128 76.6425 345.948 72.9001C342.307 66.6495 327.01 67.2373 302.874 74.5574L302.261 72.5352C328.157 64.6827 343.47 64.4472 347.774 71.8368C350.449 76.4279 348.426 83.3436 341.763 92.3916C337.216 98.3576 332.2 103.951 326.762 109.118C322.651 113.12 317.93 117.409 312.732 121.866C285.749 144.991 247.386 171.418 204.71 196.277C162.032 221.138 120.12 241.472 86.6953 253.535C70.3655 259.428 56.921 263.033 46.7354 264.249C44.4594 264.533 42.1687 264.682 39.8751 264.696Z" fill="#4A2D73"/>
</svg>
