<svg width="350" height="300" viewBox="0 0 350 300" fill="none" xmlns="http://www.w3.org/2000/svg">
<path d="M292.243 176.959C292.194 202.254 282.684 226.614 265.584 245.253C248.483 263.891 225.029 275.458 199.833 277.68C174.636 279.902 149.52 272.618 129.422 257.261C109.323 241.904 95.6963 219.583 91.2202 194.688C86.7442 169.793 91.7427 144.124 105.233 122.728C118.723 101.331 139.73 85.7549 164.122 79.0612C188.515 72.3675 214.529 75.0405 237.05 86.5547C259.572 98.0689 276.972 117.591 285.829 141.284C286.05 141.879 286.265 142.474 286.475 143.075V143.08C287.41 145.721 288.234 148.411 288.946 151.149C291.142 159.577 292.251 168.251 292.243 176.959Z" fill="#FB8500"/>
<path d="M179.091 108.147C174.507 105.668 169.418 104.269 164.212 104.056C159.005 103.843 153.819 104.822 149.048 106.918C144.848 108.746 140.425 112.025 139.023 117.947C144.691 114.602 152.027 119.887 153.485 128.364L153.145 128.458C152.375 134.33 154.094 140.723 157.423 144.364C157.671 142.721 158.281 141.154 159.21 139.777C160.139 138.399 161.363 137.246 162.793 136.4C165.239 134.792 167.945 133.624 169.812 130.861C172.025 127.584 172.587 122.796 173.466 118.427C174.345 114.059 176.013 109.364 179.091 108.147Z" fill="#FFCE7A"/>
<path d="M147.366 158.113C145.797 160.471 143.7 161.95 141.819 163.791C139.647 165.767 138.223 168.43 137.785 171.333C137.547 173.384 137.915 175.469 137.864 177.543C137.813 179.617 137.122 181.952 135.711 182.467C133.484 183.272 131.784 179.135 129.495 178.846C127.676 178.62 126.038 181.481 126.565 183.963C127.092 186.445 129.569 187.544 130.991 185.924C132.277 188.083 131.37 191.998 129.438 192.661C129.234 194.021 129.03 195.375 128.832 196.735C123.947 193.318 119.012 189.845 114.859 184.841C110.239 179.324 107.374 172.552 106.631 165.395C106.093 159.643 106.892 153.065 104.251 148.639C102.138 145.098 98.5114 144.316 95.2476 144.537C94.6526 144.577 94.0521 144.644 93.457 144.718C95.3818 138.937 97.8264 133.342 100.761 128.002C101.425 127.717 102.042 127.333 102.591 126.864C105.628 124.285 106.977 119.067 109.442 115.457C109.6 115.225 109.765 114.998 109.935 114.777C112.456 111.485 115.833 109.791 119.097 108.216C126.322 104.708 133.756 101.155 141.383 101.643L139.212 101.852C136.68 108.947 134.145 116.041 131.608 123.135C131.223 124.223 130.834 125.313 130.441 126.405C129.002 130.439 127.517 134.734 127.738 139.25C127.869 141.925 128.798 144.781 130.566 145.698C132.215 146.548 134.016 145.506 135.609 144.474C136.283 144.044 136.952 143.613 137.626 143.177C140.045 141.619 142.726 140.021 145.281 141.063C147.621 142.015 149.349 145.194 149.678 148.622C149.98 151.955 149.166 155.293 147.366 158.113Z" fill="#FFCE7A"/>
<path d="M161.757 206.549C154.691 202.198 147.624 197.847 140.558 193.496L140.678 193.188C136.284 194.861 134.46 202.671 135.186 209.058C135.912 215.444 138.374 221.154 139.618 227.377C141.295 235.893 140.662 244.703 137.785 252.892C147.077 242.466 155.3 231.134 162.332 219.068C163.314 217.547 164.062 215.887 164.552 214.144C165.071 212.287 164.886 210.303 164.033 208.573C163.454 207.72 162.672 207.024 161.757 206.549Z" fill="#FFCE7A"/>
<path d="M133.867 127.392C133.037 129.174 132.91 131.203 133.509 133.075C134.206 134.583 135.471 135.754 137.028 136.334L140.933 138.269C142.232 138.913 143.632 139.564 144.956 139.034C146.553 138.395 147.66 135.891 147.374 133.566C147.069 131.093 145.51 129.391 144.068 127.942C142.05 125.915 140.032 123.887 138.014 121.859L136.877 123.252C135.646 124.452 134.629 125.852 133.867 127.392Z" fill="#FFCE7A"/>
<path d="M271.312 153.836C273.069 154.25 274.825 154.664 276.582 155.077C276.276 161.01 273.335 166.501 269.391 168.489C267.748 169.317 265.918 169.623 264.558 171.17C263.328 172.575 262.705 174.762 262.133 176.853C261.13 180.502 260.127 184.151 259.124 187.8C258.047 191.733 256.665 196.101 253.865 197.518C251.463 198.736 248.715 197.246 246.868 194.747C245.02 192.248 243.893 188.888 242.799 185.613C242.867 189.183 241.207 192.685 238.855 193.926C236.498 195.166 233.631 194.045 232.056 191.274C230.923 189.285 230.452 186.661 229.342 184.644C228.231 182.627 225.902 181.471 224.69 183.364C223.891 184.622 223.993 186.548 223.596 188.146C223.396 189.207 222.871 190.179 222.093 190.928C221.315 191.676 220.323 192.163 219.256 192.322C218.274 192.3 217.307 192.077 216.413 191.669C215.52 191.261 214.719 190.675 214.06 189.948C210.59 186.398 208.331 181.843 207.606 176.932C207.114 174.578 207.176 172.142 207.787 169.815C208.484 167.611 210.167 165.911 211.838 166.331C212.938 164.007 210.767 160.925 208.812 161.197C206.852 161.469 205.316 163.571 203.707 165.186C202.104 166.801 199.86 167.974 198.245 166.37C198.281 166.957 198.083 167.534 197.693 167.974C197.304 168.414 196.756 168.682 196.169 168.718C196.111 168.722 196.053 168.723 195.995 168.722C194.921 168.414 193.924 167.885 193.066 167.169C189.366 164.863 184.668 166.393 182.039 170.756C183.682 163.764 186.09 155.74 191.139 154.097C193.202 153.423 195.451 153.978 197.4 152.811C200.851 150.743 201.548 142.929 198.568 139.705C198.947 142.753 198.874 146.311 197.264 148.397C195.655 150.482 192.278 149.122 192.482 146.039C192.436 146.473 192.255 146.881 191.963 147.205C191.671 147.529 191.284 147.752 190.858 147.842C190.431 147.933 189.987 147.886 189.589 147.709C189.19 147.532 188.858 147.233 188.64 146.855C187.569 145.224 187.66 142.555 188.419 140.605C189.202 138.84 190.325 137.246 191.723 135.914C194.414 133.03 197.146 130.111 200.262 128.298C203.384 126.485 206.988 125.873 210.116 127.675C211.765 128.627 213.215 130.213 214.898 131.052C215.294 131.297 215.734 131.463 216.193 131.538C216.652 131.613 217.122 131.597 217.575 131.491C218.028 131.385 218.456 131.191 218.834 130.919C219.212 130.648 219.533 130.305 219.778 129.909C219.797 129.879 219.816 129.848 219.834 129.817C221.086 127.618 220.497 124.354 220.961 121.606C221.794 116.75 226.65 114.478 229.342 117.685C227.33 117.17 225.251 119.549 225.001 122.434C224.746 125.318 226.203 128.23 228.152 129.103C231.427 130.553 234.634 126.904 237.11 123.527C239.694 119.991 242.282 116.457 244.873 112.926C245.287 112.324 245.751 111.759 246.261 111.237C247.073 110.446 248.155 109.993 249.288 109.97C250.421 109.947 251.521 110.355 252.364 111.112C254.982 113.248 256.211 117.629 258.359 120.643C261.475 125.023 266.139 126.088 270.479 126.938C273.715 127.567 276.952 128.2 280.191 128.836C282.351 132.854 284.234 137.013 285.829 141.286C279.889 143.994 274.851 148.35 271.312 153.836Z" fill="#FFCE7A"/>
<path d="M281.772 222.012C279.344 226.941 276.521 231.665 273.329 236.138C271.289 235.265 269.096 236.824 267.187 238.286C265.192 239.816 262.795 241.306 260.75 239.912C258.659 238.484 257.985 234.489 258.648 231.322C259.41 228.4 260.742 225.657 262.569 223.253C264.269 220.714 266.087 218.079 268.45 217.094C270.819 216.108 273.862 217.502 274.553 220.867L276.23 220.811C275.29 219.519 275.783 216.844 277.046 216.374C278.502 215.824 279.766 217.824 280.627 219.592C281.013 220.391 281.404 221.196 281.772 222.012Z" fill="#FFCE7A"/>
<path d="M217.536 198.08C213.931 198.307 211.075 193.869 209.178 189.503C207.28 185.137 205.549 180.144 202.296 177.922C200.437 176.652 198.318 176.478 196.302 175.862C195.158 175.573 194.1 175.016 193.215 174.237C192.33 173.458 191.643 172.479 191.212 171.381L188.925 170.457C185.726 172.056 182.797 174.145 180.242 176.648C177.324 179.748 175.506 183.723 175.069 187.959C174.632 192.536 176.245 197.64 179.259 199.36C181.641 200.719 184.414 199.862 186.826 201.106C189.84 202.66 191.63 207.174 192.307 211.632C192.985 216.089 192.813 220.721 193.298 225.229C193.782 229.737 195.118 234.428 197.882 236.738C201.341 239.629 206.417 237.227 207.969 231.965C208.73 229.383 208.704 226.471 209.273 223.791C210.276 219.072 212.982 215.571 215.128 211.701C217.274 207.83 218.963 202.573 217.536 198.08Z" fill="#FFCE7A"/>
<path d="M181.911 151.708C182.247 152.018 182.561 152.351 182.85 152.705C183.149 153.22 183.301 153.808 183.291 154.404C183.281 154.999 183.108 155.581 182.792 156.086C183.226 156.061 183.651 155.947 184.038 155.75C184.426 155.553 184.769 155.277 185.045 154.941C185.703 154.192 186.282 153.376 186.772 152.508C187.003 152.211 187.167 151.868 187.255 151.502C187.343 151.136 187.352 150.755 187.281 150.386C187.111 149.9 186.708 149.692 186.426 149.327C186.035 148.612 185.767 147.836 185.636 147.032C185.479 146.278 185.116 145.583 184.586 145.025C184.056 144.467 183.381 144.067 182.636 143.871L182.817 143.906C182.51 144.088 182.267 144.362 182.123 144.69C181.979 145.017 181.941 145.381 182.014 145.731C182.124 146.438 182.578 147.025 182.533 147.746C182.468 148.783 181.432 149.27 181.368 150.307C181.357 150.828 181.553 151.331 181.911 151.708Z" fill="#FFCE7A"/>
<path d="M175.734 134.089L175.75 134.086C175.861 133.984 175.964 133.875 176.058 133.758L175.734 134.089Z" fill="#FFCE7A"/>
<path d="M176.816 138.958C177.249 138.578 177.57 138.086 177.742 137.536C177.915 136.987 177.933 136.4 177.795 135.841C177.533 134.662 176.606 133.869 175.751 134.087C175.503 134.338 175.195 134.523 174.856 134.622C174.518 134.722 174.159 134.734 173.814 134.657C173.286 134.521 172.705 134.17 172.247 134.569C171.985 134.866 171.801 135.225 171.713 135.611C171.543 136.132 171.374 136.653 171.204 137.174C171.123 137.36 171.102 137.567 171.144 137.766C171.176 137.846 171.229 137.916 171.296 137.969C171.363 138.023 171.443 138.058 171.528 138.072L174.583 138.972C174.933 139.134 175.315 139.216 175.701 139.214C176.087 139.211 176.468 139.124 176.816 138.958Z" fill="#FFCE7A"/>
<path d="M253.674 206.157C253.203 205.387 252.733 204.616 252.262 203.846C251.8 202.954 251.168 202.16 250.402 201.51C250.066 201.229 249.633 201.093 249.198 201.131C248.762 201.17 248.36 201.38 248.079 201.715L248.055 201.745L248.112 202.185C249.372 203.536 250.231 205.211 250.592 207.023C250.699 207.811 250.662 208.626 250.756 209.417C250.766 209.783 250.848 210.144 250.997 210.479C251.147 210.814 251.361 211.117 251.628 211.369C252.369 211.864 253.239 211.134 253.766 210.243C254.238 209.511 254.449 208.643 254.367 207.776C254.249 207.195 254.013 206.644 253.674 206.157Z" fill="#FFCE7A"/>
<path d="M261.057 207.16C261.146 206.438 261.088 205.706 260.884 205.009C260.851 204.064 261.101 203.132 261.603 202.331C262.101 201.576 262.479 200.748 262.723 199.876C262.825 199.479 262.806 199.061 262.669 198.674C262.513 198.324 262.136 198.165 261.919 198.442L262.383 198.74C261.757 198.629 261.115 198.66 260.503 198.831C260.154 198.965 259.842 199.18 259.594 199.46C259.346 199.739 259.17 200.075 259.078 200.437C259.002 201.002 258.877 201.559 258.705 202.103C258.428 202.671 257.894 202.86 257.558 203.358C257.328 203.8 257.213 204.292 257.221 204.79C257.229 205.288 257.361 205.775 257.605 206.209C258.027 206.919 258.698 207.447 259.487 207.69C260.053 207.893 260.798 207.903 261.057 207.16Z" fill="#FFCE7A"/>
<path d="M274.204 211.127C274.408 211.659 274.682 212.162 275.019 212.622C275.648 213.256 276.503 212.866 277.267 212.712C277.96 212.603 278.669 212.683 279.321 212.944C279.972 213.205 280.54 213.638 280.965 214.196C280.669 212.719 280.023 211.334 279.081 210.159C278.139 208.984 276.928 208.052 275.551 207.441C273.762 206.822 271.876 206.527 269.984 206.571L269.66 206.653C270.484 209.052 273.071 208.998 274.204 211.127Z" fill="#FFCE7A"/>
<path d="M218.521 216.03L218.526 216.041L218.62 215.859L218.521 216.03Z" fill="#FFCE7A"/>
<path d="M216.528 219.893C216.093 220.683 215.719 221.504 215.409 222.351C214.998 223.722 214.727 225.131 214.598 226.557C214.496 227.367 214.465 228.403 214.973 228.798C215.119 228.894 215.295 228.935 215.468 228.911C215.642 228.888 215.801 228.802 215.915 228.67C216.197 228.371 216.428 228.028 216.598 227.654C217.597 225.935 218.372 224.096 218.905 222.181C219.461 220.15 219.328 217.991 218.527 216.043C217.86 217.326 217.194 218.61 216.528 219.893Z" fill="#FFCE7A"/>
<path d="M197.286 117.039C197.603 117.349 198.004 117.559 198.439 117.644C198.873 117.729 199.323 117.684 199.734 117.517C200.583 117.145 201.361 116.631 202.036 115.996C202.595 115.582 203.069 115.065 203.432 114.473C203.632 114.119 203.76 113.729 203.809 113.325C203.858 112.921 203.827 112.512 203.717 112.12C203.561 111.745 203.312 111.416 202.994 111.164C202.675 110.912 202.297 110.745 201.896 110.68C200.766 110.345 199.636 110.009 198.506 109.674L199.323 108.938C198.482 108.486 197.552 109.324 197.026 110.361C196.689 111.038 196.454 111.762 196.329 112.508C196.15 113.287 196.143 114.096 196.308 114.879C196.474 115.661 196.808 116.398 197.286 117.039Z" fill="#FFCE7A"/>
<path d="M217.238 110.34C217.556 110.691 217.996 110.908 218.469 110.947C218.941 110.985 219.411 110.842 219.782 110.547C220.101 110.307 220.367 110.003 220.56 109.654C220.754 109.304 220.872 108.918 220.907 108.52C220.987 107.631 220.548 106.643 219.92 106.567L220.064 105.734C218.854 105.516 217.366 105.472 216.718 106.941C216.5 107.503 216.433 108.113 216.524 108.71C216.615 109.306 216.861 109.869 217.238 110.34Z" fill="#FFCE7A"/>
<path d="M135.029 170.21C139.195 170.21 142.573 165.682 142.573 160.095C142.573 154.509 139.195 149.98 135.029 149.98C130.864 149.98 127.486 154.509 127.486 160.095C127.486 165.682 130.864 170.21 135.029 170.21Z" fill="#E6E6E6"/>
<path d="M272.876 295.461C276.477 294.501 278.856 291.693 278.189 289.188C277.521 286.683 274.061 285.429 270.46 286.388C266.859 287.348 264.48 290.156 265.147 292.661C265.815 295.166 269.275 296.42 272.876 295.461Z" fill="#E6E6E6"/>
<path d="M228.769 296.277C232.37 295.318 234.748 292.51 234.081 290.004C233.414 287.499 229.954 286.246 226.353 287.205C222.751 288.164 220.373 290.972 221.04 293.477C221.707 295.983 225.167 297.236 228.769 296.277Z" fill="#E6E6E6"/>
<path d="M280.712 258.765C284.313 257.806 286.692 254.998 286.025 252.493C285.357 249.987 281.897 248.734 278.296 249.693C274.695 250.652 272.316 253.461 272.983 255.966C273.651 258.471 277.111 259.724 280.712 258.765Z" fill="#E6E6E6"/>
<path d="M293.722 243.162C295.348 242.96 296.431 240.902 296.142 238.565C295.852 236.227 294.299 234.496 292.673 234.697C291.047 234.899 289.963 236.957 290.253 239.295C290.543 241.632 292.096 243.363 293.722 243.162Z" fill="#E6E6E6"/>
<path d="M297.015 215.478C298.641 215.277 299.724 213.218 299.434 210.881C299.145 208.544 297.592 206.812 295.966 207.014C294.34 207.215 293.256 209.274 293.546 211.611C293.836 213.948 295.389 215.68 297.015 215.478Z" fill="#E6E6E6"/>
<path d="M252.552 268.701C254.178 268.499 255.261 266.441 254.972 264.104C254.682 261.766 253.129 260.035 251.503 260.237C249.877 260.438 248.794 262.496 249.083 264.834C249.373 267.171 250.926 268.903 252.552 268.701Z" fill="#E6E6E6"/>
<path d="M274.853 276.775C276.479 276.574 277.562 274.515 277.272 272.178C276.983 269.841 275.43 268.109 273.804 268.311C272.178 268.512 271.094 270.571 271.384 272.908C271.674 275.245 273.227 276.977 274.853 276.775Z" fill="#E6E6E6"/>
<path d="M247.777 299.635C249.403 299.433 250.486 297.375 250.196 295.037C249.906 292.7 248.353 290.969 246.727 291.17C245.101 291.372 244.018 293.43 244.308 295.767C244.598 298.105 246.151 299.836 247.777 299.635Z" fill="#E6E6E6"/>
<path d="M53.628 258.418C57.2292 257.458 59.6076 254.65 58.9405 252.145C58.2733 249.64 54.8131 248.386 51.2119 249.346C47.6107 250.305 45.2323 253.113 45.8994 255.618C46.5666 258.123 50.0268 259.377 53.628 258.418Z" fill="#E6E6E6"/>
<path d="M9.51859 259.234C13.1198 258.275 15.4983 255.467 14.8311 252.961C14.164 250.456 10.7037 249.203 7.10255 250.162C3.50136 251.121 1.12288 253.929 1.79005 256.434C2.45722 258.94 5.9174 260.193 9.51859 259.234Z" fill="#E6E6E6"/>
<path d="M61.4659 221.722C65.0671 220.763 67.4456 217.955 66.7784 215.45C66.1113 212.944 62.651 211.691 59.0498 212.65C55.4486 213.609 53.0702 216.418 53.7373 218.923C54.4045 221.428 57.8647 222.681 61.4659 221.722Z" fill="#E6E6E6"/>
<path d="M74.474 206.123C76.1 205.921 77.1833 203.863 76.8935 201.526C76.6037 199.188 75.0506 197.457 73.4246 197.658C71.7986 197.86 70.7154 199.918 71.0052 202.256C71.295 204.593 72.848 206.324 74.474 206.123Z" fill="#E6E6E6"/>
<path d="M77.767 178.435C79.393 178.234 80.4762 176.175 80.1864 173.838C79.8966 171.501 78.3436 169.769 76.7176 169.971C75.0915 170.173 74.0084 172.231 74.2982 174.568C74.588 176.906 76.141 178.637 77.767 178.435Z" fill="#E6E6E6"/>
<path d="M33.3042 231.658C34.9302 231.456 36.0134 229.398 35.7236 227.061C35.4338 224.723 33.8807 222.992 32.2547 223.194C30.6287 223.395 29.5455 225.453 29.8353 227.791C30.1251 230.128 31.6782 231.86 33.3042 231.658Z" fill="#E6E6E6"/>
<path d="M55.6049 239.728C57.231 239.527 58.3141 237.468 58.0243 235.131C57.7345 232.794 56.1815 231.062 54.5555 231.264C52.9295 231.465 51.8463 233.524 52.1361 235.861C52.4259 238.198 53.9789 239.93 55.6049 239.728Z" fill="#E6E6E6"/>
<path d="M28.5268 262.596C30.1528 262.394 31.236 260.336 30.9462 257.998C30.6564 255.661 29.1033 253.929 27.4773 254.131C25.8513 254.333 24.7681 256.391 25.0579 258.728C25.3477 261.066 26.9008 262.797 28.5268 262.596Z" fill="#E6E6E6"/>
<path d="M321.61 88.816C325.212 87.8569 327.59 85.0486 326.923 82.5434C326.256 80.0382 322.796 78.7849 319.194 79.7439C315.593 80.703 313.215 83.5113 313.882 86.0165C314.549 88.5217 318.009 89.775 321.61 88.816Z" fill="#E6E6E6"/>
<path d="M277.501 89.6324C281.102 88.6733 283.481 85.865 282.814 83.3598C282.146 80.8546 278.686 79.6013 275.085 80.5603C271.484 81.5194 269.105 84.3277 269.772 86.8329C270.44 89.338 273.9 90.5914 277.501 89.6324Z" fill="#E6E6E6"/>
<path d="M329.448 52.1128C333.05 51.1538 335.428 48.3455 334.761 45.8403C334.094 43.3351 330.633 42.0817 327.032 43.0408C323.431 43.9999 321.053 46.8082 321.72 49.3134C322.387 51.8186 325.847 53.0719 329.448 52.1128Z" fill="#E6E6E6"/>
<path d="M342.456 36.5174C344.082 36.3158 345.166 34.2575 344.876 31.9201C344.586 29.5827 343.033 27.8513 341.407 28.0529C339.781 28.2545 338.698 30.3128 338.988 32.6502C339.277 34.9876 340.83 36.719 342.456 36.5174Z" fill="#E6E6E6"/>
<path d="M345.749 8.82986C347.375 8.62826 348.459 6.57 348.169 4.23262C347.879 1.89523 346.326 0.16384 344.7 0.365439C343.074 0.567038 341.991 2.62529 342.281 4.96267C342.57 7.30006 344.123 9.03146 345.749 8.82986Z" fill="#E6E6E6"/>
<path d="M301.287 62.0564C302.913 61.8548 303.996 59.7966 303.706 57.4592C303.416 55.1218 301.863 53.3904 300.237 53.592C298.611 53.7936 297.528 55.8519 297.818 58.1892C298.107 60.5266 299.661 62.258 301.287 62.0564Z" fill="#E6E6E6"/>
<path d="M323.587 70.1267C325.213 69.9251 326.297 67.8669 326.007 65.5295C325.717 63.1921 324.164 61.4607 322.538 61.6623C320.912 61.8639 319.829 63.9222 320.118 66.2595C320.408 68.5969 321.961 70.3283 323.587 70.1267Z" fill="#E6E6E6"/>
<path d="M296.511 92.9861C298.137 92.7845 299.22 90.7262 298.931 88.3889C298.641 86.0515 297.088 84.3201 295.462 84.5217C293.836 84.7233 292.753 86.7815 293.042 89.1189C293.332 91.4563 294.885 93.1877 296.511 92.9861Z" fill="#E6E6E6"/>
<path d="M40.3745 264.696C33.1579 264.696 28.4662 262.903 26.3897 259.338C22.2947 252.308 29.153 239.973 46.7736 222.677L48.2538 224.185C31.8861 240.252 24.7695 252.358 28.2152 258.274C30.3956 262.016 36.8844 263.357 46.9844 262.151C57.0107 260.954 70.298 257.386 86.4773 251.547C119.786 239.526 161.574 219.249 204.146 194.451C246.715 169.654 284.967 143.306 311.856 120.261C317.021 115.834 321.708 111.575 325.787 107.604C331.142 102.517 336.082 97.0113 340.561 91.1383C346.592 82.9491 348.628 76.6425 346.448 72.9001C342.806 66.6495 327.51 67.2373 303.374 74.5574L302.761 72.5352C328.656 64.6827 343.969 64.4472 348.273 71.8368C350.948 76.4279 348.925 83.3436 342.262 92.3916C337.716 98.3576 332.699 103.951 327.261 109.118C323.15 113.12 318.43 117.409 313.231 121.866C286.249 144.991 247.886 171.418 205.209 196.277C162.531 221.138 120.619 241.472 87.1947 253.535C70.8648 259.428 57.4203 263.033 47.2347 264.249C44.9588 264.533 42.668 264.682 40.3745 264.696Z" fill="#FB8500"/>
</svg>
