<svg width="248" height="229" viewBox="0 0 248 229" fill="none" xmlns="http://www.w3.org/2000/svg">
<g clip-path="url(#clip0_1216_120445)">
<path d="M113.875 125.685C113.831 125.685 113.803 125.684 113.793 125.684L108.491 125.684V124.902H113.812C113.936 124.907 116.45 124.978 118.766 122.167C122.218 117.978 125.052 107.609 118.954 81.997C110.754 47.5579 117.593 17.1329 120.914 5.65054C121.078 5.08246 121.107 4.48411 121 3.90278C120.892 3.32144 120.651 2.77304 120.295 2.30091C119.94 1.82878 119.479 1.44585 118.95 1.18238C118.42 0.918918 117.837 0.782133 117.246 0.782835H38.0535C37.4515 0.783643 36.858 0.926401 36.3215 1.19952C35.7849 1.47264 35.3203 1.86843 34.9653 2.35476C33.5585 4.28994 31.6279 8.00758 30.4198 14.7297L29.6504 14.5915C30.8846 7.72334 32.878 3.89633 34.3329 1.89512C34.7605 1.30911 35.3202 0.832193 35.9667 0.503084C36.6132 0.173976 37.3281 0.00195029 38.0535 0.00097869H117.246C117.958 0.000293183 118.661 0.16528 119.299 0.482904C119.937 0.800529 120.492 1.26209 120.92 1.83112C121.349 2.40015 121.639 3.06105 121.769 3.76162C121.898 4.46219 121.863 5.18323 121.665 5.86777C118.361 17.2906 111.558 47.5577 119.715 81.8161C125.899 107.788 122.926 118.382 119.343 122.696C116.98 125.541 114.376 125.685 113.875 125.685Z" fill="#E6E6E6"/>
<path d="M99.6063 139.954C99.562 139.954 99.5341 139.953 99.5243 139.952L94.2216 139.953V139.171H99.5435C99.6674 139.175 102.181 139.246 104.497 136.436C107.949 132.247 110.783 121.878 104.685 96.2656C96.4854 61.8265 103.324 31.4015 106.645 19.9191C106.809 19.351 106.838 18.7527 106.731 18.1713C106.623 17.59 106.382 17.0416 106.026 16.5695C105.671 16.0973 105.21 15.7144 104.681 15.4509C104.152 15.1875 103.568 15.0507 102.977 15.0514H23.7847C23.1826 15.0522 22.5892 15.195 22.0526 15.4681C21.516 15.7412 21.0514 16.137 20.6965 16.6233C19.2897 18.5585 17.3591 22.2761 16.151 28.9983L15.3815 28.8601C16.6158 21.9919 18.6092 18.1649 20.0641 16.1637C20.4916 15.5777 21.0514 15.1007 21.6978 14.7716C22.3443 14.4425 23.0593 14.2705 23.7847 14.2695H102.977C103.69 14.2688 104.392 14.4338 105.03 14.7515C105.668 15.0691 106.223 15.5306 106.651 16.0997C107.08 16.6687 107.37 17.3296 107.5 18.0302C107.629 18.7307 107.594 19.4518 107.396 20.1363C104.093 31.5591 97.289 61.8263 105.446 96.0846C111.63 122.057 108.657 132.651 105.074 136.965C102.711 139.81 100.107 139.954 99.6063 139.954Z" fill="#CCCCCC"/>
<path d="M85.3374 154.223C85.2931 154.223 85.2652 154.222 85.2555 154.222L7.2836 154.222C6.53291 154.223 5.79344 154.04 5.1299 153.689C4.46637 153.338 3.89898 152.83 3.47742 152.208C3.05585 151.587 2.79294 150.872 2.7117 150.126C2.63046 149.38 2.73336 148.625 3.0114 147.928C5.84048 140.859 9.64969 123.902 3.37556 89.7421C-4.03309 49.406 2.59962 34.8285 5.79514 30.4332C6.22273 29.8472 6.78248 29.3703 7.42896 29.0412C8.07543 28.7121 8.79041 28.54 9.51583 28.5391H88.7083C89.4207 28.5384 90.1235 28.7034 90.7611 29.021C91.3988 29.3386 91.9539 29.8002 92.3825 30.3692C92.8111 30.9382 93.1016 31.5991 93.2309 32.2997C93.3602 33.0003 93.3248 33.7213 93.1275 34.4059C89.8237 45.8287 83.0202 76.0958 91.177 110.354C97.3608 136.326 94.3881 146.92 90.8053 151.234C88.4422 154.079 85.8384 154.223 85.3374 154.223ZM9.51583 29.3209C8.91373 29.3217 8.32031 29.4645 7.78372 29.7376C7.24714 30.0107 6.7825 30.4065 6.42754 30.8928C3.29128 35.2066 -3.20943 49.5625 4.14452 89.6008C10.1382 122.233 7.23129 139.489 3.73722 148.218C3.50173 148.794 3.41335 149.42 3.48003 150.038C3.54671 150.657 3.76637 151.249 4.11918 151.762C4.46901 152.279 4.94046 152.703 5.49219 152.995C6.04391 153.288 6.65903 153.441 7.28359 153.44H85.2747C85.3978 153.446 87.9118 153.516 90.2281 150.705C93.6798 146.517 96.5144 136.147 90.4163 110.535C82.2165 76.096 89.0555 45.671 92.3764 34.1886C92.54 33.6205 92.5692 33.0222 92.4618 32.4409C92.3545 31.8595 92.1134 31.3111 91.7576 30.839C91.4018 30.3669 90.9411 29.9839 90.4119 29.7205C89.8827 29.457 89.2994 29.3202 88.7083 29.3209H9.51583Z" fill="#3F3D56"/>
<path d="M75.2384 63.7226H13.0808C12.2514 63.7226 11.4559 63.3931 10.8694 62.8066C10.2829 62.2201 9.95337 61.4246 9.95337 60.5952C9.95337 59.7658 10.2829 58.9703 10.8694 58.3838C11.4559 57.7973 12.2514 57.4678 13.0808 57.4678H75.2384C76.0678 57.4678 76.8633 57.7973 77.4498 58.3838C78.0363 58.9703 78.3658 59.7658 78.3658 60.5952C78.3658 61.4246 78.0363 62.2201 77.4498 62.8066C76.8633 63.3931 76.0678 63.7226 75.2384 63.7226Z" fill="#4A2D73"/>
<path d="M75.2384 77.0136H13.0808C12.2514 77.0136 11.4559 76.6841 10.8694 76.0976C10.2829 75.5111 9.95337 74.7157 9.95337 73.8862C9.95337 73.0568 10.2829 72.2613 10.8694 71.6748C11.4559 71.0883 12.2514 70.7588 13.0808 70.7588H75.2384C76.0678 70.7588 76.8633 71.0883 77.4498 71.6748C78.0363 72.2613 78.3658 73.0568 78.3658 73.8862C78.3658 74.7157 78.0363 75.5111 77.4498 76.0976C76.8633 76.6841 76.0678 77.0136 75.2384 77.0136Z" fill="#CCCCCC"/>
<path d="M75.2384 90.3056H13.0808C12.2514 90.3056 11.4559 89.9761 10.8694 89.3896C10.2829 88.8031 9.95337 88.0077 9.95337 87.1782C9.95337 86.3488 10.2829 85.5533 10.8694 84.9668C11.4559 84.3803 12.2514 84.0508 13.0808 84.0508H75.2384C76.0678 84.0508 76.8633 84.3803 77.4498 84.9668C78.0363 85.5533 78.3658 86.3488 78.3658 87.1782C78.3658 88.0077 78.0363 88.8031 77.4498 89.3896C76.8633 89.9761 76.0678 90.3056 75.2384 90.3056Z" fill="#CCCCCC"/>
<path d="M79.9296 103.597H17.772C16.9425 103.597 16.147 103.267 15.5605 102.681C14.974 102.094 14.6445 101.299 14.6445 100.469C14.6445 99.6398 14.974 98.8443 15.5605 98.2578C16.147 97.6713 16.9425 97.3418 17.772 97.3418H79.9296C80.759 97.3418 81.5545 97.6713 82.141 98.2578C82.7275 98.8443 83.057 99.6398 83.057 100.469C83.057 101.299 82.7275 102.094 82.141 102.681C81.5545 103.267 80.759 103.597 79.9296 103.597Z" fill="#CCCCCC"/>
<path d="M79.9296 116.889H17.772C16.9425 116.889 16.147 116.559 15.5605 115.973C14.974 115.386 14.6445 114.591 14.6445 113.761C14.6445 112.932 14.974 112.136 15.5605 111.55C16.147 110.963 16.9425 110.634 17.772 110.634H79.9296C80.759 110.634 81.5545 110.963 82.141 111.55C82.7275 112.136 83.057 112.932 83.057 113.761C83.057 114.591 82.7275 115.386 82.141 115.973C81.5545 116.559 80.759 116.889 79.9296 116.889Z" fill="#CCCCCC"/>
<path d="M42.4004 50.4306H13.0808C12.2514 50.4306 11.4559 50.1011 10.8694 49.5146C10.2829 48.9281 9.95337 48.1327 9.95337 47.3032C9.95337 46.4738 10.2829 45.6783 10.8694 45.0918C11.4559 44.5053 12.2514 44.1758 13.0808 44.1758H42.4004C43.2299 44.1758 44.0253 44.5053 44.6118 45.0918C45.1984 45.6783 45.5278 46.4738 45.5278 47.3032C45.5278 48.1327 45.1984 48.9281 44.6118 49.5146C44.0253 50.1011 43.2299 50.4306 42.4004 50.4306Z" fill="#4A2D73"/>
<path d="M38.6146 138.32C39.2456 135.648 42.2103 134.772 44.6342 134.87C46.1656 134.974 47.6847 135.214 49.1732 135.588C50.7307 135.937 52.2731 136.349 53.8077 136.787C56.6218 137.59 59.4068 138.56 62.2673 139.188C64.6486 139.71 67.2364 140.016 69.6112 139.295C71.894 138.602 73.8306 136.9 74.4517 134.547C75.037 132.33 74.2335 129.906 72.085 128.893C70.1258 127.969 67.6509 128.439 66.6798 130.528C65.5849 132.884 66.6789 135.454 68.4126 137.159C69.398 138.084 70.4773 138.904 71.633 139.605C72.806 140.404 74.1116 140.989 75.489 141.332C77.7505 141.815 80.4445 141.103 81.6108 138.942C81.87 138.453 82.026 137.916 82.0689 137.364C82.1379 136.613 80.9647 136.618 80.8961 137.364C80.6984 139.516 78.1789 140.523 76.2947 140.287C75.0229 140.077 73.8084 139.605 72.7274 138.903C71.6841 138.294 70.6955 137.597 69.7726 136.818C68.1746 135.435 66.6766 133.159 67.7499 131.001C68.6238 129.244 70.902 129.261 72.2877 130.395C73.9657 131.767 73.6665 134.258 72.5597 135.888C71.3342 137.693 69.113 138.449 67.0187 138.531C64.7431 138.619 62.4866 138.097 60.3117 137.48C57.6094 136.712 54.934 135.853 52.2187 135.131C50.6771 134.721 49.1237 134.351 47.5544 134.063C46.0705 133.736 44.5463 133.63 43.0315 133.749C40.5843 134.032 38.0863 135.457 37.4837 138.008C37.3104 138.742 38.4409 139.055 38.6146 138.32Z" fill="#3F3D56"/>
<path d="M158.434 204.629C158.502 212.326 159.065 220.012 160.122 227.637C160.159 227.904 160.199 228.172 160.236 228.44L232.325 228.037C232.536 227.771 232.744 227.502 232.946 227.23C233.619 226.328 234.25 225.402 234.829 224.443C237.612 219.823 238.887 214.414 237.61 210.682L237.587 210.624C237.311 209.807 236.877 209.053 236.309 208.404C233.398 205.127 227.511 205.673 222.17 208.318C226.961 203.074 230.776 196.456 231.066 190.549C231.35 184.788 228.337 180.672 225.07 177.174C224.962 177.058 224.855 176.946 224.748 176.834C224.696 176.776 224.641 176.721 224.589 176.663C222.039 173.998 219.067 171.37 214.765 171.688C210.047 172.037 204.816 175.989 201.148 180.595C197.48 185.197 195.042 190.424 192.572 195.527C190.098 200.626 187.422 205.855 183.452 210.213C188.829 203.413 193.164 195.675 194.765 188.15C196.366 180.624 194.957 173.397 190.165 169.853C188.71 168.81 187.027 168.131 185.256 167.872C185.049 167.837 184.839 167.81 184.626 167.785C180.19 167.28 174.894 168.814 170.388 172.482C165.425 176.519 161.985 182.505 160.273 188.188C158.561 193.87 158.379 199.34 158.434 204.629Z" fill="#F2F2F2"/>
<path d="M205.598 228.186L206.977 228.179C207.414 227.905 207.854 227.635 208.296 227.367C208.57 227.195 208.846 227.029 209.123 226.859C213.695 224.067 218.296 221.388 222.926 218.823C227.551 216.256 232.2 213.808 236.872 211.477C236.996 211.424 237.097 211.328 237.157 211.207C237.218 211.087 237.234 210.949 237.204 210.817C237.199 210.8 237.191 210.783 237.181 210.769C237.116 210.646 236.97 210.596 236.757 210.7C236.184 210.987 235.608 211.275 235.035 211.568C230.35 213.939 225.686 216.427 221.042 219.034C216.4 221.64 211.786 224.36 207.197 227.196C207.101 227.255 207.004 227.316 206.908 227.375C206.47 227.646 206.036 227.916 205.598 228.186Z" fill="white"/>
<path d="M187.825 228.286L188.677 228.281C188.869 228.012 189.058 227.743 189.251 227.474C193.768 221.14 198.284 214.806 202.799 208.472C210.192 198.102 217.584 187.732 224.974 177.362C225.018 177.306 225.05 177.242 225.07 177.174C225.133 176.945 224.964 176.81 224.748 176.834C224.657 176.847 224.57 176.879 224.492 176.929C224.414 176.978 224.348 177.043 224.298 177.12C220.152 182.936 216.008 188.749 211.864 194.56C204.509 204.878 197.155 215.195 189.801 225.511C189.334 226.166 188.866 226.824 188.398 227.479C188.206 227.748 188.014 228.017 187.825 228.286Z" fill="white"/>
<path d="M168.835 223.336C168.878 224.772 168.973 226.186 169.098 227.587C169.122 227.855 169.146 228.122 169.17 228.39L170.064 228.385C170.037 228.117 170.01 227.85 169.986 227.582C169.797 225.558 169.662 223.512 169.644 221.41C169.62 215.583 170.188 209.769 171.339 204.056C172.562 197.906 174.319 191.873 176.588 186.027C178.971 179.861 181.843 173.896 185.177 168.189C185.24 168.096 185.268 167.984 185.256 167.872C185.219 167.617 184.88 167.542 184.626 167.785C184.576 167.833 184.533 167.887 184.498 167.947C184.085 168.657 183.68 169.368 183.283 170.082C180.071 175.821 177.322 181.807 175.062 187.982C172.91 193.848 171.272 199.889 170.169 206.039C169.135 211.744 168.688 217.54 168.835 223.336Z" fill="white"/>
<path d="M81.7058 138.597C81.5575 138.474 81.4491 138.309 81.3943 138.124C81.3394 137.939 81.3405 137.742 81.3974 137.558C81.4544 137.374 81.5646 137.21 81.7142 137.088C81.8639 136.967 82.0462 136.892 82.2383 136.874C84.3705 136.668 86.5224 136.888 88.5685 137.522L109.411 143.959C109.681 144.043 109.931 144.178 110.149 144.358C110.366 144.539 110.546 144.76 110.678 145.01C110.81 145.259 110.891 145.533 110.917 145.814C110.944 146.095 110.914 146.378 110.831 146.648C110.748 146.918 110.612 147.169 110.432 147.386C110.251 147.603 110.03 147.783 109.781 147.915C109.531 148.047 109.258 148.128 108.977 148.154C108.695 148.181 108.412 148.151 108.142 148.068L87.2996 141.631C85.2522 141.001 83.3506 139.97 81.7058 138.597Z" fill="#3F3D56"/>
<path d="M167.142 165.337C166.576 165.099 166.069 164.741 165.656 164.286C165.244 163.831 164.936 163.292 164.754 162.705C164.573 162.119 164.522 161.5 164.606 160.891C164.69 160.283 164.906 159.701 165.239 159.185L161.667 140.502L170.772 139.792L171.321 158.067C172.151 158.684 172.725 159.584 172.935 160.596C173.145 161.608 172.976 162.662 172.461 163.558C171.946 164.454 171.12 165.13 170.139 165.458C169.159 165.786 168.093 165.743 167.142 165.337Z" fill="#FFB8B8"/>
<path d="M161.105 155.694L151.831 112.504C151.45 110.73 151.789 108.877 152.774 107.354C153.759 105.83 155.309 104.76 157.083 104.379C158.857 103.998 160.71 104.338 162.234 105.323C163.757 106.308 164.827 107.858 165.208 109.632L174.482 152.822C174.58 153.278 174.492 153.754 174.239 154.146C173.986 154.538 173.587 154.813 173.132 154.911L163.194 157.045C162.968 157.094 162.735 157.097 162.508 157.056C162.28 157.014 162.063 156.928 161.869 156.803C161.675 156.677 161.508 156.515 161.377 156.325C161.245 156.135 161.153 155.92 161.105 155.694Z" fill="#4A2D73"/>
<path d="M145.883 223.637H141.09L138.81 205.15L145.884 205.151L145.883 223.637Z" fill="#FFB8B8"/>
<path d="M137.667 222.268H146.91V228.087H131.847C131.847 227.323 131.998 226.566 132.29 225.86C132.583 225.154 133.011 224.513 133.552 223.972C134.092 223.432 134.734 223.003 135.44 222.711C136.146 222.418 136.903 222.268 137.667 222.268Z" fill="#2F2E41"/>
<path d="M161.911 223.246H157.118L154.838 204.76L161.912 204.76L161.911 223.246Z" fill="#FFB8B8"/>
<path d="M153.695 221.877H162.938V227.697H147.875C147.875 226.932 148.026 226.176 148.318 225.47C148.611 224.763 149.039 224.122 149.58 223.582C150.12 223.041 150.762 222.612 151.468 222.32C152.174 222.027 152.931 221.877 153.695 221.877Z" fill="#2F2E41"/>
<path d="M140.141 220.188C139.961 220.041 139.813 219.859 139.704 219.654C139.596 219.448 139.529 219.223 139.509 218.991L133.937 157.702C133.915 157.464 133.943 157.224 134.017 156.997C134.091 156.77 134.21 156.56 134.368 156.381C134.526 156.201 134.718 156.056 134.934 155.954C135.15 155.851 135.384 155.794 135.623 155.785L163.567 154.737C163.808 154.728 164.049 154.769 164.275 154.857C164.5 154.945 164.705 155.079 164.876 155.25C165.047 155.421 165.181 155.626 165.27 155.851C165.358 156.076 165.399 156.317 165.391 156.559L163.157 217.613C163.14 218.04 162.969 218.447 162.675 218.758C162.381 219.068 161.984 219.261 161.558 219.3L155.924 219.813C155.69 219.834 155.455 219.808 155.231 219.737C155.007 219.666 154.8 219.551 154.622 219.399C154.444 219.246 154.297 219.06 154.192 218.85C154.087 218.64 154.025 218.412 154.009 218.178L151.423 179.391C151.422 179.316 151.405 179.243 151.374 179.175C151.344 179.107 151.3 179.046 151.246 178.995C151.191 178.944 151.127 178.904 151.057 178.878C150.987 178.853 150.913 178.841 150.839 178.844H150.836C150.762 178.841 150.687 178.853 150.617 178.879C150.547 178.906 150.483 178.946 150.429 178.997C150.374 179.048 150.331 179.11 150.3 179.179C150.27 179.247 150.254 179.321 150.253 179.396L147.939 218.444C147.916 218.862 147.743 219.258 147.453 219.56C147.163 219.862 146.775 220.05 146.358 220.09L141.436 220.582C141.205 220.606 140.971 220.584 140.748 220.516C140.526 220.448 140.319 220.337 140.141 220.188Z" fill="#2F2E41"/>
<path d="M150.889 95.2012C156.192 95.2012 160.491 90.9025 160.491 85.5997C160.491 80.2968 156.192 75.998 150.889 75.998C145.587 75.998 141.288 80.2968 141.288 85.5997C141.288 90.9025 145.587 95.2012 150.889 95.2012Z" fill="#FFB8B8"/>
<path d="M132.399 158.117C132.228 157.923 132.103 157.693 132.031 157.444C131.96 157.195 131.945 156.934 131.988 156.679C133.76 145.904 132.761 130.066 131.611 118.678C131.311 115.657 131.812 112.61 133.064 109.844C134.315 107.078 136.274 104.691 138.742 102.923L143.756 98.6246C144.09 98.3422 144.515 98.1918 144.951 98.2016L157.409 98.5574C157.858 98.5697 158.285 98.7541 158.602 99.0724L160.527 103.335L160.547 103.35C162.841 105.036 164.681 107.264 165.904 109.835C167.126 112.407 167.692 115.241 167.551 118.084L165.717 155.979C165.694 156.42 165.506 156.836 165.192 157.145C164.878 157.455 164.459 157.636 164.018 157.653L133.78 158.715C133.761 158.715 133.742 158.716 133.722 158.716C133.472 158.716 133.224 158.663 132.996 158.559C132.768 158.456 132.564 158.305 132.399 158.117Z" fill="#4A2D73"/>
<path d="M96.1304 142.303C96.1153 141.689 96.235 141.08 96.481 140.517C96.7271 139.955 97.0934 139.453 97.5543 139.047C98.0152 138.642 98.5594 138.342 99.1487 138.17C99.7379 137.997 100.358 137.956 100.965 138.049L116.549 127.143L120.923 135.16L104.474 143.141C104.251 144.15 103.664 145.042 102.827 145.648C101.989 146.254 100.959 146.531 99.9303 146.428C98.9018 146.325 97.9469 145.848 97.2466 145.088C96.5462 144.327 96.1491 143.337 96.1304 142.303Z" fill="#FFB8B8"/>
<path d="M109.246 144.2C109.017 144.165 108.798 144.086 108.6 143.966C108.402 143.846 108.23 143.689 108.094 143.502L102.08 135.308C101.804 134.932 101.689 134.461 101.76 134C101.831 133.539 102.081 133.125 102.457 132.849L138.069 106.71C139.531 105.636 141.361 105.188 143.154 105.463C144.042 105.599 144.895 105.909 145.663 106.375C146.431 106.84 147.1 107.453 147.632 108.177C148.163 108.901 148.547 109.723 148.761 110.596C148.975 111.468 149.015 112.375 148.879 113.263C148.743 114.151 148.433 115.003 147.967 115.771C147.501 116.54 146.889 117.209 146.165 117.74L110.553 143.879C110.253 144.101 109.889 144.22 109.516 144.22C109.426 144.22 109.335 144.213 109.246 144.2Z" fill="#4A2D73"/>
<path d="M151.381 94.1473C152.654 92.5861 152.515 90.208 151.493 88.4718C150.471 86.7356 148.736 85.5399 146.951 84.6059C145.166 83.672 143.27 82.9375 141.59 81.8254C139.91 80.7134 139.983 76.0055 139.536 74.0411L140.602 74.3965C140.192 73.8719 140.061 72.3219 139.651 71.7974C140.856 71.9165 141.783 73.061 142.989 73.1801L142.293 71.3129C146.427 71.058 148.997 73.9306 153.131 73.6757C155.179 73.5495 157.403 73.4696 159.087 74.6426C160.55 75.6619 161.291 77.4261 161.777 79.1418C162.82 82.8256 162.983 86.9521 161.18 90.3301C159.378 93.7081 155.224 95.9844 151.595 94.7646L151.381 94.1473Z" fill="#2F2E41"/>
<path d="M98.6653 228.303H247.609C247.713 228.303 247.812 228.262 247.885 228.189C247.959 228.116 248 228.016 248 227.912C248 227.809 247.959 227.709 247.885 227.636C247.812 227.563 247.713 227.521 247.609 227.521H98.6653C98.5617 227.521 98.4622 227.563 98.3889 227.636C98.3156 227.709 98.2744 227.809 98.2744 227.912C98.2744 228.016 98.3156 228.116 98.3889 228.189C98.4622 228.262 98.5617 228.303 98.6653 228.303Z" fill="#3F3D56"/>
</g>
<defs>
<clipPath id="clip0_1216_120445">
<rect width="248" height="228.439" fill="white" transform="translate(0 0.000976562)"/>
</clipPath>
</defs>
</svg>
