<svg width="248" height="229" viewBox="0 0 248 229" fill="none" xmlns="http://www.w3.org/2000/svg">
<g clip-path="url(#clip0_2002_18390)">
<path d="M113.875 125.685C113.831 125.685 113.803 125.684 113.793 125.684L108.491 125.684V124.902H113.812C113.936 124.907 116.45 124.978 118.766 122.167C122.218 117.978 125.052 107.609 118.954 81.997C110.754 47.5579 117.593 17.1329 120.914 5.65054C121.078 5.08246 121.107 4.48411 121 3.90278C120.892 3.32144 120.651 2.77304 120.295 2.30091C119.94 1.82878 119.479 1.44585 118.95 1.18238C118.42 0.918918 117.837 0.782133 117.246 0.782835H38.0535C37.4515 0.783643 36.858 0.926401 36.3215 1.19952C35.7849 1.47264 35.3203 1.86843 34.9653 2.35476C33.5585 4.28994 31.6279 8.00758 30.4198 14.7297L29.6504 14.5915C30.8846 7.72334 32.878 3.89633 34.3329 1.89512C34.7605 1.30911 35.3202 0.832193 35.9667 0.503084C36.6132 0.173976 37.3281 0.00195029 38.0535 0.00097869H117.246C117.958 0.000293183 118.661 0.16528 119.299 0.482904C119.937 0.800529 120.492 1.26209 120.92 1.83112C121.349 2.40015 121.639 3.06105 121.769 3.76162C121.898 4.46219 121.863 5.18323 121.665 5.86777C118.361 17.2906 111.558 47.5577 119.715 81.8161C125.899 107.788 122.926 118.382 119.343 122.696C116.98 125.541 114.376 125.685 113.875 125.685Z" fill="#E6E6E6"/>
<path d="M99.6056 139.954C99.5614 139.954 99.5335 139.953 99.5237 139.952L94.221 139.953V139.171H99.5429C99.6668 139.175 102.18 139.247 104.496 136.436C107.948 132.247 110.783 121.878 104.685 96.2658C96.4848 61.8267 103.324 31.4017 106.645 19.9193C106.808 19.3513 106.838 18.7529 106.73 18.1716C106.623 17.5902 106.382 17.0418 106.026 16.5697C105.67 16.0976 105.209 15.7146 104.68 15.4512C104.151 15.1877 103.568 15.0509 102.977 15.0516H23.7841C23.182 15.0524 22.5886 15.1952 22.052 15.4683C21.5154 15.7414 21.0508 16.1372 20.6959 16.6236C19.289 18.5587 17.3585 22.2764 16.1504 28.9985L15.3809 28.8603C16.6152 21.9921 18.6086 18.1651 20.0635 16.1639C20.491 15.5779 21.0508 15.101 21.6972 14.7719C22.3437 14.4428 23.0586 14.2707 23.7841 14.2698H102.977C103.689 14.2691 104.392 14.4341 105.029 14.7517C105.667 15.0693 106.222 15.5309 106.651 16.0999C107.079 16.6689 107.37 17.3299 107.499 18.0304C107.628 18.731 107.593 19.452 107.396 20.1366C104.092 31.5594 97.2884 61.8265 105.445 96.0849C111.629 122.057 108.656 132.651 105.074 136.965C102.71 139.81 100.107 139.954 99.6056 139.954Z" fill="#CCCCCC"/>
<path d="M85.3374 154.223C85.2931 154.223 85.2652 154.222 85.2555 154.222L7.2836 154.222C6.53291 154.223 5.79344 154.04 5.1299 153.689C4.46637 153.338 3.89898 152.829 3.47742 152.208C3.05585 151.587 2.79294 150.872 2.7117 150.126C2.63046 149.379 2.73336 148.625 3.0114 147.927C5.84048 140.859 9.64969 123.901 3.37556 89.7418C-4.03309 49.4058 2.59962 34.8282 5.79514 30.433C6.22273 29.8469 6.78248 29.37 7.42896 29.0409C8.07543 28.7118 8.79041 28.5398 9.51583 28.5388H88.7083C89.4207 28.5381 90.1235 28.7031 90.7611 29.0207C91.3988 29.3384 91.9539 29.7999 92.3825 30.369C92.8111 30.938 93.1016 31.5989 93.2309 32.2995C93.3602 33 93.3248 33.7211 93.1275 34.4056C89.8237 45.8284 83.0202 76.0956 91.177 110.354C97.3608 136.326 94.3881 146.92 90.8053 151.234C88.4422 154.079 85.8384 154.223 85.3374 154.223ZM9.51583 29.3207C8.91373 29.3215 8.32031 29.4642 7.78372 29.7374C7.24714 30.0105 6.7825 30.4063 6.42754 30.8926C3.29128 35.2064 -3.20943 49.5623 4.14452 89.6006C10.1382 122.233 7.23129 139.488 3.73722 148.218C3.50173 148.794 3.41335 149.419 3.48003 150.038C3.54671 150.657 3.76637 151.249 4.11918 151.761C4.46901 152.279 4.94046 152.702 5.49219 152.995C6.04391 153.288 6.65903 153.441 7.28359 153.44H85.2747C85.3978 153.446 87.9118 153.516 90.2281 150.705C93.6798 146.516 96.5144 136.147 90.4163 110.535C82.2165 76.0958 89.0555 45.6708 92.3764 34.1884C92.54 33.6203 92.5692 33.022 92.4618 32.4406C92.3545 31.8593 92.1134 31.3109 91.7576 30.8388C91.4018 30.3666 90.9411 29.9837 90.4119 29.7202C89.8827 29.4568 89.2994 29.32 88.7083 29.3207H9.51583Z" fill="#3F3D56"/>
<path d="M75.2382 63.7224H13.0806C12.2511 63.7224 11.4556 63.3929 10.8691 62.8064C10.2826 62.2199 9.95312 61.4244 9.95312 60.595C9.95312 59.7655 10.2826 58.97 10.8691 58.3835C11.4556 57.797 12.2511 57.4675 13.0806 57.4675H75.2382C76.0676 57.4675 76.8631 57.797 77.4496 58.3835C78.0361 58.97 78.3656 59.7655 78.3656 60.595C78.3656 61.4244 78.0361 62.2199 77.4496 62.8064C76.8631 63.3929 76.0676 63.7224 75.2382 63.7224Z" fill="#FB8500"/>
<path d="M75.2382 77.0139H13.0806C12.2511 77.0139 11.4556 76.6844 10.8691 76.0979C10.2826 75.5114 9.95312 74.7159 9.95312 73.8865C9.95312 73.057 10.2826 72.2615 10.8691 71.675C11.4556 71.0885 12.2511 70.759 13.0806 70.759H75.2382C76.0676 70.759 76.8631 71.0885 77.4496 71.675C78.0361 72.2615 78.3656 73.057 78.3656 73.8865C78.3656 74.7159 78.0361 75.5114 77.4496 76.0979C76.8631 76.6844 76.0676 77.0139 75.2382 77.0139Z" fill="#CCCCCC"/>
<path d="M75.2382 90.3054H13.0806C12.2511 90.3054 11.4556 89.9759 10.8691 89.3894C10.2826 88.8029 9.95312 88.0074 9.95312 87.178C9.95312 86.3485 10.2826 85.553 10.8691 84.9665C11.4556 84.38 12.2511 84.0505 13.0806 84.0505H75.2382C76.0676 84.0505 76.8631 84.38 77.4496 84.9665C78.0361 85.553 78.3656 86.3485 78.3656 87.178C78.3656 88.0074 78.0361 88.8029 77.4496 89.3894C76.8631 89.9759 76.0676 90.3054 75.2382 90.3054Z" fill="#CCCCCC"/>
<path d="M79.9296 103.597H17.772C16.9425 103.597 16.147 103.267 15.5605 102.681C14.974 102.094 14.6445 101.299 14.6445 100.469C14.6445 99.64 14.974 98.8445 15.5605 98.258C16.147 97.6715 16.9425 97.342 17.772 97.342H79.9296C80.759 97.342 81.5545 97.6715 82.141 98.258C82.7275 98.8445 83.057 99.64 83.057 100.469C83.057 101.299 82.7275 102.094 82.141 102.681C81.5545 103.267 80.759 103.597 79.9296 103.597Z" fill="#CCCCCC"/>
<path d="M79.9296 116.889H17.772C16.9425 116.889 16.147 116.559 15.5605 115.973C14.974 115.386 14.6445 114.591 14.6445 113.761C14.6445 112.932 14.974 112.136 15.5605 111.55C16.147 110.963 16.9425 110.634 17.772 110.634H79.9296C80.759 110.634 81.5545 110.963 82.141 111.55C82.7275 112.136 83.057 112.932 83.057 113.761C83.057 114.591 82.7275 115.386 82.141 115.973C81.5545 116.559 80.759 116.889 79.9296 116.889Z" fill="#CCCCCC"/>
<path d="M42.4002 50.4306H13.0806C12.2511 50.4306 11.4556 50.1011 10.8691 49.5146C10.2826 48.9281 9.95312 48.1327 9.95312 47.3032C9.95312 46.4738 10.2826 45.6783 10.8691 45.0918C11.4556 44.5053 12.2511 44.1758 13.0806 44.1758H42.4002C43.2296 44.1758 44.0251 44.5053 44.6116 45.0918C45.1981 45.6783 45.5276 46.4738 45.5276 47.3032C45.5276 48.1327 45.1981 48.9281 44.6116 49.5146C44.0251 50.1011 43.2296 50.4306 42.4002 50.4306Z" fill="#FB8500"/>
<path d="M38.6137 138.32C39.2447 135.648 42.2095 134.772 44.6334 134.87C46.1648 134.974 47.6839 135.214 49.1724 135.588C50.7299 135.937 52.2722 136.349 53.8068 136.787C56.6209 137.59 59.406 138.56 62.2664 139.188C64.6477 139.71 67.2356 140.016 69.6104 139.295C71.8931 138.602 73.8298 136.9 74.4509 134.547C75.0362 132.33 74.2326 129.906 72.0842 128.893C70.1249 127.969 67.6501 128.439 66.679 130.528C65.5841 132.884 66.6781 135.454 68.4117 137.159C69.3971 138.084 70.4765 138.904 71.6321 139.605C72.8051 140.404 74.1107 140.989 75.4882 141.332C77.7497 141.815 80.4436 141.103 81.6099 138.942C81.8692 138.453 82.0251 137.916 82.068 137.364C82.1371 136.613 80.9638 136.618 80.8952 137.364C80.6975 139.516 78.178 140.523 76.2939 140.287C75.022 140.077 73.8075 139.605 72.7265 138.903C71.6832 138.294 70.6946 137.597 69.7718 136.818C68.1738 135.435 66.6757 133.159 67.749 131.001C68.623 129.244 70.9012 129.261 72.2868 130.395C73.9649 131.767 73.6657 134.258 72.5589 135.888C71.3334 137.693 69.1122 138.449 67.0179 138.531C64.7423 138.619 62.4857 138.097 60.3109 137.48C57.6085 136.712 54.9331 135.853 52.2178 135.131C50.6763 134.721 49.1229 134.351 47.5535 134.063C46.0696 133.736 44.5455 133.63 43.0307 133.749C40.5835 134.032 38.0854 135.457 37.4829 138.008C37.3095 138.742 38.4401 139.055 38.6137 138.32Z" fill="#3F3D56"/>
<path d="M158.434 204.628C158.502 212.326 159.065 220.011 160.122 227.636C160.159 227.904 160.199 228.172 160.236 228.44L232.325 228.037C232.536 227.771 232.744 227.502 232.946 227.23C233.619 226.328 234.25 225.401 234.829 224.442C237.612 219.823 238.887 214.414 237.61 210.682L237.587 210.624C237.311 209.807 236.877 209.052 236.309 208.404C233.398 205.127 227.511 205.673 222.17 208.318C226.961 203.074 230.776 196.456 231.066 190.549C231.35 184.787 228.337 180.672 225.07 177.174C224.962 177.058 224.855 176.946 224.748 176.833C224.696 176.776 224.641 176.721 224.589 176.663C222.039 173.998 219.067 171.37 214.765 171.688C210.047 172.037 204.816 175.989 201.148 180.594C197.48 185.196 195.042 190.424 192.572 195.526C190.098 200.626 187.422 205.855 183.452 210.213C188.829 203.413 193.164 195.675 194.765 188.15C196.366 180.624 194.957 173.397 190.165 169.852C188.71 168.81 187.027 168.13 185.256 167.872C185.049 167.837 184.839 167.809 184.626 167.785C180.19 167.28 174.894 168.814 170.388 172.481C165.425 176.519 161.985 182.505 160.273 188.187C158.561 193.87 158.379 199.34 158.434 204.628Z" fill="#F2F2F2"/>
<path d="M205.598 228.186L206.976 228.179C207.414 227.905 207.854 227.635 208.295 227.367C208.569 227.195 208.846 227.029 209.122 226.859C213.695 224.067 218.296 221.388 222.925 218.823C227.551 216.256 232.199 213.808 236.871 211.477C236.995 211.424 237.096 211.328 237.157 211.207C237.217 211.087 237.234 210.949 237.203 210.817C237.198 210.8 237.19 210.783 237.18 210.769C237.115 210.646 236.969 210.596 236.757 210.7C236.184 210.987 235.607 211.275 235.034 211.568C230.35 213.939 225.685 216.427 221.041 219.034C216.4 221.64 211.785 224.36 207.197 227.196C207.1 227.255 207.004 227.316 206.907 227.375C206.47 227.646 206.035 227.916 205.598 228.186Z" fill="white"/>
<path d="M187.824 228.286L188.677 228.281C188.869 228.012 189.058 227.743 189.25 227.474C193.767 221.14 198.283 214.806 202.798 208.471C210.192 198.102 217.584 187.732 224.973 177.362C225.017 177.306 225.05 177.242 225.069 177.174C225.132 176.944 224.964 176.81 224.748 176.834C224.656 176.847 224.569 176.879 224.491 176.928C224.414 176.978 224.348 177.043 224.297 177.12C220.152 182.936 216.007 188.749 211.864 194.56C204.509 204.878 197.154 215.195 189.801 225.511C189.333 226.166 188.865 226.824 188.398 227.479C188.205 227.748 188.013 228.017 187.824 228.286Z" fill="white"/>
<path d="M168.834 223.336C168.877 224.772 168.973 226.186 169.097 227.586C169.121 227.854 169.145 228.122 169.169 228.39L170.063 228.385C170.036 228.117 170.009 227.849 169.985 227.581C169.796 225.558 169.661 223.512 169.643 221.41C169.619 215.583 170.187 209.768 171.338 204.056C172.561 197.905 174.318 191.873 176.587 186.027C178.97 179.861 181.842 173.896 185.176 168.189C185.239 168.096 185.267 167.983 185.255 167.872C185.218 167.617 184.879 167.541 184.625 167.785C184.575 167.833 184.532 167.887 184.497 167.947C184.084 168.656 183.679 169.368 183.282 170.081C180.07 175.82 177.322 181.806 175.061 187.982C172.909 193.847 171.271 199.889 170.168 206.039C169.134 211.744 168.687 217.54 168.834 223.336Z" fill="white"/>
<path d="M81.7054 138.598C81.5572 138.474 81.4488 138.31 81.3939 138.125C81.339 137.94 81.3401 137.743 81.397 137.558C81.454 137.374 81.5642 137.211 81.7139 137.089C81.8635 136.967 82.0459 136.892 82.2379 136.874C84.3701 136.668 86.522 136.888 88.5681 137.523L109.411 143.96C109.68 144.043 109.931 144.178 110.148 144.359C110.366 144.539 110.546 144.76 110.677 145.01C110.809 145.26 110.891 145.533 110.917 145.814C110.943 146.095 110.914 146.379 110.831 146.648C110.747 146.918 110.612 147.169 110.431 147.386C110.251 147.604 110.03 147.783 109.78 147.915C109.53 148.047 109.257 148.128 108.976 148.155C108.695 148.181 108.411 148.152 108.142 148.068L87.2992 141.631C85.2518 141.001 83.3503 139.97 81.7054 138.598Z" fill="#3F3D56"/>
<path d="M167.142 165.337C166.575 165.1 166.068 164.741 165.656 164.286C165.243 163.832 164.935 163.292 164.754 162.705C164.572 162.119 164.522 161.5 164.605 160.892C164.689 160.283 164.905 159.701 165.239 159.185L161.666 140.502L170.771 139.792L171.321 158.067C172.15 158.684 172.724 159.584 172.934 160.596C173.144 161.608 172.976 162.662 172.46 163.558C171.945 164.455 171.119 165.131 170.139 165.458C169.159 165.786 168.092 165.743 167.142 165.337Z" fill="#FFB8B8"/>
<path d="M161.104 155.695L151.83 112.504C151.449 110.73 151.789 108.877 152.774 107.354C153.759 105.83 155.309 104.76 157.083 104.379C158.857 103.998 160.709 104.338 162.233 105.323C163.757 106.308 164.827 107.858 165.208 109.632L174.482 152.822C174.579 153.278 174.492 153.755 174.238 154.146C173.985 154.538 173.587 154.813 173.131 154.912L163.193 157.045C162.968 157.094 162.734 157.098 162.507 157.056C162.28 157.014 162.063 156.928 161.869 156.803C161.675 156.678 161.507 156.515 161.376 156.325C161.245 156.135 161.153 155.921 161.104 155.695Z" fill="#FB8500"/>
<path d="M145.883 223.637H141.091L138.811 205.151L145.884 205.151L145.883 223.637Z" fill="#FFB8B8"/>
<path d="M137.667 222.267H146.91V228.087H131.848C131.848 227.323 131.998 226.566 132.291 225.86C132.583 225.154 133.012 224.512 133.552 223.972C134.093 223.431 134.734 223.003 135.44 222.71C136.146 222.418 136.903 222.267 137.667 222.267Z" fill="#2F2E41"/>
<path d="M161.911 223.246H157.118L154.838 204.76L161.912 204.76L161.911 223.246Z" fill="#FFB8B8"/>
<path d="M153.695 221.876H162.938V227.696H147.875C147.875 226.932 148.026 226.175 148.318 225.469C148.61 224.763 149.039 224.121 149.58 223.581C150.12 223.041 150.762 222.612 151.468 222.319C152.174 222.027 152.93 221.876 153.695 221.876Z" fill="#2F2E41"/>
<path d="M140.14 220.189C139.961 220.041 139.812 219.859 139.704 219.654C139.595 219.448 139.529 219.223 139.509 218.991L133.937 157.702C133.915 157.464 133.942 157.224 134.016 156.997C134.091 156.77 134.21 156.56 134.368 156.381C134.526 156.202 134.718 156.056 134.934 155.954C135.15 155.851 135.384 155.794 135.623 155.785L163.566 154.737C163.808 154.728 164.049 154.769 164.275 154.857C164.5 154.946 164.704 155.079 164.876 155.251C165.047 155.422 165.181 155.626 165.269 155.851C165.358 156.076 165.399 156.318 165.39 156.559L163.157 217.613C163.14 218.041 162.969 218.447 162.675 218.758C162.381 219.068 161.984 219.261 161.558 219.301L155.924 219.813C155.69 219.834 155.454 219.809 155.231 219.737C155.007 219.666 154.8 219.551 154.622 219.399C154.443 219.246 154.297 219.06 154.192 218.85C154.087 218.641 154.025 218.412 154.009 218.178L151.423 179.391C151.421 179.317 151.405 179.243 151.374 179.175C151.344 179.107 151.3 179.046 151.246 178.995C151.191 178.944 151.127 178.905 151.057 178.879C150.987 178.853 150.913 178.841 150.839 178.844H150.836C150.761 178.841 150.687 178.853 150.617 178.88C150.547 178.906 150.483 178.946 150.428 178.997C150.374 179.049 150.33 179.11 150.3 179.179C150.27 179.247 150.254 179.321 150.253 179.396L147.939 218.444C147.916 218.862 147.743 219.258 147.453 219.56C147.163 219.862 146.775 220.05 146.358 220.09L141.436 220.583C141.204 220.606 140.971 220.584 140.748 220.516C140.526 220.449 140.319 220.337 140.14 220.189Z" fill="#2F2E41"/>
<path d="M150.889 95.2012C156.192 95.2012 160.49 90.9025 160.49 85.5997C160.49 80.2968 156.192 75.998 150.889 75.998C145.586 75.998 141.287 80.2968 141.287 85.5997C141.287 90.9025 145.586 95.2012 150.889 95.2012Z" fill="#FFB8B8"/>
<path d="M132.398 158.117C132.227 157.923 132.102 157.693 132.031 157.444C131.96 157.196 131.945 156.934 131.987 156.679C133.76 145.904 132.76 130.067 131.61 118.678C131.31 115.657 131.811 112.61 133.063 109.844C134.315 107.078 136.273 104.691 138.741 102.923L143.756 98.6249C144.089 98.3425 144.514 98.192 144.951 98.2019L157.408 98.5577C157.857 98.57 158.285 98.7543 158.602 99.0727L160.527 103.335L160.547 103.35C162.84 105.036 164.681 107.264 165.903 109.836C167.125 112.407 167.691 115.241 167.55 118.084L165.716 155.979C165.693 156.42 165.506 156.836 165.191 157.146C164.877 157.455 164.458 157.636 164.017 157.653L133.78 158.715C133.76 158.716 133.741 158.716 133.721 158.716C133.471 158.716 133.223 158.663 132.995 158.56C132.767 158.456 132.563 158.305 132.398 158.117Z" fill="#FB8500"/>
<path d="M96.1302 142.304C96.1151 141.69 96.2348 141.08 96.4808 140.518C96.7268 139.955 97.0932 139.454 97.5541 139.048C98.015 138.642 98.5592 138.343 99.1484 138.17C99.7376 137.998 100.358 137.956 100.964 138.049L116.549 127.143L120.923 135.16L104.474 143.141C104.25 144.15 103.664 145.042 102.827 145.648C101.989 146.254 100.959 146.532 99.9301 146.429C98.9016 146.325 97.9467 145.848 97.2463 145.088C96.546 144.328 96.1489 143.337 96.1302 142.304Z" fill="#FFB8B8"/>
<path d="M109.246 144.199C109.018 144.165 108.798 144.085 108.6 143.966C108.403 143.846 108.231 143.688 108.095 143.501L102.08 135.308C101.805 134.931 101.69 134.461 101.761 134C101.831 133.539 102.082 133.125 102.458 132.848L138.069 106.709C139.532 105.636 141.361 105.187 143.155 105.462C144.043 105.599 144.895 105.908 145.663 106.374C146.432 106.84 147.101 107.452 147.632 108.177C148.164 108.901 148.548 109.723 148.762 110.595C148.976 111.468 149.016 112.374 148.879 113.262C148.743 114.15 148.433 115.003 147.968 115.771C147.502 116.539 146.889 117.208 146.165 117.74L110.554 143.879C110.253 144.1 109.89 144.22 109.517 144.22C109.426 144.22 109.336 144.213 109.246 144.199Z" fill="#FB8500"/>
<path d="M151.38 94.1471C152.654 92.5858 152.514 90.2077 151.492 88.4716C150.47 86.7354 148.736 85.5396 146.95 84.6057C145.165 83.6717 143.269 82.9372 141.589 81.8252C139.909 80.7131 139.982 76.0052 139.535 74.0409L140.602 74.3962C140.192 73.8717 140.06 72.3217 139.65 71.7971C140.856 71.9162 141.783 73.0608 142.988 73.1799L142.293 71.3127C146.427 71.0578 148.997 73.9304 153.131 73.6755C155.179 73.5492 157.403 73.4693 159.087 74.6423C160.55 75.6616 161.291 77.4258 161.777 79.1415C162.82 82.8253 162.982 86.9518 161.18 90.3298C159.378 93.7078 155.223 95.9841 151.594 94.7643L151.38 94.1471Z" fill="#2F2E41"/>
<path d="M98.6663 228.303H247.61C247.714 228.303 247.813 228.262 247.886 228.189C247.96 228.115 248.001 228.016 248.001 227.912C248.001 227.808 247.96 227.709 247.886 227.636C247.813 227.562 247.714 227.521 247.61 227.521H98.6663C98.5626 227.521 98.4632 227.562 98.3899 227.636C98.3166 227.709 98.2754 227.808 98.2754 227.912C98.2754 228.016 98.3166 228.115 98.3899 228.189C98.4632 228.262 98.5626 228.303 98.6663 228.303Z" fill="#3F3D56"/>
</g>
<defs>
<clipPath id="clip0_2002_18390">
<rect width="248" height="228.439" fill="white" transform="translate(0 0.000976562)"/>
</clipPath>
</defs>
</svg>
