<svg width="301" height="268" viewBox="0 0 301 268" fill="none" xmlns="http://www.w3.org/2000/svg">
<g clip-path="url(#clip0_2002_17284)">
<path d="M34.9098 267.213L34.6488 267.116C25.8048 263.781 18.8759 256.723 15.7028 247.82C14.8431 245.345 14.2983 242.772 14.0815 240.162L14.0602 239.913L14.3062 239.957C17.2432 240.484 20.3265 240.775 21.7002 240.889L13.9932 235.789L14.0071 235.524C14.1271 233.035 15.7498 230.868 18.1054 230.053C20.4835 229.175 23.1566 229.832 24.8568 231.712C25.6231 232.544 26.4331 233.381 27.2164 234.191C29.9082 236.973 32.6917 239.85 34.4518 243.246C37.0988 248.478 37.2425 254.626 34.8428 259.977L34.9098 267.213Z" fill="#F2F2F2"/>
<path d="M190.852 262.272L190.848 262.244C190.508 254.68 189.12 247.2 186.724 240.017L186.722 240.005C186.582 239.267 186.623 238.506 186.84 237.788C187.509 235.728 189.584 234.467 191.72 234.822C193.927 235.237 196.21 234.847 198.154 233.723C199.389 233.007 200.887 232.908 202.206 233.455C203.449 233.962 204.379 235.027 204.713 236.327C204.739 236.43 204.762 236.533 204.782 236.638C204.852 244.238 206.248 251.767 208.907 258.887L208.908 258.896C209.187 260.366 208.743 261.881 207.715 262.968C206.807 263.89 205.534 264.358 204.245 264.243C201.93 264.086 199.55 264.555 196.968 265.679C196.066 266.08 195.052 266.152 194.103 265.88C192.424 265.388 191.167 263.992 190.852 262.272Z" fill="#FB8500"/>
<path d="M116.873 158.364V257.696H186.462V158.364C186.464 156.897 185.509 155.601 184.108 155.168C183.786 155.062 183.449 155.009 183.11 155.013H120.234C118.381 155.009 116.877 156.508 116.873 158.361V158.364ZM144.03 192.495C144.068 188.392 147.425 185.097 151.527 185.135C155.577 185.172 158.85 188.445 158.888 192.495V204.02C158.868 208.123 155.527 211.433 151.424 211.414C147.349 211.394 144.05 208.096 144.03 204.02V192.495Z" fill="#F2F2F2"/>
<path d="M116.66 254.519V264.097C116.663 265.13 117.497 265.968 118.529 265.976H184.806C185.84 265.971 186.675 265.131 186.675 264.097V254.519H116.66Z" fill="#E6E6E6"/>
<path d="M7.40039 8.70709V190.073C7.4042 194.886 11.3046 198.786 16.1171 198.79H284.883C289.695 198.786 293.596 194.886 293.6 190.073V8.70709C293.588 3.89927 289.691 0.0060989 284.883 0H16.1171C11.3093 0.00612287 7.41184 3.89928 7.40039 8.70709Z" fill="#E6E6E6"/>
<path d="M282.64 6.29493H18.3588C15.7844 6.30053 13.7004 8.38889 13.7002 10.9632V187.835C13.7046 190.406 15.7877 192.489 18.3588 192.494H282.64C285.211 192.489 287.294 190.406 287.299 187.835V10.9632C287.299 8.38888 285.215 6.30053 282.64 6.29493ZM215.974 131.955C215.184 133.515 213.582 134.497 211.833 134.493L211.806 134.491C209.272 134.138 206.729 133.906 204.177 133.793C204.573 134.077 204.922 134.422 205.21 134.815C205.951 135.876 206.178 137.213 205.83 138.46C205.253 140.706 205.28 143.132 205.915 145.876C206.145 146.836 206.03 147.846 205.59 148.73C204.8 150.29 203.198 151.272 201.449 151.268L201.421 151.266C195.371 150.424 189.245 150.26 183.158 150.78C183.134 150.933 183.104 151.087 183.064 151.241C182.487 153.487 182.514 155.913 183.149 158.657C183.379 159.617 183.264 160.627 182.824 161.511C182.034 163.071 180.432 164.053 178.683 164.049L178.655 164.047C172.441 163.182 166.148 163.034 159.901 163.606C159.853 165.166 160.015 166.725 160.383 168.243C160.613 169.202 160.498 170.213 160.058 171.096C159.268 172.657 157.666 173.639 155.917 173.635L155.889 173.633C148.39 172.588 140.781 172.588 133.282 173.633H133.27C132.519 173.636 131.779 173.457 131.112 173.112C129.209 172.079 128.347 169.809 129.086 167.773C129.313 167.132 129.481 166.472 129.589 165.801C122.716 165.009 115.771 165.09 108.918 166.044H108.906C108.155 166.047 107.415 165.869 106.748 165.524C104.845 164.49 103.984 162.22 104.722 160.184C105.533 158.09 105.566 155.775 104.816 153.658C104.463 152.666 104.462 151.582 104.816 150.589C99.6498 150.326 94.4707 150.553 89.3476 151.266H89.3355C88.5847 151.269 87.8443 151.091 87.1774 150.746C85.2743 149.712 84.413 147.442 85.1515 145.406C85.9618 143.312 85.995 140.997 85.2451 138.88C84.7661 137.536 84.9419 136.044 85.7206 134.848C86.4456 133.718 87.6626 132.998 89.002 132.906C89.1073 132.899 89.213 132.896 89.3199 132.896C91.9447 133.355 94.5948 133.654 97.2558 133.792C95.5583 132.676 94.8471 130.542 95.536 128.631C96.3463 126.537 96.3795 124.222 95.6296 122.105C95.1506 120.761 95.3264 119.269 96.1051 118.073C96.1388 118.021 96.178 117.976 96.2135 117.926C94.3199 118.056 92.4306 118.253 90.5458 118.515H90.5337C89.7829 118.518 89.0425 118.339 88.3756 117.994C86.4725 116.961 85.6113 114.691 86.3497 112.655C87.16 110.561 87.1932 108.246 86.4433 106.129C85.9643 104.784 86.1402 103.293 86.9188 102.097C87.6438 100.967 88.8608 100.247 90.2002 100.155C90.3055 100.148 90.4112 100.145 90.5181 100.145C93.6742 100.697 96.8665 101.018 100.069 101.106C99.2522 99.9284 99.0515 98.4296 99.5301 97.0784C100.34 94.9842 100.374 92.669 99.6237 90.5524C99.1447 89.2077 99.3205 87.7164 100.099 86.52C100.824 85.3901 102.041 84.67 103.381 84.5785C103.486 84.5715 103.592 84.5678 103.698 84.5678C106.369 85.0349 109.066 85.3368 111.774 85.4719C111.193 84.3703 111.098 83.0758 111.512 81.9011C112.323 79.8069 112.356 77.4916 111.606 75.3751C111.127 74.0303 111.303 72.539 112.081 71.3426C112.806 70.2127 114.023 69.4927 115.363 69.4012C115.468 69.3941 115.574 69.3904 115.681 69.3904C118.823 69.9405 122.002 70.2615 125.191 70.3506C124.757 69.3248 124.722 68.1737 125.092 67.1231C125.902 65.0289 125.935 62.7137 125.186 60.5971C124.707 59.2523 124.882 57.7611 125.661 56.5646C126.386 55.4347 127.603 54.7147 128.942 54.6232C129.048 54.6162 129.153 54.6125 129.26 54.6125C136.745 55.9299 144.403 55.9309 151.888 54.6154H151.898C152.475 54.7344 153.071 54.7344 153.649 54.6154H153.658C161.144 55.9309 168.801 55.9299 176.286 54.6125C176.393 54.6125 176.499 54.6162 176.604 54.6232C177.944 54.7147 179.161 55.4347 179.886 56.5646C180.664 57.7611 180.84 59.2523 180.361 60.5971C179.611 62.7137 179.644 65.0289 180.455 67.1231C180.825 68.1737 180.79 69.3248 180.355 70.3506C183.545 70.2615 186.723 69.9405 189.866 69.3904C189.973 69.3904 190.079 69.3941 190.184 69.4012C191.523 69.4926 192.74 70.2127 193.465 71.3426C194.244 72.5391 194.42 74.0303 193.941 75.3751C193.191 77.4916 193.224 79.8069 194.034 81.9011C194.449 83.0758 194.354 84.3703 193.772 85.4719C196.48 85.3368 199.177 85.0349 201.848 84.5678C201.955 84.5678 202.061 84.5715 202.166 84.5785C203.505 84.67 204.722 85.3901 205.447 86.52C206.226 87.7164 206.402 89.2077 205.923 90.5524C205.173 92.669 205.206 94.9842 206.017 97.0784C206.496 98.433 206.293 99.9358 205.472 101.115C205.828 101.384 206.144 101.704 206.408 102.064C207.149 103.125 207.377 104.462 207.029 105.709C206.451 107.955 206.479 110.381 207.113 113.125C207.343 114.085 207.228 115.095 206.788 115.979C206.627 116.293 206.431 116.588 206.204 116.859C208.074 116.695 209.939 116.45 211.799 116.124H211.808C213.305 116.118 214.713 116.831 215.594 118.04C216.335 119.101 216.563 120.438 216.215 121.685C215.638 123.931 215.665 126.357 216.299 129.101C216.529 130.061 216.414 131.071 215.974 131.955Z" fill="white"/>
<path d="M274.068 30.6601H26.7813C26.2382 30.6482 25.8076 30.1982 25.8196 29.6551C25.8312 29.1288 26.255 28.705 26.7813 28.6934H274.068C274.612 28.7053 275.042 29.1553 275.03 29.6984C275.019 30.2247 274.595 30.6485 274.068 30.6601Z" fill="#E6E6E6"/>
<path d="M153.413 168.924L153.385 168.922C145.886 167.877 138.278 167.877 130.778 168.922H130.766C130.016 168.925 129.275 168.747 128.608 168.402C126.705 167.368 125.844 165.098 126.582 163.062C127.393 160.968 127.426 158.653 126.676 156.536C126.197 155.192 126.373 153.7 127.151 152.504C127.876 151.374 129.093 150.654 130.433 150.562C130.538 150.555 130.644 150.552 130.751 150.552C138.236 151.869 145.893 151.87 153.379 150.555H153.388C154.884 150.549 156.292 151.262 157.174 152.471C157.915 153.532 158.143 154.869 157.795 156.116C157.217 158.362 157.245 160.788 157.879 163.532C158.109 164.492 157.994 165.502 157.554 166.386C156.764 167.946 155.162 168.929 153.413 168.924Z" fill="#FB8500"/>
<path d="M176.475 129.763L170.442 124.771C165.918 127.142 159.033 136.609 159.033 136.609L143.151 148.032C141.244 148.123 139.772 149.743 139.862 151.65C139.953 153.557 141.573 155.03 143.48 154.939C144.718 154.88 145.83 154.163 146.394 153.06L167.973 141.657L176.475 129.763Z" fill="#FFB8B8"/>
<path d="M186.655 110.761C190.137 113.71 190.569 118.924 187.62 122.406C187.29 122.796 186.924 123.155 186.527 123.478L182.69 126.596C182.69 126.596 173.12 140.373 168.139 141.972L155.35 148.653L149.584 142.871L161.174 133.425C161.174 133.425 166.505 128.383 167.039 124.692C167.366 122.432 171.191 116.274 175.026 111.707C177.969 108.235 183.17 107.807 186.642 110.75L186.655 110.761Z" fill="#3F3D56"/>
<path d="M174.256 260.281L168.805 260.28L166.212 239.256L174.257 239.256L174.256 260.281Z" fill="#FFB6B6"/>
<path d="M174.447 265.967L157.686 265.966V265.754C157.686 262.151 160.607 259.23 164.21 259.23L167.272 256.907L172.984 259.23L174.447 259.23L174.447 265.967Z" fill="#2F2E41"/>
<path d="M215.787 231.591L213.206 236.392L193.46 228.72L197.27 221.635L215.787 231.591Z" fill="#FFB6B6"/>
<path d="M220.886 234.115L212.949 248.878L212.762 248.778C209.589 247.071 208.399 243.115 210.105 239.942L210.105 239.942L209.509 236.145L214.261 232.214L214.953 230.925L220.886 234.115Z" fill="#2F2E41"/>
<path d="M163.95 163.999L159.14 202.485L161.545 215.388L204.842 234.357L207.248 226.539C196.18 219.767 184.349 209.518 176.895 208.765C176.895 208.765 176.277 201.935 181.617 197.72C182.695 196.869 182.459 195.719 182.895 194.676C183.194 193.959 184.386 193.212 184.692 192.476C185.087 191.522 184.598 190.575 184.995 189.606C185.219 189.061 186.067 189.027 186.289 188.482C186.668 187.552 186.42 186.112 186.79 185.193C187.579 183.229 188.338 181.309 189.031 179.509C191.188 173.907 192.706 169.468 192.515 168.509C191.913 165.502 163.95 163.999 163.95 163.999Z" fill="#2F2E41"/>
<path d="M163.121 202.375L160.604 218.628L166.957 251.797H175.376C178.4 240.652 178.556 226.004 175.676 213.611L163.121 202.375Z" fill="#2F2E41"/>
<path d="M168.531 116.977L172.412 110.214L176.579 106.872L184.396 105.669L186.568 107.339C194.384 119.285 197.299 133.783 194.707 147.822L194.097 151.127L193.71 153.224L193.878 155.731L192.573 159.382L192.752 162.055L192.848 163.482L192.944 164.915L193.079 166.915C193.319 168.056 192.109 167.906 192.28 168.912C192.58 170.679 193.929 173.297 191.88 173.305L170.712 168.912C165.334 168.934 160.328 162.521 165.52 157.329L168.531 116.977Z" fill="#3F3D56"/>
<path d="M178.439 103.784C184.117 103.784 188.719 99.1819 188.719 93.5049C188.719 87.8278 184.117 83.2256 178.439 83.2256C172.762 83.2256 168.16 87.8278 168.16 93.5049C168.16 99.1819 172.762 103.784 178.439 103.784Z" fill="#FFB8B8"/>
<path d="M178.613 103.493C180.117 103.516 181.62 103.411 183.106 103.179C184.58 102.879 187.875 100.464 188.794 99.0111C189.476 97.9314 189.913 96.2453 190.159 95.0211C190.829 91.7449 190.078 88.3383 188.093 85.647C187.716 85.0903 187.196 84.646 186.587 84.3609C186.533 84.3398 186.477 84.3211 186.421 84.3051C185.534 84.0716 184.736 83.5782 184.131 82.8883C184.014 82.7487 183.887 82.6178 183.751 82.4966C183.067 81.9196 182.256 81.5125 181.385 81.3088C179.979 80.9324 177.944 81.306 175.337 82.4202C174.027 82.98 172.594 82.7774 171.492 82.5383C171.367 82.514 171.237 82.5583 171.153 82.6547C170.684 83.0948 170.066 83.3412 169.423 83.3443C169.029 83.3616 168.616 83.907 168.116 84.6182C168.003 84.7797 167.87 84.9681 167.775 85.0827L167.762 84.8625L167.54 85.1081C166.393 86.3716 166.488 88.3251 167.752 89.4714C168.091 89.7795 168.495 90.0081 168.934 90.1407C169.33 90.2461 169.736 90.3108 170.146 90.3337C170.394 90.356 170.65 90.3791 170.896 90.4218C172.501 90.7504 173.815 91.898 174.357 93.4439C174.584 94.077 175.281 94.4063 175.914 94.1793C176.014 94.1436 176.108 94.0952 176.195 94.0352C176.715 93.6305 177.4 93.5058 178.029 93.7013C178.296 93.8502 178.505 94.0867 178.619 94.371C178.758 94.6878 178.988 94.9561 179.28 95.1417C180.278 95.6564 180.347 97.9364 179.988 99.8371C179.642 101.669 178.959 102.995 178.327 103.06C177.84 103.111 177.784 103.145 177.749 103.231L177.717 103.308L177.772 103.38C178.041 103.478 178.328 103.516 178.613 103.493Z" fill="#2F2E41"/>
<path d="M157.807 97.4302L157.779 97.4283C150.279 96.3833 142.671 96.3833 135.172 97.4283H135.16C134.409 97.4311 133.669 97.2525 133.002 96.9075C131.099 95.874 130.237 93.6041 130.976 91.5682C131.786 89.474 131.819 87.1588 131.069 85.0422C130.59 83.6975 130.766 82.2062 131.545 81.0098C132.27 79.8799 133.487 79.1598 134.826 79.0683C134.932 79.0613 135.037 79.0576 135.144 79.0576C142.629 80.3751 150.287 80.3761 157.772 79.0605H157.782C159.278 79.0553 160.686 79.7679 161.568 80.9768C162.309 82.0381 162.536 83.375 162.188 84.6216C161.611 86.8682 161.638 89.2941 162.273 92.0379C162.503 92.9978 162.388 94.008 161.948 94.8916C161.158 96.4522 159.556 97.4344 157.807 97.4302Z" fill="#FB8500"/>
<path d="M167.419 121.641L171.672 115.065C168.789 110.849 158.581 105.118 158.581 105.118L145.381 90.6801C145.068 88.7965 143.287 87.5233 141.404 87.8364C139.52 88.1495 138.247 89.9303 138.56 91.8139C138.763 93.0363 139.605 94.0565 140.767 94.488L154.613 114.586L167.419 121.641Z" fill="#FFB8B8"/>
<path d="M187.48 129.529C184.958 133.332 179.831 134.371 176.028 131.849C175.602 131.566 175.203 131.245 174.836 130.888L171.29 127.443C171.29 127.443 156.426 119.681 154.257 114.921L144.518 101.107L151.048 95.2158L162.398 105.534C162.398 105.534 167.624 111.577 171.352 111.676C173.635 111.736 180.198 114.816 185.182 118.091C188.974 120.608 190.007 125.723 187.49 129.515L187.48 129.529Z" fill="#3F3D56"/>
<path d="M88.4638 265.907L88.4361 265.905C80.9367 264.86 73.3286 264.86 65.8292 265.905H65.8171C65.0663 265.908 64.3259 265.729 63.659 265.384C61.7559 264.351 60.8946 262.081 61.6331 260.045C62.4434 257.951 62.4766 255.635 61.7267 253.519C61.2477 252.174 61.4235 250.683 62.2022 249.486C62.9272 248.356 64.1442 247.636 65.4836 247.545C65.5889 247.538 65.6946 247.534 65.8015 247.534C73.2865 248.852 80.9441 248.853 88.4295 247.537H88.4388C89.9351 247.532 91.3432 248.244 92.225 249.453C92.9657 250.515 93.1933 251.852 92.8455 253.098C92.2683 255.345 92.2955 257.771 92.9298 260.514C93.1598 261.474 93.0448 262.485 92.6049 263.368C91.815 264.929 90.2129 265.911 88.4638 265.907Z" fill="#FB8500"/>
<path d="M94.8544 249.131L94.8267 249.129C87.3273 248.085 79.7192 248.085 72.2198 249.129H72.2077C71.4569 249.132 70.7165 248.954 70.0496 248.609C68.1465 247.575 67.2853 245.305 68.0237 243.269C68.834 241.175 68.8672 238.86 68.1173 236.743C67.6383 235.399 67.8142 233.907 68.5928 232.711C69.3178 231.581 70.5348 230.861 71.8742 230.77C71.9795 230.762 72.0852 230.759 72.1921 230.759C79.6772 232.076 87.3347 232.077 94.8201 230.762H94.8294C96.3257 230.756 97.7338 231.469 98.6156 232.678C99.3564 233.739 99.584 235.076 99.2361 236.323C98.6589 238.569 98.6862 240.995 99.3204 243.739C99.5505 244.699 99.4355 245.709 98.9955 246.593C98.2056 248.153 96.6035 249.136 94.8544 249.131Z" fill="#FB8500"/>
<path d="M38.9329 253.705L38.95 253.683C44.0176 248.057 48.2806 241.756 51.6172 234.959L51.624 234.949C52.0423 234.325 52.6051 233.812 53.2645 233.453C55.1869 232.456 57.5496 233.014 58.822 234.767C60.1026 236.611 62.0016 237.936 64.1749 238.501C65.5571 238.858 66.6938 239.839 67.2485 241.154C67.7781 242.388 67.6926 243.799 67.0179 244.96C66.9647 245.051 66.9085 245.141 66.8486 245.229C61.5634 250.691 57.2719 257.033 54.1673 263.97L54.162 263.978C53.328 265.22 51.9487 265.987 50.4534 266.04C49.1593 266.059 47.9245 265.498 47.0868 264.512C45.5494 262.775 43.5248 261.438 40.8969 260.426C39.9729 260.079 39.2006 259.417 38.7152 258.558C37.8652 257.029 37.9494 255.152 38.9329 253.705Z" fill="#FB8500"/>
<path d="M300.027 266.516L0.973085 266.638C0.710441 266.637 0.498633 266.423 0.500007 266.16C0.501365 265.9 0.712378 265.689 0.973085 265.687L300.027 265.564C300.29 265.566 300.501 265.78 300.5 266.042C300.499 266.303 300.288 266.514 300.027 266.516Z" fill="#CACACA"/>
<path d="M64.5055 21.5308C66.3709 21.5308 67.8831 19.9848 67.8831 18.0779C67.8831 16.1709 66.3709 14.625 64.5055 14.625C62.6401 14.625 61.1279 16.1709 61.1279 18.0779C61.1279 19.9848 62.6401 21.5308 64.5055 21.5308Z" fill="#FB8500"/>
<path d="M76.1735 21.5308C78.0389 21.5308 79.5511 19.9848 79.5511 18.0779C79.5511 16.1709 78.0389 14.625 76.1735 14.625C74.3081 14.625 72.7959 16.1709 72.7959 18.0779C72.7959 19.9848 74.3081 21.5308 76.1735 21.5308Z" fill="#FB8500"/>
<path d="M87.8415 21.5308C89.7069 21.5308 91.2191 19.9848 91.2191 18.0779C91.2191 16.1709 89.7069 14.625 87.8415 14.625C85.9761 14.625 84.4639 16.1709 84.4639 18.0779C84.4639 19.9848 85.9761 21.5308 87.8415 21.5308Z" fill="#FB8500"/>
<path d="M101.146 20.8065C101.042 20.8065 100.939 20.7663 100.861 20.6864L98.5817 18.3566C98.4298 18.2014 98.4298 17.9533 98.5817 17.7981L100.861 15.4686C101.015 15.311 101.269 15.3085 101.426 15.4623C101.583 15.6166 101.586 15.8695 101.432 16.0271L99.426 18.0774L101.432 20.1278C101.586 20.2854 101.583 20.5384 101.426 20.6926C101.348 20.7687 101.247 20.8065 101.146 20.8065Z" fill="#FB8500"/>
<path d="M104.976 20.8068C104.875 20.8068 104.774 20.769 104.696 20.6929C104.539 20.5386 104.536 20.2859 104.69 20.1281L106.696 18.0777L104.69 16.0274C104.536 15.8698 104.539 15.6169 104.696 15.4626C104.854 15.3082 105.107 15.3111 105.261 15.4689L107.54 17.7984C107.692 17.9536 107.692 18.2017 107.54 18.3569L105.261 20.6867C105.183 20.7666 105.079 20.8068 104.976 20.8068Z" fill="#FB8500"/>
<path d="M224.202 15.0244H219.965C219.481 15.0244 219.09 15.4158 219.09 15.8991V20.1408C219.09 20.6241 219.481 21.0155 219.965 21.0155H224.202C224.685 21.0155 225.081 20.6241 225.081 20.1408V15.8991C225.081 15.4158 224.685 15.0244 224.202 15.0244Z" fill="#FB8500"/>
<path d="M213.817 15.0244H209.58C209.096 15.0244 208.705 15.4158 208.705 15.8991V20.1408C208.705 20.6241 209.096 21.0155 209.58 21.0155H213.817C214.301 21.0155 214.696 20.6241 214.696 20.1408V15.8991C214.696 15.4158 214.301 15.0244 213.817 15.0244Z" fill="#FB8500"/>
<path d="M233.987 15.2246H229.75C229.266 15.2246 228.875 15.616 228.875 16.0993V20.341C228.875 20.8243 229.266 21.2157 229.75 21.2157H233.987C234.471 21.2157 234.866 20.8243 234.866 20.341V16.0993C234.866 15.616 234.471 15.2246 233.987 15.2246Z" fill="#FB8500"/>
<path d="M170.114 16.8379H136.24C135.649 16.8379 135.174 17.3172 135.174 17.9043C135.174 18.4915 135.649 18.9707 136.24 18.9707H170.114C170.701 18.9707 171.18 18.4914 171.18 17.9043C171.18 17.3172 170.701 16.8379 170.114 16.8379Z" fill="#FB8500"/>
</g>
<defs>
<clipPath id="clip0_2002_17284">
<rect width="300" height="267.213" fill="white" transform="translate(0.5)"/>
</clipPath>
</defs>
</svg>
