<svg width="300" height="268" viewBox="0 0 300 268" fill="none" xmlns="http://www.w3.org/2000/svg">
<g clip-path="url(#clip0_1856_15226)">
<path d="M34.4093 267.213L34.1483 267.116C25.3043 263.781 18.3754 256.723 15.2023 247.82C14.3426 245.345 13.7979 242.772 13.581 240.162L13.5597 239.913L13.8057 239.957C16.7427 240.484 19.826 240.775 21.1997 240.889L13.4927 235.789L13.5066 235.524C13.6266 233.035 15.2493 230.868 17.6049 230.053C19.983 229.175 22.6561 229.832 24.3563 231.712C25.1226 232.544 25.9326 233.381 26.7159 234.191C29.4077 236.973 32.1912 239.85 33.9513 243.246C36.5983 248.478 36.742 254.626 34.3423 259.977L34.4093 267.213Z" fill="#F2F2F2"/>
<path d="M190.352 262.272L190.348 262.244C190.008 254.68 188.62 247.2 186.224 240.017L186.222 240.005C186.082 239.267 186.123 238.506 186.34 237.788C187.009 235.728 189.084 234.467 191.22 234.822C193.427 235.237 195.71 234.847 197.654 233.723C198.889 233.007 200.387 232.908 201.706 233.455C202.949 233.962 203.879 235.027 204.213 236.327C204.239 236.43 204.262 236.533 204.282 236.638C204.352 244.238 205.748 251.767 208.407 258.887L208.408 258.896C208.687 260.366 208.243 261.881 207.215 262.968C206.307 263.89 205.034 264.358 203.745 264.243C201.43 264.086 199.05 264.555 196.468 265.679C195.566 266.08 194.552 266.152 193.603 265.88C191.924 265.388 190.667 263.992 190.352 262.272Z" fill="#4A2D73"/>
<path d="M116.373 158.363V257.695H185.962V158.363C185.964 156.897 185.009 155.6 183.608 155.167C183.286 155.061 182.949 155.009 182.61 155.012H119.734C117.881 155.009 116.377 156.508 116.373 158.36V158.363ZM143.53 192.494C143.568 188.392 146.925 185.096 151.027 185.134C155.077 185.171 158.35 188.445 158.388 192.494V204.02C158.368 208.122 155.027 211.433 150.924 211.413C146.849 211.394 143.55 208.095 143.53 204.02V192.494Z" fill="#F2F2F2"/>
<path d="M116.16 254.519V264.098C116.163 265.13 116.996 265.968 118.029 265.976H184.305C185.339 265.971 186.175 265.132 186.174 264.098V254.519H116.16Z" fill="#E6E6E6"/>
<path d="M6.90039 8.70709V190.073C6.9042 194.886 10.8046 198.786 15.6171 198.79H284.383C289.195 198.786 293.096 194.886 293.1 190.073V8.70709C293.088 3.89927 289.191 0.0060989 284.383 0H15.6171C10.8093 0.00612287 6.91184 3.89928 6.90039 8.70709Z" fill="#E6E6E6"/>
<path d="M282.141 6.29541H17.8593C15.2849 6.30101 13.2009 8.38938 13.2007 10.9637V187.836C13.2051 190.407 15.2882 192.49 17.8593 192.494H282.141C284.712 192.49 286.795 190.407 286.799 187.836V10.9637C286.799 8.38937 284.715 6.30102 282.141 6.29541ZM215.475 131.955C214.685 133.516 213.083 134.498 211.334 134.494L211.306 134.492C208.772 134.139 206.23 133.906 203.677 133.794C204.074 134.077 204.422 134.422 204.71 134.815C205.451 135.877 205.679 137.213 205.331 138.46C204.754 140.707 204.781 143.133 205.415 145.876C205.645 146.836 205.53 147.847 205.09 148.73C204.3 150.291 202.698 151.273 200.949 151.269L200.921 151.267C194.871 150.424 188.745 150.261 182.659 150.78C182.635 150.934 182.604 151.088 182.565 151.241C181.988 153.488 182.015 155.914 182.649 158.657C182.879 159.617 182.764 160.627 182.324 161.511C181.534 163.072 179.932 164.054 178.183 164.05L178.155 164.048C171.942 163.183 165.649 163.035 159.401 163.606C159.354 165.166 159.516 166.726 159.883 168.243C160.113 169.203 159.998 170.213 159.558 171.097C158.768 172.657 157.166 173.64 155.417 173.635L155.389 173.633C147.89 172.589 140.282 172.589 132.783 173.633H132.77C132.02 173.636 131.279 173.458 130.612 173.113C128.709 172.079 127.848 169.809 128.586 167.773C128.813 167.133 128.981 166.473 129.09 165.801C122.217 165.009 115.271 165.091 108.419 166.045H108.407C107.656 166.048 106.916 165.869 106.249 165.524C104.346 164.491 103.484 162.221 104.223 160.185C105.033 158.091 105.066 155.775 104.316 153.659C103.963 152.666 103.963 151.582 104.316 150.59C99.1503 150.327 93.9712 150.553 88.8481 151.267H88.836C88.0852 151.27 87.3448 151.091 86.6779 150.746C84.7748 149.713 83.9135 147.443 84.652 145.407C85.4623 143.313 85.4955 140.997 84.7456 138.881C84.2666 137.536 84.4424 136.045 85.2211 134.848C85.9461 133.718 87.1631 132.998 88.5025 132.907C88.6078 132.9 88.7135 132.896 88.8204 132.896C91.4452 133.355 94.0953 133.654 96.7563 133.793C95.0588 132.677 94.3476 130.543 95.0365 128.632C95.8468 126.538 95.88 124.222 95.1301 122.106C94.6511 120.761 94.8269 119.27 95.6056 118.073C95.6393 118.022 95.6785 117.976 95.714 117.926C93.8204 118.057 91.9311 118.253 90.0463 118.516H90.0342C89.2834 118.519 88.543 118.34 87.8761 117.995C85.973 116.961 85.1117 114.692 85.8502 112.656C86.6605 110.561 86.6937 108.246 85.9438 106.13C85.4648 104.785 85.6406 103.294 86.4193 102.097C87.1443 100.967 88.3613 100.247 89.7007 100.156C89.806 100.149 89.9117 100.145 90.0186 100.145C93.1747 100.698 96.367 101.019 99.5699 101.107C98.7527 99.9289 98.552 98.4301 99.0305 97.0789C99.8409 94.9847 99.8741 92.6695 99.1242 90.5529C98.6451 89.2082 98.821 87.7169 99.5996 86.5204C100.325 85.3906 101.542 84.6705 102.881 84.579C102.986 84.572 103.092 84.5683 103.199 84.5683C105.87 85.0354 108.567 85.3373 111.275 85.4724C110.693 84.3708 110.598 83.0763 111.013 81.9015C111.823 79.8073 111.856 77.4921 111.106 75.3755C110.627 74.0308 110.803 72.5395 111.582 71.3431C112.307 70.2132 113.524 69.4931 114.863 69.4016C114.968 69.3946 115.074 69.3909 115.181 69.3909C118.324 69.941 121.502 70.2619 124.692 70.3511C124.257 69.3252 124.222 68.1742 124.592 67.1236C125.403 65.0294 125.436 62.7142 124.686 60.5976C124.207 59.2528 124.383 57.7616 125.161 56.5651C125.887 55.4352 127.104 54.7152 128.443 54.6237C128.548 54.6167 128.654 54.613 128.761 54.613C136.246 55.9304 143.903 55.9314 151.389 54.6159H151.398C151.976 54.7349 152.572 54.7349 153.149 54.6159H153.159C160.644 55.9314 168.302 55.9304 175.787 54.613C175.894 54.613 175.999 54.6167 176.105 54.6237C177.444 54.7152 178.661 55.4352 179.386 56.5651C180.165 57.7616 180.341 59.2528 179.862 60.5976C179.112 62.7142 179.145 65.0294 179.955 67.1236C180.326 68.1742 180.29 69.3252 179.856 70.3511C183.045 70.2619 186.224 69.941 189.366 69.3909C189.473 69.3909 189.579 69.3946 189.684 69.4016C191.024 69.4931 192.241 70.2132 192.966 71.3431C193.744 72.5395 193.92 74.0308 193.441 75.3755C192.691 77.4921 192.725 79.8073 193.535 81.9015C193.95 83.0763 193.854 84.3708 193.273 85.4724C195.981 85.3373 198.678 85.0354 201.349 84.5683C201.455 84.5683 201.561 84.572 201.667 84.579C203.006 84.6705 204.223 85.3906 204.948 86.5204C205.727 87.7169 205.902 89.2082 205.423 90.5529C204.674 92.6695 204.707 94.9847 205.517 97.0789C205.997 98.4335 205.794 99.9363 204.972 101.115C205.329 101.384 205.644 101.704 205.909 102.064C206.649 103.126 206.877 104.462 206.529 105.709C205.952 107.956 205.979 110.382 206.613 113.125C206.844 114.085 206.728 115.095 206.289 115.979C206.128 116.294 205.932 116.589 205.704 116.86C207.574 116.695 209.439 116.45 211.299 116.124H211.309C212.805 116.119 214.213 116.832 215.095 118.04C215.836 119.102 216.063 120.439 215.715 121.685C215.138 123.932 215.166 126.358 215.8 129.101C216.03 130.061 215.915 131.072 215.475 131.955Z" fill="white"/>
<path d="M273.569 30.6604H26.2818C25.7387 30.6484 25.3081 30.1984 25.3201 29.6553C25.3317 29.1291 25.7555 28.7052 26.2818 28.6936H273.569C274.112 28.7056 274.543 29.1555 274.531 29.6987C274.519 30.2249 274.095 30.6488 273.569 30.6604Z" fill="#E6E6E6"/>
<path d="M152.913 168.924L152.885 168.922C145.386 167.877 137.778 167.877 130.278 168.922H130.266C129.516 168.925 128.775 168.746 128.108 168.401C126.205 167.368 125.344 165.098 126.082 163.062C126.893 160.968 126.926 158.652 126.176 156.536C125.697 155.191 125.873 153.7 126.651 152.503C127.376 151.374 128.593 150.653 129.933 150.562C130.038 150.555 130.144 150.551 130.251 150.551C137.736 151.869 145.393 151.87 152.879 150.554H152.888C154.384 150.549 155.792 151.262 156.674 152.47C157.415 153.532 157.643 154.869 157.295 156.115C156.717 158.362 156.745 160.788 157.379 163.532C157.609 164.491 157.494 165.502 157.054 166.385C156.264 167.946 154.662 168.928 152.913 168.924Z" fill="#4A2D73"/>
<path d="M175.976 129.764L169.942 124.771C165.418 127.142 158.534 136.61 158.534 136.61L142.652 148.032C140.745 148.123 139.272 149.743 139.363 151.65C139.454 153.558 141.074 155.03 142.981 154.939C144.219 154.88 145.33 154.164 145.894 153.06L167.473 141.657L175.976 129.764Z" fill="#FFB8B8"/>
<path d="M186.154 110.761C189.637 113.711 190.069 118.924 187.12 122.406C186.789 122.797 186.423 123.155 186.026 123.478L182.19 126.597C182.19 126.597 172.62 140.373 167.638 141.972L154.85 148.653L149.083 142.871L160.674 133.426C160.674 133.426 166.005 128.383 166.538 124.692C166.865 122.432 170.691 116.275 174.526 111.707C177.469 108.236 182.669 107.807 186.141 110.75L186.154 110.761Z" fill="#3F3D56"/>
<path d="M173.756 260.28L168.305 260.28L165.712 239.255L173.757 239.256L173.756 260.28Z" fill="#FFB6B6"/>
<path d="M173.947 265.967L157.186 265.966V265.754C157.186 262.151 160.107 259.23 163.71 259.23L166.772 256.907L172.484 259.23L173.947 259.23L173.947 265.967Z" fill="#2F2E41"/>
<path d="M215.287 231.591L212.706 236.392L192.96 228.72L196.77 221.635L215.287 231.591Z" fill="#FFB6B6"/>
<path d="M220.386 234.115L212.449 248.878L212.262 248.777C209.089 247.071 207.899 243.115 209.605 239.942L209.605 239.941L209.009 236.145L213.761 232.213L214.453 230.925L220.386 234.115Z" fill="#2F2E41"/>
<path d="M163.45 164L158.639 202.486L161.045 215.389L204.342 234.357L206.747 226.54C195.68 219.768 183.849 209.519 176.394 208.765C176.394 208.765 175.776 201.935 181.117 197.72C182.194 196.87 181.958 195.719 182.394 194.676C182.694 193.959 183.886 193.212 184.191 192.476C184.587 191.523 184.097 190.575 184.495 189.606C184.719 189.062 185.566 189.027 185.789 188.482C186.168 187.552 185.92 186.112 186.289 185.193C187.079 183.23 187.838 181.31 188.531 179.51C190.688 173.907 192.206 169.468 192.014 168.51C191.413 165.503 163.45 164 163.45 164Z" fill="#2F2E41"/>
<path d="M162.622 202.375L160.105 218.628L166.457 251.797H174.876C177.901 240.652 178.057 226.004 175.177 213.611L162.622 202.375Z" fill="#2F2E41"/>
<path d="M168.031 116.977L171.912 110.214L176.079 106.871L183.896 105.668L186.068 107.338C193.884 119.285 196.799 133.783 194.207 147.821L193.597 151.126L193.21 153.224L193.378 155.731L192.073 159.381L192.252 162.054L192.348 163.482L192.444 164.914L192.579 166.914C192.819 168.056 191.609 167.905 191.78 168.911C192.08 170.678 193.429 173.296 191.38 173.305L170.212 168.911C164.834 168.933 159.828 162.521 165.02 157.329L168.031 116.977Z" fill="#3F3D56"/>
<path d="M177.939 103.785C183.616 103.785 188.218 99.1824 188.218 93.5053C188.218 87.8283 183.616 83.2261 177.939 83.2261C172.262 83.2261 167.66 87.8283 167.66 93.5053C167.66 99.1824 172.262 103.785 177.939 103.785Z" fill="#FFB8B8"/>
<path d="M178.113 103.493C179.617 103.516 181.12 103.411 182.606 103.179C184.08 102.879 187.375 100.464 188.294 99.0109C188.976 97.9311 189.413 96.2451 189.659 95.0209C190.329 91.7447 189.578 88.3381 187.593 85.6467C187.216 85.0901 186.696 84.6457 186.087 84.3607C186.033 84.3396 185.977 84.3209 185.921 84.3049C185.034 84.0714 184.236 83.578 183.631 82.888C183.514 82.7485 183.387 82.6176 183.251 82.4963C182.567 81.9193 181.756 81.5123 180.885 81.3085C179.479 80.9322 177.444 81.3058 174.837 82.4199C173.527 82.9797 172.094 82.7771 170.992 82.5381C170.867 82.5138 170.737 82.5581 170.653 82.6544C170.184 83.0946 169.566 83.341 168.923 83.3441C168.529 83.3614 168.116 83.9068 167.616 84.618C167.503 84.7794 167.37 84.9679 167.275 85.0825L167.262 84.8623L167.04 85.1079C165.893 86.3714 165.988 88.3249 167.252 89.4712C167.591 89.7792 167.995 90.0078 168.434 90.1404C168.83 90.2458 169.236 90.3105 169.646 90.3335C169.894 90.3558 170.15 90.3789 170.396 90.4215C172.001 90.7501 173.315 91.8977 173.857 93.4436C174.084 94.0768 174.781 94.4061 175.414 94.179C175.514 94.1434 175.608 94.0949 175.695 94.0349C176.215 93.6302 176.9 93.5055 177.529 93.701C177.796 93.85 178.005 94.0864 178.119 94.3708C178.258 94.6876 178.488 94.9559 178.78 95.1415C179.778 95.6561 179.847 97.9362 179.488 99.8369C179.142 101.669 178.459 102.994 177.827 103.06C177.34 103.11 177.284 103.145 177.249 103.231L177.217 103.308L177.272 103.38C177.541 103.478 177.828 103.516 178.113 103.493Z" fill="#2F2E41"/>
<path d="M157.306 97.4307L157.278 97.4287C149.779 96.3838 142.171 96.3838 134.671 97.4287H134.659C133.909 97.4316 133.168 97.253 132.501 96.908C130.598 95.8745 129.737 93.6046 130.475 91.5687C131.286 89.4745 131.319 87.1593 130.569 85.0427C130.09 83.698 130.266 82.2067 131.044 81.0103C131.769 79.8804 132.987 79.1603 134.326 79.0688C134.431 79.0618 134.537 79.0581 134.644 79.0581C142.129 80.3756 149.786 80.3766 157.272 79.061H157.281C158.777 79.0558 160.185 79.7684 161.067 80.9773C161.808 82.0386 162.036 83.3754 161.688 84.6221C161.111 86.8687 161.138 89.2946 161.772 92.0383C162.002 92.9982 161.887 94.0085 161.447 94.8921C160.657 96.4527 159.055 97.4348 157.306 97.4307Z" fill="#4A2D73"/>
<path d="M166.919 121.641L171.172 115.066C168.288 110.849 158.081 105.119 158.081 105.119L144.881 90.6803C144.568 88.7967 142.787 87.5235 140.903 87.8366C139.02 88.1497 137.746 89.9305 138.06 91.8142C138.263 93.0366 139.105 94.0567 140.266 94.4883L154.113 114.587L166.919 121.641Z" fill="#FFB8B8"/>
<path d="M186.98 129.529C184.458 133.332 179.331 134.371 175.528 131.849C175.102 131.566 174.703 131.245 174.336 130.888L170.79 127.443C170.79 127.443 155.926 119.681 153.757 114.921L144.018 101.107L150.548 95.2158L161.898 105.534C161.898 105.534 167.124 111.577 170.852 111.676C173.135 111.736 179.698 114.816 184.682 118.091C188.474 120.608 189.507 125.723 186.99 129.515L186.98 129.529Z" fill="#3F3D56"/>
<path d="M87.9643 265.907L87.9366 265.905C80.4372 264.86 72.8291 264.86 65.3297 265.905H65.3176C64.5668 265.908 63.8264 265.729 63.1595 265.384C61.2564 264.351 60.3951 262.081 61.1336 260.045C61.9439 257.951 61.9771 255.635 61.2272 253.519C60.7482 252.174 60.924 250.683 61.7027 249.486C62.4277 248.356 63.6447 247.636 64.9841 247.545C65.0894 247.538 65.1951 247.534 65.302 247.534C72.787 248.852 80.4446 248.853 87.9299 247.537H87.9393C89.4356 247.532 90.8437 248.244 91.7255 249.453C92.4662 250.515 92.6938 251.852 92.346 253.098C91.7687 255.345 91.796 257.771 92.4303 260.514C92.6603 261.474 92.5453 262.485 92.1053 263.368C91.3155 264.929 89.7134 265.911 87.9643 265.907Z" fill="#4A2D73"/>
<path d="M94.3544 249.132L94.3267 249.13C86.8273 248.085 79.2192 248.085 71.7198 249.13H71.7077C70.9569 249.133 70.2165 248.954 69.5496 248.609C67.6465 247.576 66.7853 245.306 67.5237 243.27C68.334 241.176 68.3672 238.86 67.6173 236.744C67.1383 235.399 67.3142 233.908 68.0928 232.711C68.8178 231.582 70.0348 230.861 71.3742 230.77C71.4795 230.763 71.5852 230.759 71.6921 230.759C79.1772 232.077 86.8347 232.078 94.3201 230.762H94.3294C95.8257 230.757 97.2338 231.47 98.1156 232.678C98.8564 233.74 99.084 235.077 98.7361 236.323C98.1589 238.57 98.1862 240.996 98.8204 243.74C99.0505 244.699 98.9355 245.71 98.4955 246.593C97.7056 248.154 96.1035 249.136 94.3544 249.132Z" fill="#4A2D73"/>
<path d="M38.4329 253.705L38.45 253.683C43.5176 248.057 47.7806 241.755 51.1172 234.958L51.124 234.948C51.5423 234.325 52.1051 233.812 52.7645 233.452C54.6869 232.455 57.0496 233.014 58.322 234.766C59.6026 236.611 61.5016 237.936 63.6749 238.5C65.0571 238.857 66.1938 239.838 66.7485 241.154C67.2781 242.387 67.1926 243.799 66.5179 244.959C66.4647 245.051 66.4085 245.14 66.3486 245.229C61.0634 250.69 56.7719 257.032 53.6673 263.969L53.662 263.977C52.828 265.219 51.4487 265.986 49.9534 266.039C48.6593 266.058 47.4245 265.498 46.5868 264.511C45.0494 262.774 43.0248 261.437 40.3969 260.425C39.4729 260.078 38.7006 259.417 38.2152 258.557C37.3652 257.028 37.4494 255.151 38.4329 253.705Z" fill="#4A2D73"/>
<path d="M299.527 266.516L0.473085 266.639C0.210441 266.637 -0.0013673 266.423 6.64674e-06 266.161C0.00136462 265.9 0.212378 265.689 0.473085 265.688L299.527 265.565C299.79 265.566 300.001 265.78 300 266.043C299.999 266.304 299.788 266.515 299.527 266.516Z" fill="#CACACA"/>
<path d="M64.005 21.5312C65.8704 21.5312 67.3826 19.9853 67.3826 18.0784C67.3826 16.1714 65.8704 14.6255 64.005 14.6255C62.1396 14.6255 60.6274 16.1714 60.6274 18.0784C60.6274 19.9853 62.1396 21.5312 64.005 21.5312Z" fill="#3F3D56"/>
<path d="M75.673 21.5312C77.5384 21.5312 79.0506 19.9853 79.0506 18.0784C79.0506 16.1714 77.5384 14.6255 75.673 14.6255C73.8076 14.6255 72.2954 16.1714 72.2954 18.0784C72.2954 19.9853 73.8076 21.5312 75.673 21.5312Z" fill="#3F3D56"/>
<path d="M87.3415 21.5312C89.2069 21.5312 90.7191 19.9853 90.7191 18.0784C90.7191 16.1714 89.2069 14.6255 87.3415 14.6255C85.4761 14.6255 83.9639 16.1714 83.9639 18.0784C83.9639 19.9853 85.4761 21.5312 87.3415 21.5312Z" fill="#3F3D56"/>
<path d="M100.646 20.8075C100.542 20.8075 100.438 20.7673 100.36 20.6873L98.0812 18.3576C97.9293 18.2024 97.9293 17.9543 98.0812 17.7991L100.36 15.4695C100.515 15.312 100.768 15.3094 100.925 15.4633C101.083 15.6176 101.086 15.8705 100.931 16.0281L98.9255 18.0783L100.931 20.1288C101.086 20.2864 101.083 20.5393 100.925 20.6936C100.847 20.7696 100.747 20.8075 100.646 20.8075Z" fill="#3F3D56"/>
<path d="M104.476 20.8075C104.375 20.8075 104.274 20.7697 104.196 20.6936C104.039 20.5394 104.036 20.2866 104.19 20.1289L106.196 18.0784L104.19 16.0281C104.036 15.8706 104.039 15.6176 104.196 15.4634C104.354 15.3089 104.607 15.3118 104.761 15.4696L107.04 17.7991C107.192 17.9544 107.192 18.2024 107.04 18.3577L104.761 20.6874C104.683 20.7674 104.579 20.8075 104.476 20.8075Z" fill="#3F3D56"/>
<path d="M223.702 15.0251H219.464C218.981 15.0251 218.589 15.4166 218.589 15.8998V20.1415C218.589 20.6248 218.981 21.0162 219.464 21.0162H223.702C224.185 21.0162 224.58 20.6248 224.58 20.1415V15.8998C224.58 15.4166 224.185 15.0251 223.702 15.0251Z" fill="#3F3D56"/>
<path d="M213.317 15.0251H209.079C208.596 15.0251 208.205 15.4166 208.205 15.8998V20.1415C208.205 20.6248 208.596 21.0162 209.079 21.0162H213.317C213.8 21.0162 214.196 20.6248 214.196 20.1415V15.8998C214.196 15.4166 213.8 15.0251 213.317 15.0251Z" fill="#3F3D56"/>
<path d="M233.487 15.2249H229.249C228.766 15.2249 228.375 15.6163 228.375 16.0995V20.3412C228.375 20.8245 228.766 21.2159 229.249 21.2159H233.487C233.97 21.2159 234.366 20.8245 234.366 20.3412V16.0995C234.366 15.6163 233.97 15.2249 233.487 15.2249Z" fill="#3F3D56"/>
<path d="M169.614 16.8386H135.74C135.149 16.8386 134.674 17.3179 134.674 17.905C134.674 18.4922 135.149 18.9714 135.74 18.9714H169.614C170.201 18.9714 170.68 18.4922 170.68 17.905C170.68 17.3179 170.201 16.8386 169.614 16.8386Z" fill="#3F3D56"/>
</g>
<defs>
<clipPath id="clip0_1856_15226">
<rect width="300" height="267.213" fill="white"/>
</clipPath>
</defs>
</svg>
