<svg width="300" height="237" viewBox="0 0 300 237" fill="none" xmlns="http://www.w3.org/2000/svg">
<g clip-path="url(#clip0_1956_121694)">
<path d="M184.23 209.723L176.224 217.094L182.587 206.418C177.574 197.327 169.375 189.47 169.375 189.47C169.375 189.47 152.365 205.767 152.365 218.577C152.365 231.387 159.981 235.86 169.375 235.86C178.769 235.86 186.384 231.387 186.384 218.577C186.384 215.726 185.54 212.702 184.23 209.723Z" fill="#F2F2F2"/>
<path d="M174.165 217.493V218.125C174.128 225.464 172.89 231.191 170.461 235.223C170.427 235.283 170.389 235.339 170.355 235.398L170.083 235.233L169.823 235.07C172.518 230.716 173.471 224.561 173.506 218.159C173.509 217.953 173.512 217.743 173.509 217.534C173.499 214.824 173.334 212.082 173.068 209.419C173.049 209.213 173.027 209.003 173.005 208.794C172.637 205.28 172.105 201.923 171.561 199.007C171.524 198.8 171.483 198.594 171.442 198.391C170.502 193.458 169.542 189.885 169.323 189.094C169.298 188.998 169.282 188.944 169.279 188.932L169.576 188.848L169.579 188.844L169.879 188.76C169.883 188.773 169.936 188.951 170.023 189.282C170.358 190.52 171.227 193.88 172.08 198.313C172.118 198.513 172.158 198.719 172.196 198.925C172.64 201.292 173.074 203.936 173.418 206.712C173.506 207.409 173.584 208.097 173.652 208.775C173.677 208.985 173.699 209.194 173.718 209.4C174.006 212.279 174.155 214.977 174.165 217.493Z" fill="white"/>
<path d="M172.08 198.313C171.871 198.341 171.658 198.369 171.442 198.391C170.857 198.451 170.268 198.481 169.679 198.481C167.17 198.485 164.692 197.925 162.427 196.844C162.296 197.009 162.165 197.175 162.03 197.344C164.412 198.506 167.029 199.109 169.679 199.107C170.308 199.106 170.936 199.073 171.561 199.007C171.774 198.985 171.986 198.957 172.196 198.925C173.924 198.677 175.606 198.168 177.182 197.416C177.047 197.244 176.916 197.075 176.788 196.909C175.296 197.606 173.71 198.079 172.08 198.313Z" fill="white"/>
<path d="M173.652 208.775C173.437 208.787 173.221 208.794 173.005 208.794C172.94 208.797 172.871 208.797 172.805 208.797C170.086 208.797 167.407 208.139 164.997 206.88C162.587 205.622 160.517 203.798 158.964 201.567C158.839 201.751 158.714 201.935 158.592 202.123C160.211 204.381 162.345 206.221 164.816 207.49C167.288 208.76 170.027 209.422 172.805 209.422C172.893 209.422 172.98 209.422 173.068 209.419C173.287 209.416 173.502 209.41 173.718 209.4C177.056 209.229 180.273 208.101 182.986 206.149C182.886 205.965 182.786 205.78 182.683 205.596C180.046 207.512 176.908 208.617 173.652 208.775Z" fill="white"/>
<path d="M174.165 217.493C173.946 217.512 173.728 217.524 173.509 217.534C173.274 217.543 173.04 217.549 172.805 217.549C169.152 217.545 165.597 216.358 162.675 214.164C159.753 211.971 157.619 208.89 156.594 205.383C156.454 205.637 156.313 205.887 156.179 206.14C157.334 209.639 159.562 212.685 162.546 214.845C165.531 217.006 169.121 218.171 172.805 218.175C173.04 218.175 173.274 218.171 173.506 218.159C173.728 218.153 173.946 218.14 174.165 218.124C178.585 217.779 182.708 215.766 185.7 212.495C185.634 212.263 185.559 212.035 185.484 211.804C182.594 215.1 178.534 217.141 174.165 217.493Z" fill="white"/>
<path d="M41.0334 83.3235C63.6956 83.3235 82.0669 64.9522 82.0669 42.29C82.0669 19.6279 63.6956 1.25659 41.0334 1.25659C18.3713 1.25659 0 19.6279 0 42.29C0 64.9522 18.3713 83.3235 41.0334 83.3235Z" fill="#E4E4E4"/>
<path d="M41.0334 76.4845C59.9185 76.4845 75.2279 61.1751 75.2279 42.29C75.2279 23.4049 59.9185 8.09546 41.0334 8.09546C22.1483 8.09546 6.83887 23.4049 6.83887 42.29C6.83887 61.1751 22.1483 76.4845 41.0334 76.4845Z" fill="#4A2D73"/>
<path d="M150 83.3235C172.662 83.3235 191.034 64.9522 191.034 42.29C191.034 19.6279 172.662 1.25659 150 1.25659C127.338 1.25659 108.967 19.6279 108.967 42.29C108.967 64.9522 127.338 83.3235 150 83.3235Z" fill="#E4E4E4"/>
<path d="M150 76.4845C168.885 76.4845 184.195 61.1751 184.195 42.29C184.195 23.4049 168.885 8.09546 150 8.09546C131.115 8.09546 115.806 23.4049 115.806 42.29C115.806 61.1751 131.115 76.4845 150 76.4845Z" fill="white"/>
<path d="M258.967 83.3235C281.629 83.3235 300 64.9522 300 42.29C300 19.6279 281.629 1.25659 258.967 1.25659C236.305 1.25659 217.934 19.6279 217.934 42.29C217.934 64.9522 236.305 83.3235 258.967 83.3235Z" fill="#E4E4E4"/>
<path d="M258.967 76.4845C277.852 76.4845 293.161 61.1751 293.161 42.29C293.161 23.4049 277.852 8.09546 258.967 8.09546C240.082 8.09546 224.772 23.4049 224.772 42.29C224.772 61.1751 240.082 76.4845 258.967 76.4845Z" fill="white"/>
<path d="M38.1282 54.6556C38.0671 54.6556 38.0059 54.6541 37.9446 54.6511C37.4038 54.625 36.8751 54.4823 36.3946 54.2327C35.9142 53.9831 35.4934 53.6325 35.1612 53.2049L29.9159 46.461C29.3051 45.6739 29.0315 44.6767 29.155 43.6881C29.2786 42.6995 29.7892 41.8003 30.5748 41.1877L30.7635 41.0409C31.5507 40.4301 32.5479 40.1565 33.5366 40.2801C34.5252 40.4036 35.4244 40.9142 36.0371 41.6998C36.3327 42.0799 36.707 42.3917 37.1343 42.6137C37.5616 42.8358 38.0318 42.9629 38.5128 42.9863C38.9938 43.0098 39.4741 42.929 39.921 42.7496C40.3678 42.5702 40.7706 42.2963 41.1018 41.9467L51.7524 30.704C52.0918 30.3457 52.4985 30.0578 52.9492 29.8567C53.3998 29.6556 53.8857 29.5452 54.379 29.5319C54.8723 29.5186 55.3635 29.6025 55.8243 29.779C56.2852 29.9555 56.7068 30.2211 57.065 30.5605L57.2389 30.7253C57.9624 31.4107 58.3839 32.3554 58.4108 33.3517C58.4377 34.3479 58.0677 35.314 57.3823 36.0375L40.8554 53.4821C40.5045 53.8529 40.0817 54.1482 39.6128 54.3499C39.1438 54.5517 38.6387 54.6557 38.1282 54.6556Z" fill="white"/>
<path d="M131.991 33.9814H104.982V10.4926C105.01 9.03827 105.614 7.65424 106.66 6.64399C107.707 5.63373 109.111 5.07967 110.566 5.10326H119.543C126.407 5.10326 131.991 10.4932 131.991 17.1184V33.9814Z" fill="#2F2E41"/>
<path d="M141.989 230.534L136.862 230.534L134.423 210.758L141.99 210.758L141.989 230.534Z" fill="#FFB6B6"/>
<path d="M143.297 235.504L126.765 235.504V235.295C126.765 233.588 127.443 231.951 128.649 230.745C129.856 229.538 131.493 228.86 133.2 228.86L143.297 228.86L143.297 235.504Z" fill="#2F2E41"/>
<path d="M94.7315 230.534L89.6041 230.534L87.165 210.758L94.7324 210.758L94.7315 230.534Z" fill="#FFB6B6"/>
<path d="M96.0392 235.504L79.5068 235.504V235.295C79.507 233.588 80.185 231.951 81.3917 230.745C82.5985 229.538 84.2351 228.86 85.9417 228.86L96.0395 228.86L96.0392 235.504Z" fill="#2F2E41"/>
<path d="M100.922 71.6543L97.5762 92.9834L129.36 93.4014L125.178 72.9091L100.922 71.6543Z" fill="#FFB6B6"/>
<path d="M98.4989 87.7754L88.3757 114.731L87.1211 226.437H95.6945L116.187 136.687L135.007 224.094H143.371L137.516 125.813C137.516 125.813 139.243 106.087 130.406 94.4471L128.256 88.2332L98.4989 87.7754Z" fill="#2F2E41"/>
<path d="M141.921 108.788C141.036 108.547 140.215 108.115 139.515 107.522C138.815 106.929 138.254 106.19 137.871 105.356C137.488 104.523 137.292 103.616 137.297 102.699C137.302 101.781 137.509 100.876 137.901 100.048L124.38 55.9639L134.326 53.9924L146.692 97.2036C148.041 97.9558 149.067 99.1767 149.576 100.635C150.084 102.093 150.04 103.687 149.452 105.115C148.864 106.543 147.773 107.706 146.385 108.383C144.997 109.06 143.409 109.204 141.921 108.788Z" fill="#FFB6B6"/>
<path d="M124.028 83.4336L102.118 83.0107C101.492 82.9974 100.887 82.7791 100.397 82.3894C99.9063 81.9997 99.5572 81.46 99.4028 80.8529C98.2282 76.2026 95.6441 64.0831 97.0148 52.0121C97.2853 49.6737 98.0221 47.4133 99.1815 45.3646C100.341 43.3159 101.9 41.5206 103.765 40.0849C105.63 38.6491 107.765 37.6021 110.042 37.0058C112.319 36.4095 114.693 36.276 117.023 36.6131C119.48 36.965 121.836 37.8325 123.935 39.1587C126.033 40.4849 127.828 42.2399 129.201 44.3085C130.574 46.3771 131.494 48.7126 131.9 51.1617C132.307 53.6109 132.191 56.1183 131.561 58.5196C128.803 68.993 127.245 76.4858 126.931 80.7903C126.884 81.4127 126.635 82.0028 126.222 82.4703C125.808 82.9379 125.253 83.2573 124.641 83.3797C124.459 83.4159 124.274 83.4341 124.089 83.4343C124.068 83.4343 124.048 83.4341 124.028 83.4336Z" fill="#E4E4E4"/>
<path d="M57.4743 44.7112C57.6059 45.0064 57.714 45.3115 57.7976 45.6237L85.2225 54.9429L90.5218 50.3134L98.5537 57.3978L89.9689 66.5051C89.2753 67.2408 88.3618 67.7317 87.3655 67.9041C86.3693 68.0765 85.3439 67.9211 84.4435 67.4611L55.0972 52.4711C54.036 53.1221 52.8017 53.4345 51.5585 53.3669C50.3154 53.2992 49.1223 52.8547 48.1379 52.0925C47.1536 51.3302 46.4246 50.2863 46.048 49.0997C45.6714 47.913 45.665 46.6398 46.0296 45.4494C46.3943 44.259 47.1127 43.2079 48.0893 42.4357C49.066 41.6636 50.2545 41.2071 51.497 41.127C52.7394 41.0468 53.9767 41.3469 55.0445 41.9871C56.1122 42.6274 56.9597 43.5775 57.4743 44.7112Z" fill="#FFB6B6"/>
<path d="M85.2794 53.4566C85.2815 53.079 85.3651 52.7062 85.5244 52.3638C85.6837 52.0213 85.9151 51.7173 86.2027 51.4725L96.2444 42.9188C97.5152 41.4625 99.3116 40.5697 101.24 40.4362C103.168 40.3026 105.07 40.9392 106.53 42.2064C107.989 43.4735 108.886 45.2677 109.025 47.1955C109.163 49.1233 108.531 51.0272 107.267 52.4897L100.116 63.6251C99.9123 63.9429 99.6421 64.2129 99.3242 64.4169C99.0063 64.6208 98.6482 64.7539 98.2743 64.8069C97.9004 64.86 97.5194 64.8319 97.1573 64.7244C96.7952 64.617 96.4606 64.4327 96.1761 64.1843L86.1786 55.4522C85.8939 55.2039 85.6663 54.897 85.5111 54.5526C85.3559 54.2082 85.2768 53.8344 85.2794 53.4566Z" fill="#E4E4E4"/>
<path d="M123.774 67.1306C123.44 66.9548 123.148 66.7089 122.917 66.4098C122.686 66.1107 122.523 65.7653 122.438 65.3973L119.469 52.5447C118.762 50.7463 118.797 48.7408 119.566 46.968C120.336 45.1952 121.777 43.7999 123.573 43.088C125.37 42.3761 127.375 42.4057 129.15 43.1704C130.925 43.9351 132.324 45.3724 133.041 47.1671L139.633 58.6424C139.821 58.9699 139.936 59.3341 139.971 59.7101C140.005 60.0862 139.958 60.4654 139.833 60.8218C139.708 61.1781 139.508 61.5033 139.246 61.7753C138.984 62.0472 138.666 62.2595 138.315 62.3976L125.96 67.2513C125.608 67.3896 125.231 67.4504 124.854 67.4295C124.477 67.4087 124.108 67.3067 123.774 67.1306Z" fill="#E4E4E4"/>
<path d="M134.402 7.39869C135.417 5.02381 133.672 2.0021 130.506 0.64949C127.339 -0.703124 123.95 0.125565 122.935 2.50044C121.921 4.87531 123.666 7.89705 126.832 9.24966C129.999 10.6023 133.388 9.77356 134.402 7.39869Z" fill="#2F2E41"/>
<path d="M124.58 25.0512C127.967 18.8545 125.69 11.0849 119.493 7.69747C113.296 4.31002 105.527 6.58742 102.139 12.7842C98.7519 18.9809 101.029 26.7505 107.226 30.1379C113.423 33.5254 121.192 31.248 124.58 25.0512Z" fill="#FFB6B6"/>
<path d="M120.374 4.27233H105.748C104.676 4.25845 103.638 4.65049 102.842 5.36981C102.047 6.08913 101.553 7.08255 101.459 8.15084C101.422 8.71855 101.501 9.28798 101.692 9.82384C101.883 10.3597 102.182 10.8506 102.571 11.2661C102.96 11.6816 103.43 12.0128 103.952 12.2392C104.474 12.4657 105.037 12.5826 105.606 12.5826C106.708 12.5826 107.764 13.0203 108.544 13.7996C109.323 14.5788 109.761 15.6357 109.761 16.7377V33.7737H132.614V16.5119C132.614 14.9046 132.297 13.313 131.682 11.828C131.067 10.3431 130.166 8.99378 129.029 7.85723C127.892 6.72067 126.543 5.81911 125.058 5.20401C123.573 4.58891 121.982 4.27233 120.374 4.27233Z" fill="#2F2E41"/>
<path d="M192.476 236.128H34.1655C34.0553 236.128 33.9496 236.085 33.8717 236.007C33.7938 235.929 33.75 235.823 33.75 235.713C33.75 235.603 33.7938 235.497 33.8717 235.419C33.9496 235.341 34.0553 235.297 34.1655 235.297H192.476C192.586 235.297 192.692 235.341 192.77 235.419C192.848 235.497 192.891 235.603 192.891 235.713C192.891 235.823 192.848 235.929 192.77 236.007C192.692 236.085 192.586 236.128 192.476 236.128Z" fill="#CACACA"/>
</g>
<defs>
<clipPath id="clip0_1956_121694">
<rect width="300" height="236.128" fill="white"/>
</clipPath>
</defs>
</svg>
