<svg width="301" height="237" viewBox="0 0 301 237" fill="none" xmlns="http://www.w3.org/2000/svg">
<g clip-path="url(#clip0_2002_17331)">
<path d="M184.73 209.724L176.724 217.095L183.087 206.418C178.074 197.327 169.875 189.471 169.875 189.471C169.875 189.471 152.865 205.767 152.865 218.577C152.865 231.388 160.481 235.86 169.875 235.86C179.269 235.86 186.884 231.388 186.884 218.577C186.884 215.726 186.04 212.702 184.73 209.724Z" fill="#F2F2F2"/>
<path d="M174.665 217.493V218.124C174.628 225.464 173.39 231.191 170.961 235.223C170.927 235.283 170.889 235.339 170.855 235.398L170.583 235.233L170.323 235.07C173.018 230.716 173.971 224.561 174.006 218.159C174.009 217.953 174.012 217.743 174.009 217.534C173.999 214.824 173.834 212.082 173.568 209.419C173.549 209.213 173.527 209.003 173.505 208.794C173.137 205.28 172.605 201.923 172.061 199.006C172.024 198.8 171.983 198.594 171.942 198.391C171.002 193.458 170.042 189.885 169.823 189.094C169.798 188.997 169.782 188.944 169.779 188.932L170.076 188.847L170.079 188.844L170.379 188.76C170.383 188.772 170.436 188.95 170.523 189.282C170.858 190.52 171.727 193.88 172.58 198.313C172.618 198.513 172.658 198.719 172.696 198.925C173.14 201.291 173.574 203.936 173.918 206.712C174.006 207.409 174.084 208.097 174.152 208.775C174.177 208.984 174.199 209.194 174.218 209.4C174.506 212.279 174.655 214.977 174.665 217.493Z" fill="white"/>
<path d="M172.58 198.313C172.371 198.341 172.158 198.369 171.942 198.391C171.357 198.451 170.768 198.482 170.179 198.482C167.67 198.485 165.192 197.925 162.927 196.844C162.796 197.009 162.665 197.175 162.53 197.344C164.912 198.507 167.529 199.11 170.179 199.107C170.808 199.107 171.436 199.073 172.061 199.007C172.274 198.985 172.486 198.957 172.696 198.926C174.424 198.678 176.106 198.169 177.682 197.416C177.547 197.244 177.416 197.075 177.288 196.909C175.796 197.606 174.21 198.079 172.58 198.313Z" fill="white"/>
<path d="M174.152 208.775C173.937 208.787 173.721 208.793 173.505 208.793C173.44 208.797 173.371 208.797 173.305 208.797C170.586 208.797 167.907 208.139 165.497 206.88C163.087 205.621 161.017 203.798 159.464 201.566C159.339 201.751 159.214 201.935 159.092 202.123C160.711 204.381 162.845 206.221 165.316 207.49C167.788 208.76 170.527 209.422 173.305 209.422C173.393 209.422 173.48 209.422 173.568 209.419C173.787 209.416 174.002 209.409 174.218 209.4C177.556 209.229 180.773 208.1 183.486 206.149C183.386 205.965 183.286 205.78 183.183 205.596C180.546 207.512 177.408 208.616 174.152 208.775Z" fill="white"/>
<path d="M174.665 217.494C174.446 217.512 174.228 217.525 174.009 217.534C173.774 217.544 173.54 217.55 173.305 217.55C169.652 217.546 166.097 216.358 163.175 214.165C160.253 211.972 158.119 208.891 157.094 205.384C156.954 205.637 156.813 205.887 156.679 206.14C157.834 209.639 160.062 212.685 163.046 214.846C166.031 217.006 169.621 218.171 173.305 218.175C173.54 218.175 173.774 218.172 174.006 218.159C174.228 218.153 174.446 218.141 174.665 218.125C179.085 217.779 183.208 215.767 186.2 212.495C186.134 212.264 186.059 212.036 185.984 211.804C183.094 215.1 179.034 217.141 174.665 217.494Z" fill="white"/>
<path d="M41.5334 83.3237C64.1956 83.3237 82.5669 64.9524 82.5669 42.2903C82.5669 19.6281 64.1956 1.25684 41.5334 1.25684C18.8713 1.25684 0.5 19.6281 0.5 42.2903C0.5 64.9524 18.8713 83.3237 41.5334 83.3237Z" fill="#E4E4E4"/>
<path d="M41.5334 76.4848C60.4185 76.4848 75.7279 61.1753 75.7279 42.2902C75.7279 23.4051 60.4185 8.0957 41.5334 8.0957C22.6483 8.0957 7.33887 23.4051 7.33887 42.2902C7.33887 61.1753 22.6483 76.4848 41.5334 76.4848Z" fill="#FB8500"/>
<path d="M150.5 83.3237C173.162 83.3237 191.534 64.9524 191.534 42.2903C191.534 19.6281 173.162 1.25684 150.5 1.25684C127.838 1.25684 109.467 19.6281 109.467 42.2903C109.467 64.9524 127.838 83.3237 150.5 83.3237Z" fill="#E4E4E4"/>
<path d="M150.5 76.4848C169.385 76.4848 184.695 61.1753 184.695 42.2902C184.695 23.4051 169.385 8.0957 150.5 8.0957C131.615 8.0957 116.306 23.4051 116.306 42.2902C116.306 61.1753 131.615 76.4848 150.5 76.4848Z" fill="white"/>
<path d="M259.467 83.3237C282.129 83.3237 300.5 64.9524 300.5 42.2903C300.5 19.6281 282.129 1.25684 259.467 1.25684C236.805 1.25684 218.434 19.6281 218.434 42.2903C218.434 64.9524 236.805 83.3237 259.467 83.3237Z" fill="#E4E4E4"/>
<path d="M259.467 76.4847C278.352 76.4847 293.661 61.1753 293.661 42.2902C293.661 23.4051 278.352 8.0957 259.467 8.0957C240.582 8.0957 225.272 23.4051 225.272 42.2902C225.272 61.1753 240.582 76.4847 259.467 76.4847Z" fill="white"/>
<path d="M38.6282 54.6553C38.5671 54.6553 38.5059 54.6538 38.4446 54.6509C37.9038 54.6248 37.3751 54.4821 36.8946 54.2324C36.4142 53.9828 35.9934 53.6322 35.6612 53.2047L30.4159 46.4607C29.8051 45.6736 29.5315 44.6764 29.655 43.6879C29.7786 42.6993 30.2892 41.8001 31.0748 41.1875L31.2635 41.0406C32.0507 40.4299 33.0479 40.1563 34.0366 40.2798C35.0252 40.4034 35.9244 40.9139 36.5371 41.6996C36.8327 42.0797 37.207 42.3915 37.6343 42.6135C38.0616 42.8355 38.5318 42.9627 39.0128 42.9861C39.4938 43.0096 39.9741 42.9288 40.421 42.7494C40.8678 42.5699 41.2706 42.2961 41.6018 41.9465L52.2524 30.7037C52.5918 30.3454 52.9985 30.0575 53.4492 29.8564C53.8998 29.6553 54.3857 29.545 54.879 29.5316C55.3723 29.5183 55.8635 29.6023 56.3243 29.7788C56.7852 29.9553 57.2068 30.2208 57.565 30.5603L57.7389 30.725C58.4624 31.4105 58.8839 32.3552 58.9108 33.3514C58.9377 34.3476 58.5677 35.3138 57.8823 36.0372L41.3554 53.4818C41.0045 53.8526 40.5817 54.1479 40.1128 54.3497C39.6438 54.5515 39.1387 54.6555 38.6282 54.6553Z" fill="white"/>
<path d="M132.491 33.9814H105.482V10.4926C105.51 9.03827 106.114 7.65424 107.16 6.64399C108.207 5.63373 109.611 5.07967 111.066 5.10326H120.043C126.907 5.10326 132.491 10.4932 132.491 17.1184V33.9814Z" fill="#2F2E41"/>
<path d="M142.489 230.535L137.362 230.534L134.923 210.758L142.49 210.758L142.489 230.535Z" fill="#FFB6B6"/>
<path d="M143.797 235.504L127.265 235.503V235.294C127.265 233.588 127.943 231.951 129.149 230.744C130.356 229.537 131.993 228.859 133.7 228.859L143.797 228.86L143.797 235.504Z" fill="#2F2E41"/>
<path d="M95.2315 230.535L90.1041 230.534L87.665 210.758L95.2324 210.758L95.2315 230.535Z" fill="#FFB6B6"/>
<path d="M96.5392 235.504L80.0068 235.503V235.294C80.007 233.588 80.685 231.951 81.8917 230.744C83.0985 229.537 84.7351 228.859 86.4417 228.859L96.5395 228.86L96.5392 235.504Z" fill="#2F2E41"/>
<path d="M101.422 71.6543L98.0762 92.9834L129.86 93.4014L125.678 72.9091L101.422 71.6543Z" fill="#FFB6B6"/>
<path d="M98.9989 87.7754L88.8757 114.731L87.6211 226.437H96.1945L116.687 136.687L135.507 224.094H143.871L138.016 125.813C138.016 125.813 139.743 106.087 130.906 94.4471L128.756 88.2332L98.9989 87.7754Z" fill="#2F2E41"/>
<path d="M142.421 108.788C141.536 108.547 140.715 108.115 140.015 107.522C139.315 106.929 138.754 106.189 138.371 105.356C137.988 104.523 137.792 103.616 137.797 102.698C137.802 101.781 138.009 100.876 138.401 100.047L124.88 55.9637L134.826 53.9922L147.192 97.2033C148.541 97.9556 149.567 99.1764 150.076 100.635C150.584 102.093 150.54 103.687 149.952 105.115C149.364 106.543 148.273 107.705 146.885 108.382C145.497 109.059 143.909 109.204 142.421 108.788Z" fill="#FFB6B6"/>
<path d="M124.528 83.4336L102.618 83.0107C101.992 82.9974 101.387 82.7791 100.897 82.3894C100.406 81.9997 100.057 81.46 99.9028 80.8529C98.7282 76.2026 96.1441 64.0831 97.5148 52.0121C97.7853 49.6737 98.5221 47.4133 99.6815 45.3646C100.841 43.3159 102.4 41.5206 104.265 40.0849C106.13 38.6491 108.265 37.6021 110.542 37.0058C112.819 36.4095 115.193 36.276 117.523 36.6131C119.98 36.965 122.336 37.8325 124.435 39.1587C126.533 40.4849 128.328 42.2399 129.701 44.3085C131.074 46.3771 131.994 48.7126 132.4 51.1617C132.807 53.6109 132.691 56.1183 132.061 58.5196C129.303 68.993 127.745 76.4858 127.431 80.7903C127.384 81.4127 127.135 82.0028 126.722 82.4703C126.308 82.9379 125.753 83.2573 125.141 83.3797C124.959 83.4159 124.774 83.4341 124.589 83.4343C124.568 83.4343 124.548 83.4341 124.528 83.4336Z" fill="#E4E4E4"/>
<path d="M57.9743 44.7112C58.1059 45.0064 58.214 45.3115 58.2976 45.6237L85.7225 54.9429L91.0218 50.3134L99.0537 57.3978L90.4689 66.5051C89.7753 67.2408 88.8618 67.7317 87.8655 67.9041C86.8693 68.0765 85.8439 67.9211 84.9435 67.4611L55.5972 52.4711C54.536 53.1221 53.3017 53.4345 52.0585 53.3669C50.8154 53.2992 49.6223 52.8547 48.6379 52.0925C47.6536 51.3302 46.9246 50.2863 46.548 49.0997C46.1714 47.913 46.165 46.6398 46.5296 45.4494C46.8943 44.259 47.6127 43.2079 48.5893 42.4357C49.566 41.6636 50.7545 41.2071 51.997 41.127C53.2394 41.0468 54.4767 41.3469 55.5445 41.9871C56.6122 42.6274 57.4597 43.5775 57.9743 44.7112Z" fill="#FFB6B6"/>
<path d="M85.7794 53.4569C85.7815 53.0792 85.8651 52.7064 86.0244 52.364C86.1837 52.0216 86.4151 51.7176 86.7027 51.4727L96.7444 42.919C98.0152 41.4628 99.8116 40.57 101.74 40.4364C103.668 40.3029 105.57 40.9395 107.03 42.2066C108.489 43.4737 109.386 45.268 109.525 47.1957C109.663 49.1235 109.031 51.0274 107.767 52.4899L100.616 63.6254C100.412 63.9431 100.142 64.2132 99.8242 64.4171C99.5063 64.6211 99.1482 64.7541 98.7743 64.8072C98.4004 64.8602 98.0194 64.8321 97.6573 64.7246C97.2952 64.6172 96.9606 64.433 96.6761 64.1845L86.6786 55.4525C86.3939 55.2041 86.1663 54.8973 86.0111 54.5529C85.8559 54.2085 85.7768 53.8346 85.7794 53.4569Z" fill="#E4E4E4"/>
<path d="M124.274 67.1311C123.94 66.9553 123.648 66.7094 123.417 66.4103C123.186 66.1112 123.023 65.7658 122.938 65.3978L119.969 52.5452C119.262 50.7467 119.297 48.7412 120.066 46.9685C120.836 45.1957 122.277 43.8004 124.073 43.0885C125.87 42.3766 127.875 42.4062 129.65 43.1709C131.425 43.9356 132.824 45.3729 133.541 47.1676L140.133 58.6428C140.321 58.9704 140.436 59.3345 140.471 59.7106C140.505 60.0867 140.458 60.4659 140.333 60.8222C140.208 61.1786 140.008 61.5038 139.746 61.7758C139.484 62.0477 139.166 62.2599 138.815 62.3981L126.46 67.2517C126.108 67.39 125.731 67.4508 125.354 67.43C124.977 67.4092 124.608 67.3072 124.274 67.1311Z" fill="#E4E4E4"/>
<path d="M134.902 7.39893C135.917 5.02406 134.172 2.00235 131.006 0.649734C127.839 -0.70288 124.45 0.12581 123.435 2.50068C122.421 4.87556 124.166 7.89729 127.332 9.24991C130.499 10.6025 133.888 9.77381 134.902 7.39893Z" fill="#262626"/>
<path d="M125.08 25.0517C128.467 18.855 126.19 11.0854 119.993 7.69796C113.796 4.31051 106.027 6.5879 102.639 12.7847C99.2519 18.9814 101.529 26.751 107.726 30.1384C113.923 33.5259 121.692 31.2485 125.08 25.0517Z" fill="#FFB6B6"/>
<path d="M120.874 4.27282H106.248C105.176 4.25894 104.138 4.65097 103.342 5.3703C102.547 6.08962 102.053 7.08304 101.959 8.15133C101.922 8.71904 102.001 9.28847 102.192 9.82433C102.383 10.3602 102.682 10.8511 103.071 11.2666C103.46 11.682 103.93 12.0133 104.452 12.2397C104.974 12.4662 105.537 12.583 106.106 12.5831C107.208 12.5831 108.264 13.0208 109.044 13.8001C109.823 14.5793 110.261 15.6362 110.261 16.7382V33.7742H133.114V16.5124C133.114 14.9051 132.797 13.3135 132.182 11.8285C131.567 10.3436 130.666 8.99427 129.529 7.85772C128.392 6.72116 127.043 5.8196 125.558 5.2045C124.073 4.5894 122.482 4.27282 120.874 4.27282Z" fill="#262626"/>
<path d="M192.976 236.128H34.6655C34.5553 236.128 34.4496 236.084 34.3717 236.006C34.2938 235.928 34.25 235.823 34.25 235.712C34.25 235.602 34.2938 235.497 34.3717 235.419C34.4496 235.341 34.5553 235.297 34.6655 235.297H192.976C193.086 235.297 193.192 235.341 193.27 235.419C193.348 235.497 193.391 235.602 193.391 235.712C193.391 235.823 193.348 235.928 193.27 236.006C193.192 236.084 193.086 236.128 192.976 236.128Z" fill="#CACACA"/>
</g>
<defs>
<clipPath id="clip0_2002_17331">
<rect width="300" height="236.128" fill="white" transform="translate(0.5)"/>
</clipPath>
</defs>
</svg>
