<svg width="41" height="40" viewBox="0 0 41 40" fill="none" xmlns="http://www.w3.org/2000/svg">
<path d="M8.83333 6.66797H32.1667C33.0507 6.66797 33.8986 7.01916 34.5237 7.64428C35.1488 8.2694 35.5 9.11725 35.5 10.0013V30.0013C35.5 30.8854 35.1488 31.7332 34.5237 32.3583C33.8986 32.9834 33.0507 33.3346 32.1667 33.3346H8.83333C7.94928 33.3346 7.10143 32.9834 6.47631 32.3583C5.85119 31.7332 5.5 30.8854 5.5 30.0013V10.0013C5.5 9.11725 5.85119 8.2694 6.47631 7.64428C7.10143 7.01916 7.94928 6.66797 8.83333 6.66797ZM8.83333 13.3346V20.0013H18.8333V13.3346H8.83333ZM22.1667 13.3346V20.0013H32.1667V13.3346H22.1667ZM8.83333 23.3346V30.0013H18.8333V23.3346H8.83333ZM22.1667 23.3346V30.0013H32.1667V23.3346H22.1667Z" fill="black"/>
</svg>
