<svg width="35" height="35" viewBox="0 0 35 35" fill="none" xmlns="http://www.w3.org/2000/svg">
<path d="M30.5002 0.0126953H3.5002C1.5877 0.0126953 0.0126953 1.5877 0.0126953 3.5002V30.5002C0.0126953 32.4127 1.5877 34.0439 3.55645 34.0439H30.5564C32.4689 34.0439 34.1002 32.4689 34.1002 30.5002V3.5002C34.0439 1.5877 32.4127 0.0126953 30.5002 0.0126953ZM12.3877 20.0939V11.8252H21.6127V20.0377H12.3877V20.0939ZM21.6127 22.6252V31.5127H12.3877V22.6252H21.6127ZM2.54395 11.8252H9.9127V20.0377H2.54395V11.8252ZM24.1439 11.8252H31.5127V20.0377H24.1439V11.8252ZM3.5002 2.54395H30.5002C31.0627 2.54395 31.5127 2.99395 31.5127 3.55645V9.3502H2.54395V3.5002C2.54395 2.9377 2.9377 2.54395 3.5002 2.54395ZM2.54395 30.5002V22.6252H9.9127V31.5127H3.5002C2.9377 31.5127 2.54395 31.0627 2.54395 30.5002ZM30.5002 31.5127H24.1439V22.6252H31.5127V30.5002C31.5127 31.0627 31.0627 31.5127 30.5002 31.5127Z" fill="#023047"/>
</svg>
