<svg width="28" height="34" viewBox="0 0 28 34" fill="none" xmlns="http://www.w3.org/2000/svg">
<path d="M14 0.5L0.5 6.5V15.5C0.5 23.825 6.26 31.61 14 33.5C21.74 31.61 27.5 23.825 27.5 15.5V6.5L14 0.5ZM14 6.5C15.1935 6.5 16.3381 6.97411 17.182 7.81802C18.0259 8.66193 18.5 9.80653 18.5 11C18.5 12.1935 18.0259 13.3381 17.182 14.182C16.3381 15.0259 15.1935 15.5 14 15.5C12.8065 15.5 11.6619 15.0259 10.818 14.182C9.9741 13.3381 9.5 12.1935 9.5 11C9.5 9.80653 9.9741 8.66193 10.818 7.81802C11.6619 6.97411 12.8065 6.5 14 6.5ZM21.695 24.5C19.88 27.275 17.165 29.36 14 30.38C10.835 29.36 8.12 27.275 6.305 24.5C5.795 23.75 5.36 23 5 22.205C5 19.73 9.065 17.705 14 17.705C18.935 17.705 23 19.685 23 22.205C22.64 23 22.205 23.75 21.695 24.5Z" fill="white"/>
</svg>
