<svg width="14" height="14" viewBox="0 0 14 14" fill="none" xmlns="http://www.w3.org/2000/svg">
<path fill-rule="evenodd" clip-rule="evenodd" d="M1.74999 0.394043H12.25C12.9937 0.394043 13.6281 1.00654 13.65 1.75029V12.2503C13.65 13.0159 13.0156 13.6284 12.2719 13.6284H1.77186C1.00624 13.6284 0.393738 12.994 0.393738 12.2503V1.75029C0.393738 1.00654 1.00624 0.394043 1.74999 0.394043ZM12.25 12.644C12.4687 12.644 12.6437 12.469 12.6437 12.2503V1.77217C12.6437 1.55342 12.4687 1.37842 12.25 1.37842H1.74999C1.53124 1.37842 1.37811 1.53154 1.35624 1.75029V12.2503C1.35624 12.469 1.53124 12.644 1.74999 12.644H12.25ZM7.50311 6.51904H9.71249C9.97499 6.51904 10.1937 6.73779 10.2156 7.00029C10.2156 7.28467 9.97499 7.50342 9.71249 7.50342H7.50311V9.71279C7.50311 9.99717 7.26249 10.2159 6.99999 10.2159C6.71561 10.2159 6.49686 9.97529 6.49686 9.71279V7.50342H4.28749C4.00311 7.50342 3.78436 7.26279 3.78436 7.00029C3.78436 6.71592 4.02499 6.49717 4.28749 6.49717H6.49686V4.28779C6.49686 4.00342 6.73749 3.78467 6.99999 3.78467C7.28436 3.78467 7.50311 4.02529 7.50311 4.28779V6.51904Z" fill="white"/>
</svg>
